<?xml version="1.0" encoding="UTF-8" standalone="no"?>
<!-- Created with Inkscape (http://www.inkscape.org/) -->

<svg
   xmlns:dc="http://purl.org/dc/elements/1.1/"
   xmlns:cc="http://creativecommons.org/ns#"
   xmlns:rdf="http://www.w3.org/1999/02/22-rdf-syntax-ns#"
   xmlns:svg="http://www.w3.org/2000/svg"
   xmlns="http://www.w3.org/2000/svg"
   xmlns:sodipodi="http://sodipodi.sourceforge.net/DTD/sodipodi-0.dtd"
   xmlns:inkscape="http://www.inkscape.org/namespaces/inkscape"
   width="744.09448819"
   height="1052.3622047"
   id="svg3168"
   version="1.1"
   inkscape:version="0.48.2 r9819"
   sodipodi:docname="splat6.svg">
  <defs
     id="defs3170" />
  <sodipodi:namedview
     id="base"
     pagecolor="#ffffff"
     bordercolor="#666666"
     borderopacity="1.0"
     inkscape:pageopacity="0.0"
     inkscape:pageshadow="2"
     inkscape:zoom="0.55"
     inkscape:cx="375"
     inkscape:cy="1174.5455"
     inkscape:document-units="px"
     inkscape:current-layer="layer1"
     showgrid="false"
     inkscape:window-width="1012"
     inkscape:window-height="796"
     inkscape:window-x="197"
     inkscape:window-y="0"
     inkscape:window-maximized="0" />
  <metadata
     id="metadata3173">
    <rdf:RDF>
      <cc:Work
         rdf:about="">
        <dc:format>image/svg+xml</dc:format>
        <dc:type
           rdf:resource="http://purl.org/dc/dcmitype/StillImage" />
        <dc:title></dc:title>
      </cc:Work>
    </rdf:RDF>
  </metadata>
  <g
     inkscape:label="Layer 1"
     inkscape:groupmode="layer"
     id="layer1">
    <path
       d="m 99.37358,31.567466 c 0.0712,0.0725 0.14375,0.14375 0.2875,0.215 -0.79125,2.94875 -0.79125,2.94875 -1.86875,4.6025 -1.94125,0 -3.8825,0 -5.825,0.07125 -0.1425,-0.2875 -0.2875,-0.575 -0.35875,-0.8625 -0.14375,-0.14375 -0.21625,-0.21625 -0.2875,-0.2875 0.0712,1.58125 0.14375,3.16375 0.2875,4.81625 0.50375,0 1.00625,0 1.5825,0 0,-0.71875 0,-1.4375 0,-2.15625 1.86875,0.36 4.4575,0.6475 4.4575,3.09125 -0.50375,0 -0.935,0 -1.36625,0 -1.07875,1.36625 -1.51,1.87 -1.51,3.595 0.43125,-0.43125 0.8625,-0.8625 1.36625,-1.29375 0.79125,0.43125 1.58125,0.8625 2.44375,1.29375 -2.3,2.30125 -5.2475,1.94125 -8.19625,1.51 -0.5025,-1.65375 -0.14375,-2.66 -0.43125,-4.17 -1.2225,1.65375 -0.935,3.5225 -1.00625,5.68 -2.51625,0.2875 -3.235,2.30125 -4.60125,4.31375 -0.575,-0.575 -0.575,-0.575 -0.575,-2.1575 0.35875,-0.43 0.79,-0.8625 1.22125,-1.22125 -0.35875,-0.14375 -0.64625,-0.2875 -0.93375,-0.43125 0.5025,-1.43875 1.4375,-1.87 1.22125,-3.38 -1.50875,-0.14375 -2.9475,-0.2875 -4.385,-0.35875 -0.50375,-3.02 -2.87625,-0.935 -2.87625,-3.8825 1.65375,-0.0725 6.83,1.4375 7.26125,1.29375 0.14375,-0.575 0.28875,-1.15 0.4325,-1.72625 2.15625,-0.2875 2.15625,-0.2875 3.30625,-0.93375 -0.14375,-4.745 -0.14375,-4.745 -0.5025,-5.105 2.66,-0.5025 3.95375,-2.22875 6.32625,-2.51625 0.2875,1.58125 0.79125,1.725 2.22875,1.725 -0.1425,-2.5875 -0.1425,-2.5875 0.4325,-4.96125 0.35875,0.0725 0.79,0.21625 1.2225,0.36 0.215,0.935 0.43,1.87 0.64625,2.87625 z M 71.18983,3.8862167 c -0.14375,-0.14375 -0.21625,-0.215 -0.2875,-0.2875 0.0712,-0.14375 0.14375,-0.215 0.2875,-0.2875 0.0713,0.0725 0.14375,0.14375 0.2875,0.2875 -0.14375,0.0725 -0.21625,0.14375 -0.2875,0.2875 z m 5.895,3.4512497 c -0.14375,-0.575 -0.215,-1.0787497 -0.2875,-1.5812497 0.21625,-0.14375 0.50375,-0.21625 0.79125,-0.2875 0,1.5812497 0,1.5812497 -0.50375,1.8687497 z m -8.555,2.1575 c 0.0712,-0.575 0.14375,-1.07875 0.215,-1.5825 0.14375,0.21625 0.36,0.50375 0.575,0.79125 -0.2875,0.21625 -0.575,0.50375 -0.79,0.79125 z m 10.7125,0.5749996 c 0.14375,-0.4312496 0.2875,-0.8624996 0.43125,-1.2224996 0.36,-0.0725 0.79125,-0.14375 1.2225,-0.14375 -0.575,0.43125 -1.15,0.8625 -1.65375,1.3662496 z m -2.66,0 c -0.14375,-0.2874996 -0.2875,-0.5037496 -0.4325,-0.7199996 -1.79625,-0.1425 -3.5225,-0.2875 -5.2475,-0.43 0.0712,-1.2225 0.14375,-2.445 0.2875,-3.6674997 1.4375,0 2.87625,0 4.31375,0 0,0.8625 0,1.7262497 0,2.6599997 0.79125,0.2875 1.58125,0.6475 2.3725,1.0075 -0.43125,0.35875 -0.8625,0.71875 -1.29375,1.1499996 z m 6.97375,2.66 c -0.14375,-0.575 -0.21625,-1.07875 -0.2875,-1.58125 0.43125,-0.2875 0.8625,-0.57625 1.29375,-0.86375 0.50375,1.0075 -0.2875,1.94125 -1.00625,2.445 z m -22.00125,1.07875 c -0.8625,-1.07875 -0.8625,-1.07875 -1.0775,-2.1575 0.79,-0.5025 1.58125,-0.93375 2.3725,-1.36625 0.79,0.2875 1.58125,0.57625 2.44375,0.86375 0,0.35875 0,0.71875 0,1.0775 -1.29375,0.50375 -2.51625,1.0075 -3.73875,1.5825 z m 3.73875,3.73875 c 0.36,-1.7975 0.72,-3.595 1.07875,-5.32125 0.50375,0.0725 1.00625,0.145 1.5825,0.21625 -1.2225,1.36625 -1.07875,3.3075 -2.66125,5.105 z m 21.4975,0.2875 c -0.1425,-0.14375 -0.215,-0.21625 -0.2875,-0.2875 0.0725,-0.0725 0.145,-0.14375 0.2875,-0.21625 0.0725,0.0725 0.145,0.14375 0.21625,0.21625 -0.0712,0.07125 -0.14375,0.14375 -0.21625,0.2875 z m -7.26125,0.2875 c -0.64625,-0.21625 -1.29375,-0.43125 -1.87,-0.575 0.0725,-0.575 0.145,-1.07875 0.21625,-1.5825 0.50375,0.145 1.07875,0.2875 1.65375,0.50375 0.0712,0.43125 0.14375,0.8625 0.2875,1.36625 0.0713,0.07125 0.14375,0.14375 0.21625,0.2875 0.0713,0.0725 0.1425,0.14375 0.2875,0.2875 0.0713,0.0725 0.14375,0.14375 0.2875,0.21625 -0.14375,0.07125 -0.21625,0.14375 -0.2875,0.2875 -0.145,-0.14375 -0.21625,-0.21625 -0.2875,-0.2875 -0.0725,-0.0725 -0.145,-0.14375 -0.21625,-0.21625 -0.14375,-0.14375 -0.21625,-0.215 -0.2875,-0.2875 z m -6.18375,0 c -1.4375,-2.5875 -2.22875,-2.3725 -4.81625,-2.7325 0.0712,-0.575 0.215,-1.15 0.35875,-1.725 1.7975,-0.14375 1.7975,-0.14375 2.9475,0.2875 0.145,-0.43125 0.2875,-0.86375 0.4325,-1.2225 0.93375,0.21625 1.86875,0.43125 2.80375,0.6475 1.15,-1.58125 1.15,-1.7975 3.09125,-2.22875 -1.2225,4.02625 -2.58875,4.02625 -4.8175,6.97375 z m -4.81625,0.79125 c 0,-0.50375 0,-0.935 0,-1.36625 0.35875,0 0.71875,0 1.0775,0 0,0.5025 0,1.07875 0,1.65375 -0.2875,0 -0.575,0 -0.8625,0 -0.0712,0.07125 -0.14375,0.14375 -0.215,0.2875 -0.14375,-0.14375 -0.21625,-0.21625 -0.2875,-0.2875 0.0713,-0.14375 0.14375,-0.21625 0.2875,-0.2875 z m 22,2.9475 c 0,-0.575 0,-1.07875 0,-1.5825 1.07875,0.21625 1.07875,0.21625 1.5825,0.79125 -0.575,0.21625 -1.07875,0.50375 -1.5825,0.79125 z m -73.6225,1.07875 c 0,-0.14375 0,-0.2875 0,-0.50375 0.1425,0 0.35875,0 0.575,0 0,0.14375 0,0.2875 0,0.50375 -0.145,0 -0.36,0 -0.575,0 z m 72.545,0.575 c 0,-0.14375 0,-0.36 0,-0.575 0.14375,0 0.35875,0 0.575,0 0,0.14375 0,0.35875 0,0.575 -0.14375,0 -0.36,0 -0.575,0 z m -5.3925,4.24125 c 0,-0.35875 0,-0.71875 0,-1.0775 0.1425,0 0.35875,0 0.575,0 0,0.35875 0,0.71875 0,1.0775 -0.14375,0 -0.36,0 -0.575,0 z m -2.66125,0 c 0,-0.1425 0,-0.2875 0,-0.5025 0.14375,0 0.2875,0 0.50375,0 0,0.14375 0,0.2875 0,0.5025 -0.14375,0 -0.2875,0 -0.50375,0 z m -4.31375,0.575 c 0.14375,-0.79 0.2875,-1.58125 0.43125,-2.3 0.36,-0.14375 0.79125,-0.2875 1.2225,-0.43125 -0.8625,2.15625 -0.8625,2.15625 -1.65375,2.73125 z m -8.34,0 c -0.0712,-0.575 -0.14375,-1.15 -0.215,-1.6525 0.5025,0 0.5025,0 0.5025,1.365 0.0725,0.0725 0.14375,0.145 0.2875,0.2875 -0.14375,0.0725 -0.215,0.145 -0.2875,0.2875 -0.14375,-0.1425 -0.215,-0.215 -0.2875,-0.2875 z m -49.68125,0.50375 c 0,-0.93375 0,-1.7975 0,-2.66 2.1575,0.21625 2.1575,0.21625 3.81125,1.29375 -1.65375,1.07875 -1.65375,1.07875 -3.81125,1.36625 z m 52.12625,0.2875 c -0.14375,-0.14375 -0.21625,-0.215 -0.2875,-0.2875 0.0712,-0.07125 0.14375,-0.14375 0.2875,-0.21625 0.0713,0.0725 0.14375,0.145 0.2875,0.21625 0.0713,0.0725 0.14375,0.14375 0.2875,0.2875 0.0712,0.0725 0.14375,0.14375 0.21625,0.2875 -0.0725,0.0725 -0.145,0.14375 -0.21625,0.21625 -0.14375,-0.0725 -0.21625,-0.14375 -0.2875,-0.21625 -0.14375,-0.14375 -0.21625,-0.215 -0.2875,-0.2875 z m -5.89625,0.79125 c -0.0713,-0.8625 -0.0713,-1.65375 -0.0713,-2.445 0.2875,0.0725 0.575,0.145 0.8625,0.2875 0,1.07875 0,1.07875 -0.79125,2.1575 z m -45.655,0.79125 c -0.14375,-0.0725 -0.215,-0.14375 -0.2875,-0.21625 0.0725,-0.14375 0.14375,-0.215 0.2875,-0.2875 0.0725,0.0725 0.14375,0.14375 0.21625,0.2875 -0.0725,0.0725 -0.14375,0.14375 -0.21625,0.21625 z m 69.81375,0.8625 c 0.2875,-1.36625 0.2875,-1.36625 -0.145,-3.95375 1.2225,-0.6475 1.2225,-0.6475 2.805,-0.6475 0.64625,0.6475 0.64625,0.6475 0.5025,1.58125 -0.2875,-0.2875 -0.575,-0.575 -0.79,-0.79125 -0.50375,0.575 -0.50375,0.575 -0.6475,3.38 -0.575,0.14375 -1.15,0.2875 -1.725,0.43125 z m -36.02125,0 c -0.14375,-1.15 -0.2875,-2.30125 -0.43125,-3.37875 -1.15125,-0.145 -2.22875,-0.2875 -3.3075,-0.4325 0,-0.35875 0,-0.71875 0,-1.0775 1.4375,-0.21625 2.87625,-0.36 4.31375,-0.50375 0.50375,2.01375 1.00625,2.87625 2.3725,4.2425 -1.29375,0.8625 -1.29375,0.8625 -2.9475,1.15 z m 28.75875,0 c 0.0725,-0.14375 0.14375,-0.21625 0.2875,-0.2875 0.79125,-0.79125 0.79125,-0.79125 1.4375,-2.87625 1.51,1.07875 2.73375,1.87 2.445,3.81125 -0.43125,0.1425 -0.8625,0.2875 -1.2225,0.43125 -0.215,0.43125 -0.43125,0.8625 -0.575,1.29375 -0.6475,-0.79125 -1.2225,-1.5825 -1.7975,-2.3725 -0.14375,0.0725 -0.215,0.14375 -0.2875,0.215 -0.64625,0.2875 -1.29375,0.575 -1.86875,0.86375 -0.14375,0.07125 -0.21625,0.14375 -0.2875,0.215 0.71875,0.36 1.4375,0.72 2.15625,1.07875 -1.36625,1.36625 -1.7975,1.2225 -3.73875,1.36625 0,0.71875 0,1.4375 0,2.15625 0.36,0 0.72,0 1.07875,0 -0.50375,0.72 -0.93375,1.43875 -1.36625,2.1575 -0.2875,-0.575 -0.575,-1.15 -0.79125,-1.65375 -0.64625,-0.07125 -1.22125,-0.14375 -1.7975,-0.14375 -0.64625,2.3 -1.22125,2.87625 -1.0775,4.02625 0.5025,0.2875 1.0775,0.575 1.65375,0.8625 -0.14375,0.36 -0.28875,0.79125 -0.43125,1.2225 0.8625,0 1.7975,0 2.73125,0 -0.215,0.6475 -0.43125,1.36625 -0.575,2.085 -1.65375,-0.8625 -3.3075,-1.725 -4.96125,-2.51625 0,-1.2225 0,-2.3725 0,-3.5225 0.36,-0.145 0.79125,-0.2875 1.2225,-0.36 -0.575,-2.1575 -2.80375,-5.105 -3.73875,-7.55 2.22875,0.21625 3.235,1.43875 5.32125,2.1575 -1.0075,-1.725 -2.445,-4.67375 -1.65375,-6.75875 3.595,2.22875 2.73125,2.87625 3.1625,6.3275 0.36,0.14375 0.79125,0.2875 1.2225,0.43125 0,-0.575 0,-1.07875 0,-1.58125 0.4325,0 0.8625,0 1.295,0 0.0713,-0.14375 0.1425,-0.21625 0.2875,-0.28875 -0.50375,-0.575 -0.935,-1.15 -1.36625,-1.6525 0.2875,-0.6475 0.575,-1.295 0.8625,-1.87 0.35875,0 0.71875,0 1.07875,0 0.43125,0.8625 0.8625,1.7975 1.29375,2.7325 z m -22.79125,0.215 c -0.14375,-0.07125 -0.21625,-0.1425 -0.2875,-0.215 0.07125,-0.14375 0.14375,-0.21625 0.2875,-0.2875 0.07125,0.07125 0.14375,0.14375 0.215,0.2875 0.14375,0.8625 0.36,1.725 0.57625,2.66 -0.2875,0.0725 -0.57625,0.14375 -0.86375,0.21625 0,-0.935 0,-1.7975 0.0725,-2.66125 z m 9.13125,2.445 c -0.2875,-1.58125 -0.8625,-2.1575 -0.8625,-3.235 0.8625,0.8625 2.5875,2.15625 0.8625,3.235 z m -22.57625,0.50375 c 0,-0.2875 0,-0.6475 0,-1.0075 0.14375,0 0.2875,0 0.50375,0 0,0.28875 0,0.6475 0,1.0075 -0.145,0 -0.2875,0 -0.50375,0 z m 45.9425,0.575 c 1.00625,-0.0725 1.00625,-0.0725 1.87,-0.8625 -0.2875,-0.21625 -0.575,-0.36 -0.86375,-0.50375 -0.43125,0.36 -0.8625,0.71875 -1.29375,1.07875 0.0713,0.07125 0.14375,0.14375 0.2875,0.2875 z m -6.75875,0.5025 c 0,-0.35875 0,-0.71875 0,-1.0775 0.36,0 0.72,0 1.07875,0 0,0.35875 0,0.71875 0,1.0775 -0.35875,0 -0.71875,0 -1.07875,0 z m -63.91625,1.94125 c -0.145,-0.1425 -0.21625,-0.215 -0.2875,-0.2875 -0.50375,0.0725 -1.0075,0.21625 -1.43875,0.36 -0.14375,1.2225 -0.14375,1.2225 0.6475,2.87625 -1.7975,-0.71875 -1.72625,-1.65375 -2.58875,-3.37875 -0.575,-0.145 -1.15,-0.28875 -1.725,-0.4325 0,-0.35875 0,-0.71875 0,-1.07875 0.5025,0 1.07875,0 1.65375,0 -0.0725,-0.575 -0.145,-1.15 -0.145,-1.725 2.37375,0.0725 4.74625,0.21625 7.11875,0.36 0.07125,0.215 0.14375,0.5025 0.215,0.79 -1.15,0.6475 -2.3,1.295 -3.45,1.94125 0.07125,0.0725 0.1425,0.145 0.2875,0.2875 0.1425,0.72 0.2875,1.43875 0.5025,2.1575 -0.2875,-0.6475 -0.575,-1.29375 -0.79,-1.87 z m 17.75875,0.79125 c 0.1425,-1.29375 0.2875,-2.5875 0.5025,-3.81 0.79125,-0.43125 1.5825,-0.8625 2.445,-1.295 0.43125,0.21625 0.93375,0.4325 1.4375,0.6475 0,0.71875 0.07125,1.51 0.14375,2.30125 -2.51625,0.14375 -3.02,0.215 -4.52875,2.15625 z m 15.02625,0.50375 c -1.51,-1.87 -0.79125,-2.51625 -3.0925,-3.6675 0.21625,-0.43125 0.50375,-0.8625 0.79125,-1.29375 0.43125,0 0.935,0 1.43875,0.0725 0,0.5025 0.07125,1.00625 0.14375,1.51 1.2225,-0.6475 1.2225,-0.6475 2.44375,-0.50375 0.14375,1.2225 0.14375,1.2225 -0.64625,3.8825 -0.36,0 -0.72,0 -1.07875,0 z m -3.73875,0 c -1.15,-1.36625 -1.15,-1.36625 -1.15,-2.445 1.00625,0.72 2.44375,0.79125 3.3075,1.65375 -0.72,0.21625 -1.43875,0.50375 -2.1575,0.79125 z m -15.60125,0 c -0.21625,-0.575 -0.4325,-1.07875 -0.57625,-1.5825 0.36,0 0.71875,0 1.07875,0 -0.215,0.50375 -0.36,1.0075 -0.5025,1.5825 z m 47.81125,0.575 c 0,-0.14375 0,-0.36 0,-0.575 0.14375,0 0.2875,0 0.50375,0 0,0.14375 0,0.35875 0,0.575 -0.14375,0 -0.2875,0 -0.50375,0 z m -17.18375,0 c -0.215,-2.80375 -0.79,-4.17 -3.73875,-4.88875 0,-0.36 0,-0.71875 0,-1.0075 1.36625,0 2.805,0 4.2425,0 0.14375,1.9425 0.35875,3.88375 0.575,5.89625 -0.35875,0 -0.71875,0 -1.07875,0 z m -8.0525,0 c 0,-0.36 0,-0.71875 0,-1.07875 0.14375,0 0.2875,0 0.50375,0 0,0.36 0,0.71875 0,1.07875 -0.14375,0 -0.2875,0 -0.50375,0 z m -11.8625,0.5025 c -0.2875,-1.58125 -0.2875,-1.58125 0.2875,-2.15625 0.50375,0.575 0.50375,0.575 0.21625,1.86875 -0.21625,0.0725 -0.36,0.145 -0.50375,0.2875 z m -5.32125,2.7325 c 0.21625,-0.575 0.50375,-1.15 0.79125,-1.65375 0.0725,0.36 0.21625,0.79125 0.36,1.2225 -0.43125,0.14375 -0.79125,0.2875 -1.15125,0.43125 z m 9.635,0.50375 c -0.21625,-0.575 -0.36,-1.07875 -0.50375,-1.5825 1.07875,0.21625 1.07875,0.21625 1.295,1.0075 -0.2875,0.14375 -0.575,0.35875 -0.79125,0.575 z m 20.70625,0.575 c 0.0725,-0.14375 0.14375,-0.215 0.2875,-0.2875 0.0725,0.0725 0.14375,0.14375 0.21625,0.2875 -0.0725,0.0725 -0.14375,0.14375 -0.21625,0.21625 -0.14375,0.07125 -0.215,0.14375 -0.2875,0.2875 -0.14375,0.07125 -0.21625,0.14375 -0.2875,0.2875 -0.14375,-0.14375 -0.21625,-0.21625 -0.2875,-0.2875 0.0712,-0.14375 0.14375,-0.21625 0.2875,-0.2875 0.0712,-0.0725 0.14375,-0.14375 0.2875,-0.21625 z m -14.235,0.50375 c 0,-0.71875 0,-1.43875 0,-2.1575 0.43125,0.14375 0.8625,0.2875 1.29375,0.50375 -0.21625,0.8625 -0.21625,0.8625 -1.29375,1.65375 z m 2.66,0.5025 c 0.2875,-0.93375 0.575,-1.86875 0.93375,-2.80375 0.4325,0 0.86375,0 1.36625,0 0,0.575 0.0725,1.15 0.14375,1.7975 -0.8625,0.2875 -1.65375,0.6475 -2.44375,1.00625 z m -15.6025,0 c -0.2875,-0.64625 -0.575,-1.29375 -0.79,-1.86875 0.215,-0.36 0.43,-0.6475 0.64625,-0.935 0.43125,0 0.8625,0 1.36625,0 0,0.575 0.07125,1.15 0.14375,1.7975 -0.50375,0.2875 -0.935,0.6475 -1.36625,1.00625 z m -4.24125,0.575 c 0,-0.1425 0,-0.35875 0,-0.575 0.35875,0 0.71875,0 1.0775,0 0,0.145 0,0.36 0,0.575 -0.35875,0 -0.71875,0 -1.0775,0 z m -8.0525,0 c -0.36,-2.73125 -0.57625,-2.875 -2.7325,-4.60125 1.07875,-1.07875 1.07875,-1.07875 3.235,-1.86875 -0.0725,0.71875 -0.14375,1.51 -0.14375,2.30125 0.575,0.43 1.2225,0.8625 1.86875,1.365 0,0.43125 0,0.8625 0,1.295 -0.79,0.5025 -1.50875,1.00625 -2.2275,1.50875 z m -20.42,0 c 0,-0.1425 0,-0.35875 0,-0.575 0.14375,0 0.2875,0 0.50375,0 0,0.145 0,0.36 0,0.575 -0.14375,0 -0.2875,0 -0.50375,0 z m 39.76,0.50375 c 0.43125,-0.93375 0.8625,-1.7975 1.29375,-2.66 0.575,0.575 0.575,0.575 0.43125,1.72625 -0.575,0.2875 -1.15,0.575 -1.725,0.93375 z m -3.235,0 c 0.07125,-0.575 0.215,-1.15 0.35875,-1.725 0.36,-0.14375 0.79125,-0.2875 1.2225,-0.36 -0.79125,1.58125 -0.79125,1.58125 -1.58125,2.085 z m -4.8175,0 c 0,-0.35875 0,-0.71875 0,-1.07875 0.14375,0 0.2875,0 0.50375,0 0,0.36 0,0.72 0,1.07875 -0.145,0 -0.2875,0 -0.50375,0 z m -24.7325,0 c 0,-0.14375 0,-0.2875 0,-0.50375 0.35875,0 0.71875,0 1.0775,0 0,0.145 0,0.2875 0,0.50375 -0.35875,0 -0.71875,0 -1.0775,0 z m 61.76,2.7325 c 0,-0.36 0,-0.71875 0,-1.07875 0.35875,0 0.71875,0 1.07875,0 0,0.36 0,0.71875 0,1.07875 -0.36,0 -0.72,0 -1.07875,0 z m -10.21,0 c -0.2875,-0.8625 -0.2875,-0.8625 0.2875,-1.65375 0.14375,0.215 0.2875,0.5025 0.50375,0.79125 -0.2875,0.2875 -0.575,0.575 -0.79125,0.8625 z m 3.52375,0 c 0.0713,0.0725 0.14375,0.14375 0.215,0.215 0.0725,-0.07125 0.14375,-0.1425 0.2875,-0.215 -0.14375,-0.14375 -0.215,-0.21625 -0.2875,-0.2875 -0.0712,0.07125 -0.14375,0.14375 -0.215,0.2875 z m -27.68125,0.5025 c -0.935,-0.79 -1.2225,-0.71875 -1.2225,-2.0125 0.79125,0.215 1.5825,0.50375 2.3725,0.79125 0.145,0.35875 0.2875,0.79125 0.4325,1.22125 -0.575,0 -1.07875,0 -1.5825,0 z m -7.54875,0 c -0.575,-0.8625 -1.15125,-1.65375 -1.65375,-2.44375 -0.28875,0.2875 -0.57625,0.575 -0.79125,0.8625 0,-0.36 0,-0.71875 0,-1.07875 0.5025,-0.575 1.07875,-1.15 1.65375,-1.65375 0.575,1.43875 1.2225,2.87625 1.87,4.31375 -0.36,0 -0.72,0 -1.07875,0 z m 34.9425,0.2875 c -0.145,-0.1425 -0.21625,-0.215 -0.2875,-0.2875 -0.2875,-0.2875 -0.575,-0.575 -0.79125,-0.79 1.15,-1.2225 1.15,-1.2225 1.86875,-3.52375 2.37375,2.3725 2.1575,2.94875 2.01375,6.3275 -0.935,-0.575 -1.87,-1.15 -2.80375,-1.72625 z m -19.34125,0.2875 c 0,-0.35875 0,-0.7175 0,-1.0775 0.14375,0 0.2875,0 0.50375,0 0,0.36 0,0.71875 0,1.0775 -0.14375,0 -0.2875,0 -0.50375,0 z m -5.3925,0 c 0,-0.1425 0,-0.35875 0,-0.575 0.14375,0 0.36,0 0.575,0 0,0.145 0,0.36 0,0.575 -0.14375,0 -0.35875,0 -0.575,0 z m -23.07875,0 c -0.0725,-0.64625 -0.0725,-1.29375 -0.0725,-1.94 0.2875,0.07125 0.57625,0.14375 0.86375,0.2875 0,1.0775 0,1.0775 -0.79125,1.6525 z m 52.62875,0.50375 c -0.0712,-0.43125 -0.14375,-0.8625 -0.14375,-1.22125 0.43125,0 0.86375,0 1.36625,0 0.14375,0.35875 0.2875,0.79 0.43125,1.22125 -0.575,0 -1.15,0 -1.65375,0 z m 13.445,0.575 c 0.4325,-1.22125 0.4325,-1.22125 1.72625,-2.08375 0,0.5025 0,1.0775 0,1.6525 -0.57625,0.14375 -1.15125,0.2875 -1.72625,0.43125 z m -76.28375,0.21625 c -0.14375,-0.0725 -0.215,-0.14375 -0.2875,-0.21625 0.0725,-0.14375 0.14375,-0.215 0.2875,-0.2875 0,-0.2875 0,-0.575 0,-0.79125 -1.0775,0.21625 -1.0775,0.21625 -2.44375,1.295 -0.28875,-0.6475 -0.57625,-1.295 -0.79125,-1.87 -0.57625,0 -1.07875,0 -1.58125,0 0,-0.35875 0,-0.71875 0,-1.0775 2.15625,-0.2875 2.9475,0.2875 4.81625,0 0.0725,-0.57625 0.14375,-1.07875 0.21625,-1.5825 0.79,1.2225 0.2875,2.87625 0.07125,4.31375 -0.14375,0.0725 -0.215,0.14375 -0.2875,0.21625 z m 20.9225,0.2875 c -0.2875,-1.5825 -0.2875,-1.5825 0.2875,-2.1575 0.21625,0.72 0.50375,1.43875 0.79125,2.1575 -0.36,0 -0.71875,0 -1.07875,0 z m 3.23625,1.07875 c -0.145,-0.71875 -0.21625,-1.43875 -0.2875,-2.1575 0.575,1.07875 0.575,1.07875 0.2875,2.1575 z m -25.23625,0.575 c 0.1425,-0.2875 0.2875,-0.575 0.5025,-0.8625 0.14375,0.2875 0.36,0.575 0.575,0.8625 -0.36,0 -0.71875,0 -1.0775,0 z m 47.30875,0.5025 c -0.86375,-1.0775 -0.86375,-1.0775 -0.72,-2.3 0.57625,-0.43125 1.15125,-0.8625 1.7975,-1.2225 -0.575,-0.07125 -1.15,-0.14375 -1.6525,-0.21625 0,-0.35875 0,-0.7175 0,-1.0775 0.79,-0.0725 1.58125,-0.0725 2.3725,-0.0725 2.0125,2.22875 0.2875,3.6675 -1.7975,4.88875 z m -16.1775,0.28875 c -0.0725,-0.14375 -0.14375,-0.21625 -0.21625,-0.28875 -3.01875,1.07875 -2.3725,-3.66625 -1.86875,-4.81625 0.2875,0 0.64625,0 1.00625,0 -0.2875,1.0775 -0.575,2.15625 -0.79,3.235 0.64625,-0.43125 0.64625,-0.43125 1.86875,0 0,0.43125 0,0.86375 0,1.29375 0.07125,0.0725 0.14375,0.145 0.2875,0.2875 -0.14375,0.0725 -0.21625,0.145 -0.2875,0.28875 z m 46.805,0.215 c 0,-0.14375 0,-0.2875 0,-0.50375 0.145,0 0.2875,0 0.50375,0 0,0.145 0,0.28875 0,0.50375 -0.14375,0 -0.2875,0 -0.50375,0 z m -19.34,0 c 0,-0.2875 0,-0.64625 0,-1.00625 0.14375,0 0.2875,0 0.50375,0 0,0.2875 0,0.6475 0,1.00625 -0.145,0 -0.2875,0 -0.50375,0 z m -49.46625,0 c -0.35875,-0.43125 -0.6475,-0.79125 -0.935,-1.15 0.935,-0.43125 1.87,-2.1575 3.0925,-2.58875 -0.71875,1.2225 -1.43875,2.445 -2.1575,3.73875 z m 55.865,1.07875 c -0.50375,-1.51 0.575,-1.725 1.65375,-2.085 -0.2875,1.00625 -0.2875,1.00625 -1.65375,2.085 z m -2.3725,0 c -0.0712,-0.36 -0.0712,-0.36 0.21625,-0.21625 0.0713,0.0725 0.1425,0.14375 0.2875,0.21625 -0.145,0.07125 -0.21625,0.14375 -0.2875,0.2875 -0.0725,-0.14375 -0.145,-0.21625 -0.21625,-0.2875 z m -56.1525,0.575 c -0.36,-0.935 -0.71875,-1.7975 -1.07875,-2.66 0.50375,0 1.00625,0 1.5825,0 0.215,0.575 0.5025,1.15 0.79125,1.7975 -0.4325,0.2875 -0.86375,0.575 -1.295,0.8625 z m 20.41875,0.50375 c 0,-0.36 0,-0.72 0,-1.07875 0.14375,0 0.2875,0 0.50375,0 0,0.35875 0,0.71875 0,1.07875 -0.14375,0 -0.2875,0 -0.50375,0 z m 48.31625,0.575 c -0.14375,-0.71875 -0.21625,-1.4375 -0.2875,-2.1575 0.215,0.0725 0.5025,0.14375 0.79,0.21625 0.0725,0.43125 0.14375,0.8625 0.2875,1.36625 -0.2875,0.14375 -0.575,0.36 -0.79,0.575 z m -8.55625,0.5025 c 0,-0.35875 0,-0.7175 0,-1.0775 0.14375,0 0.2875,0 0.50375,0 0,0.36 0,0.71875 0,1.0775 -0.145,0 -0.2875,0 -0.50375,0 z m -62.335,1.07875 c -1.51,-1.725 -2.805,-2.3725 -0.86375,-4.31375 0.57625,0.575 0.57625,0.575 0.86375,2.1575 0.35875,0 0.71875,0 1.0775,0 -0.35875,0.71875 -0.71875,1.4375 -1.0775,2.15625 z m 22.575,0.575 c 0.21625,-0.575 0.50375,-1.15 0.79125,-1.65375 0,1.07875 0,1.07875 -0.79125,1.65375 z m 22.505,0.50375 c 0,-0.14375 0,-0.2875 0,-0.50375 0.1425,0 0.35875,0 0.575,0 0,0.14375 0,0.2875 0,0.50375 -0.14375,0 -0.36,0 -0.575,0 z m -29.47875,0 c -0.43125,-2.0125 -0.575,-3.595 -2.30125,-4.745 0,-1.65375 0.0725,-3.3075 0.145,-4.89 -0.4325,0.0725 -0.86375,0.21625 -1.2225,0.36 0,-1.7975 1.4375,-2.87625 2.51625,-4.17 -0.2875,1.07875 -0.575,2.1575 -0.79125,3.235 0.50375,0.21625 1.07875,0.50375 1.65375,0.79125 -0.71875,0.71875 -0.71875,0.71875 -1.07875,2.445 0.6475,0.14375 1.295,0.2875 1.94125,0.43125 -0.14375,0.35875 -0.2875,0.71875 -0.35875,1.15 1.4375,0 2.875,0 4.31375,0 0.21625,2.7325 0.79125,3.235 0.79125,4.31375 -0.2875,0.14375 -0.50375,0.2875 -0.72,0.43125 -1.29375,-0.8625 -1.29375,-0.8625 -2.51625,-2.5875 -1.65375,1.65375 -1.65375,1.65375 -2.3725,3.235 z m 40.76625,1.65375 c 0,-0.36 0,-0.71875 0,-1.07875 0.36,0 0.71875,0 1.07875,0 0,-1.07875 0,-1.07875 0.575,-1.07875 0,0.72 0,1.43875 0,2.1575 -0.575,0 -1.15,0 -1.65375,0 z m -61.76,0.215 c -0.14375,-0.07125 -0.21625,-0.1425 -0.2875,-0.215 -1.0075,1.00625 -1.9425,-3.235 -2.01375,-3.95375 0.575,-0.2875 1.2225,-0.575 1.87,-0.79125 -0.21625,-1.295 -0.4325,-2.58875 -0.6475,-3.8825 0.5025,0 1.07875,0 1.65375,0 0.14375,1.51 0,4.52875 0.79125,5.6075 -0.21625,0.2875 -0.4325,0.575 -0.575,0.8625 -0.50375,-0.2875 -0.935,-0.575 -1.3675,-0.8625 -0.215,1.36625 -0.215,1.36625 0.57625,2.7325 0.07125,0.0725 0.14375,0.14375 0.2875,0.2875 -0.14375,0.0725 -0.21625,0.14375 -0.2875,0.215 z m 72.545,0.2875 c -2.7325,-2.15625 -0.2875,-5.6075 0,-8.555 0.35875,0 0.71875,0 1.07875,0 0,2.9475 -0.86375,5.53625 -1.07875,8.555 z m -54.28375,0.57625 c -0.215,-0.71875 -0.35875,-1.43875 -0.5025,-2.1575 -0.935,-0.215 -1.87,-0.43125 -2.7325,-0.575 0,-0.935 0,-1.7975 0,-2.66 -0.575,0.0725 -1.15,0.215 -1.72625,0.36 0.0725,-1.2225 0.0725,-1.2225 1.15125,-3.38 1.29375,0.2875 1.58125,1.7975 2.085,2.87625 0.43125,-0.2875 0.935,-0.50375 1.4375,-0.71875 0.2875,0.14375 0.57625,0.35875 0.86375,0.575 -0.72,0.6475 -0.72,0.6475 -0.86375,1.86875 0.14375,-0.215 0.36,-0.35875 0.57625,-0.5025 0.1425,1.22125 0.2875,2.445 0.5025,3.7375 -0.2875,0.145 -0.575,0.36 -0.79125,0.57625 z m 18.2625,1.0775 c -0.21625,-0.71875 -0.36,-1.4375 -0.50375,-2.15625 0.50375,0 1.0075,0 1.5825,0 -0.2875,1.58125 -0.2875,1.58125 -1.07875,2.15625 z m -5.895,0 c 0,-0.1425 0,-0.35875 0,-0.575 0.1425,0 0.2875,0 0.5025,0 0,0.14375 0,0.36 0,0.575 -0.14375,0 -0.2875,0 -0.5025,0 z m 21.4975,0.79125 c -0.145,-0.14375 -0.21625,-0.215 -0.2875,-0.2875 0.0713,-0.14375 0.1425,-0.215 0.2875,-0.2875 0.0712,0.0725 0.14375,0.14375 0.2875,0.2875 -0.14375,0.0725 -0.21625,0.14375 -0.2875,0.2875 z m -9.70625,0.79125 c -1.0075,-1.5825 -1.51,-2.085 -1.72625,-3.8825 0.36,-0.14375 0.79125,-0.2875 1.2225,-0.43125 0.14375,1.65375 0.2875,2.22875 1.29375,3.45125 -0.2875,0.2875 -0.575,0.575 -0.79,0.8625 z m -34.3675,0.2875 c -0.14375,-0.14375 -0.21625,-0.215 -0.2875,-0.2875 0.07125,-0.14375 0.14375,-0.215 0.2875,-0.2875 0.07125,0.0725 0.14375,0.14375 0.2875,0.2875 -0.14375,0.0725 -0.21625,0.14375 -0.2875,0.2875 z m 56.44,0.215 c 0,-0.35875 0,-0.7175 0,-1.0775 0.14375,0 0.2875,0 0.5025,0 0,0.36 0,0.71875 0,1.0775 -0.14375,0 -0.2875,0 -0.5025,0 z m -25.81125,0.57625 c 0,-0.36 0,-0.71875 0,-1.07875 0.1425,0 0.35875,0 0.575,0 0,0.36 0,0.71875 0,1.07875 -0.145,0 -0.36,0 -0.575,0 z m -24.73375,0 c -0.215,-0.57625 -0.36,-1.15125 -0.5025,-1.65375 0.35875,0.14375 0.71875,0.2875 1.15,0.43125 0.14375,0.35875 0.2875,0.79125 0.43125,1.2225 -0.36,0 -0.71875,0 -1.07875,0 z m 47.8125,0.2875 c -0.0712,-0.14375 -0.14375,-0.21625 -0.21625,-0.2875 -0.575,0.215 -0.575,0.215 -1.51,-0.43125 0,-0.50375 0,-0.935 0,-1.36625 0.4325,0 0.86375,0 1.295,0 0.14375,0.50375 0.2875,1.00625 0.43125,1.50875 0.0713,0.0725 0.14375,0.145 0.2875,0.28875 0.0725,0.35875 0.14375,0.71875 0.2875,1.0775 -0.575,0 -0.575,0 -0.575,-0.79 z m -53.7075,0 c -0.14375,-0.14375 -0.21625,-0.21625 -0.2875,-0.2875 0.07125,-0.14375 0.14375,-0.21625 0.2875,-0.28875 0.07125,0.0725 0.14375,0.145 0.2875,0.28875 -0.14375,0.07125 -0.21625,0.14375 -0.2875,0.2875 z m 48.89,0 c 1.07875,-0.2875 1.07875,-0.2875 1.07875,0.215 -0.2875,0 -0.575,0 -0.79125,0 -0.14375,0.0725 -0.215,0.14375 -0.2875,0.2875 -0.14375,-0.14375 -0.215,-0.215 -0.2875,-0.2875 0.0725,-0.07125 0.14375,-0.14375 0.2875,-0.215 z m -9.63375,0.215 c 0,-0.35875 0,-0.71875 0,-1.07875 0.14375,0 0.2875,0 0.50375,0 0,0.36 0,0.72 0,1.07875 -0.145,0 -0.28875,0 -0.50375,0 z m -44.865,0 c -0.07125,-0.35875 -0.07125,-0.35875 0.21625,-0.215 0.07125,0.07125 0.14375,0.14375 0.2875,0.215 -0.14375,0.0725 -0.21625,0.14375 -0.2875,0.2875 -0.0725,-0.14375 -0.14375,-0.215 -0.21625,-0.2875 z m 30.845,0.575 c -0.2875,-0.8625 -0.2875,-0.8625 0.50375,-1.94125 0.5025,0.2875 1.005,0.575 1.50875,0.935 -0.71875,0.2875 -1.36625,0.6475 -2.0125,1.00625 z m -8.55625,1.5825 c 0.21625,-2.66 1.36625,-3.73875 2.9475,-5.89625 2.085,2.3725 -1.15,4.96125 -2.9475,5.89625 z m 10.7125,1.07875 c 0,-0.50375 0,-1.00625 0,-1.5825 0.36,0 0.71875,0 1.07875,0 0,0.50375 0,1.00625 0,1.5825 -0.36,0 -0.71875,0 -1.07875,0 z m -20.41875,0.2875 c -0.0725,-0.14375 -0.14375,-0.21625 -0.215,-0.2875 0.07125,-0.14375 0.1425,-0.21625 0.215,-0.28875 0.0725,0.0725 0.14375,0.145 0.2875,0.28875 -0.14375,0.07125 -0.215,0.14375 -0.2875,0.2875 z m 23.15125,0.79 c 0.07125,-1.0775 0.14375,-2.15625 0.21625,-3.235 0.215,-0.14375 0.5025,-0.21625 0.79,-0.2875 0.2875,1.43875 0.14375,2.66 -1.00625,3.5225 z m 5.89625,0.28875 c -0.145,-0.14375 -0.21625,-0.21625 -0.28875,-0.28875 0.0725,-0.1425 0.14375,-0.215 0.28875,-0.2875 0.07125,0.0725 0.1425,0.145 0.2875,0.2875 -0.145,0.0725 -0.21625,0.145 -0.2875,0.28875 z m -13.94875,0.2875 c -0.79125,-1.51 -1.36625,-3.0925 -0.2875,-4.6025 -0.21625,-0.35875 -0.43125,-0.71875 -0.575,-1.07875 0.215,-0.35875 0.43125,-0.64625 0.71875,-0.93375 0.43125,0 0.8625,0 1.29375,0 0.14375,2.3 0.14375,2.3 -0.43125,6.03875 -0.2875,0.145 -0.5025,0.36 -0.71875,0.57625 z m 37.6025,0.5025 c -0.8625,-1.07875 -0.8625,-1.07875 -0.8625,-2.66 0.35875,0.36 0.71875,0.71875 1.07875,1.07875 0.0713,-0.575 0.1425,-1.15125 0.2875,-1.65375 0.35875,0 0.71875,0 1.0775,0 -0.14375,0.935 -0.2875,1.86875 -0.43125,2.80375 -0.43125,0.14375 -0.79125,0.2875 -1.15,0.43125 z m -2.1575,1.5825 c -0.215,-0.71875 -0.43125,-1.43875 -0.575,-2.085 0.36,0 0.72,0 1.07875,0 0,2.085 0,2.085 -0.50375,2.085 z m -30.6275,0 c 0,-0.28875 0,-0.6475 0,-1.00625 0.1425,0 0.2875,0 0.5025,0 0,0.2875 0,0.64625 0,1.00625 -0.14375,0 -0.2875,0 -0.5025,0 z m -4.8175,0 c 0,-0.36 0,-0.71875 0,-1.00625 0.21625,0.1425 0.43125,0.2875 0.71875,0.43 -0.2875,0.145 -0.5025,0.36 -0.71875,0.57625 z m 8.55625,0.575 c 0,-0.14375 0,-0.36 0,-0.575 0.1425,0 0.35875,0 0.575,0 0,0.14375 0,0.35875 0,0.575 -0.145,0 -0.36,0 -0.575,0 z m -31.7075,1.58125 c 0,-0.35875 0,-0.71875 0,-1.07875 0.215,0.145 0.5025,0.2875 0.79125,0.50375 -0.28875,0.14375 -0.57625,0.36 -0.79125,0.575 z m 12.94125,0.2875 c -0.14375,-0.14375 -0.215,-0.215 -0.2875,-0.2875 0.0725,-0.07125 0.14375,-0.14375 0.2875,-0.215 0.0725,-0.71875 0.21625,-1.43875 0.36,-2.085 0.36,-0.0725 0.79,-0.145 1.2225,-0.145 0.71875,0.57625 1.4375,1.15125 2.22875,1.79875 0,1.29375 0,2.44375 -0.935,3.37875 -1.00625,-1.15125 -0.215,-2.445 -1.58125,-3.81125 -0.36,0.36 -0.72,0.72 -1.07875,1.07875 -0.0725,0.0725 -0.14375,0.14375 -0.21625,0.2875 z m 37.81875,1.36625 c 0.0712,-0.14375 0.14375,-0.215 0.2875,-0.2875 0.50375,-0.575 0.50375,-0.575 0.6475,-2.0125 -0.935,-0.36 -1.87,-0.6475 -2.80375,-0.935 -0.145,-1.7975 -0.21625,-3.595 -0.2875,-5.3925 0.64625,0.36 1.29375,0.71875 1.94,1.07875 0,0.5025 0,1.0775 0,1.65375 2.1575,0.43125 3.52375,2.80375 3.3075,4.88875 -2.0125,1.2225 -2.0125,1.2225 -2.51625,1.00625 -0.14375,0.0725 -0.21625,0.14375 -0.2875,0.2875 -0.14375,0.0725 -0.21625,0.14375 -0.2875,0.21625 -0.0713,0.07125 -0.14375,0.14375 -0.21625,0.2875 -0.14375,-0.14375 -0.215,-0.21625 -0.2875,-0.2875 0.0725,-0.0725 0.14375,-0.14375 0.2875,-0.21625 0.0725,-0.14375 0.145,-0.215 0.21625,-0.2875 z m -5.105,1.07875 c 0,-0.36 0,-0.71875 0,-1.07875 0.14375,0 0.36,0 0.575,0 0,0.36 0,0.71875 0,1.07875 -0.14375,0 -0.35875,0 -0.575,0 z m 15.09875,0.5025 c -0.21625,-0.575 -0.43125,-1.0775 -0.575,-1.58125 0.71875,-0.215 1.4375,-0.43125 2.15625,-0.575 -0.14375,0.575 -0.2875,1.15 -0.43125,1.72625 -0.43125,0.1425 -0.79125,0.2875 -1.15,0.43 z m -22.0725,0.28875 c -0.14375,-0.14375 -0.21625,-0.21625 -0.2875,-0.28875 0.07125,-0.1425 0.14375,-0.215 0.2875,-0.2875 0.07125,0.0725 0.14375,0.145 0.2875,0.2875 0.07125,0.0725 0.14375,0.145 0.2875,0.28875 0.07125,0.07125 0.14375,0.14375 0.21625,0.2875 -0.0725,0.07125 -0.145,0.14375 -0.21625,0.215 -0.14375,-0.07125 -0.21625,-0.14375 -0.2875,-0.215 -0.14375,-0.14375 -0.21625,-0.21625 -0.2875,-0.2875 z m -17.18375,0 c -0.14375,-0.14375 -0.21625,-0.21625 -0.2875,-0.28875 0.07125,-0.1425 0.14375,-0.215 0.2875,-0.2875 0.07125,0.0725 0.14375,0.145 0.2875,0.2875 -0.14375,0.0725 -0.21625,0.145 -0.2875,0.28875 z"
       inkscape:connector-curvature="0"
       id="path48"
       style="fill:#2c2c2b;fill-rule:evenodd;stroke:none" />
  </g>
</svg>
