<?xml version="1.0" encoding="UTF-8" standalone="no"?>
<!-- Created with Inkscape (http://www.inkscape.org/) -->

<svg
   xmlns:dc="http://purl.org/dc/elements/1.1/"
   xmlns:cc="http://creativecommons.org/ns#"
   xmlns:rdf="http://www.w3.org/1999/02/22-rdf-syntax-ns#"
   xmlns:svg="http://www.w3.org/2000/svg"
   xmlns="http://www.w3.org/2000/svg"
   xmlns:sodipodi="http://sodipodi.sourceforge.net/DTD/sodipodi-0.dtd"
   xmlns:inkscape="http://www.inkscape.org/namespaces/inkscape"
   width="744.09448819"
   height="1052.3622047"
   id="svg3168"
   version="1.1"
   inkscape:version="0.48.2 r9819"
   sodipodi:docname="New document 8">
  <defs
     id="defs3170" />
  <sodipodi:namedview
     id="base"
     pagecolor="#ffffff"
     bordercolor="#666666"
     borderopacity="1.0"
     inkscape:pageopacity="0.0"
     inkscape:pageshadow="2"
     inkscape:zoom="0.35"
     inkscape:cx="375"
     inkscape:cy="520"
     inkscape:document-units="px"
     inkscape:current-layer="layer1"
     showgrid="false"
     inkscape:window-width="1012"
     inkscape:window-height="796"
     inkscape:window-x="41"
     inkscape:window-y="24"
     inkscape:window-maximized="0" />
  <metadata
     id="metadata3173">
    <rdf:RDF>
      <cc:Work
         rdf:about="">
        <dc:format>image/svg+xml</dc:format>
        <dc:type
           rdf:resource="http://purl.org/dc/dcmitype/StillImage" />
        <dc:title></dc:title>
      </cc:Work>
    </rdf:RDF>
  </metadata>
  <g
     inkscape:label="Layer 1"
     inkscape:groupmode="layer"
     id="layer1">
    <path
       d="m 44.057331,125.44397 c -0.36,-0.76125 -0.72,-1.52126 -1.08125,-2.24125 -2.28125,-0.80125 -3.4425,-5.00375 -5.56375,-5.00375 -4.3225,0 -4.2025,-5.20375 -4.4425,-7.765 -0.2,0 -0.4,0 -0.56,0 0,-7.48501 -4.92375,1.68125 -4.08375,-5.16375 1.28125,-0.12 1.28125,-0.12 5.16375,0.71999 0.16,-4.4025 -2.9625,-2.88125 -3.8825,-6.683751 -3.3225,0.720001 -2.7625,0.68 -1.64125,-2.2425 -4.88375,-1.2 0.52,-1.64125 0.52,-3.8825 -0.36,-2.64125 -0.04,-4.6025 -2.76125,-5.56375 -4.24375,-0.4 -1.56125,-2.96187 -6.125,-1.0805 -0.28,-1.68125 -0.28,-1.68125 -1.4,-3.36237 0.24,-2.962 3.00125,-1.52113 0.28,-5.0035 -0.2,0 -0.36,0 -0.52,0 -1.88125,-0.92063 -3.72375,-1.84125 -5.565,-2.76188 -0.52,3.24225 -0.52,3.00213 -3.9224999,3.32225 0.64125,-3.042 0.88125,-6.4845 4.0437499,-7.64525 -0.24125,-1.36087 -0.48125,-2.72187 -0.68125,-4.04275 -1.12,-1.361 -1.12,-1.361 -2.8012499,-2.2015 -0.56125,0.2 -1.12125,0.40038 -1.64125,0.56038 -9.2462497,-0.7605 -3.0024997,-6.08425 1.08,-5.56375 1.24125,1.72112 2.3624999,1.96125 4.4837499,2.20137 0.2,-0.20012 0.36,-0.36012 0.52,-0.52025 0.2,-0.56037 0.4,-1.12075 0.56,-1.68112 -3.12125,-1.56113 4.32375,-4.20288 -2.92125,-6.00425 -2.5224999,-2.52175 2.84125,-1.36088 3.4825,-4.00275 -0.40125,-0.7605 -0.76125,-1.521 -1.12125,-2.2415 -0.36,-2.40163 -0.72,-4.80325 -1.08125,-7.20488 -1.68,-0.28025 -1.68,-0.28025 -2.8012499,-1.12087 -4.0824997,2.92212 -5.6037497,-3.6425 0,-1.12075 4.5624999,0.56037 7.6049999,2.72187 12.3687499,3.20212 -0.24,0.80063 -0.48125,1.60125 -0.68125,2.36175 1.12125,0.56038 2.2425,1.12075 3.3225,1.68113 2.7625,-1.521 4.12375,-3.80263 0.84125,-5.84413 1.32,-6.48437 -2.7625,-0.56037 -5.00375,-0.56037 -12.9287499,-9.20625 8.045,-7.72525 9.44625,-3.042 2.28125,-0.24025 5.72375,-2.0815 7.525,-3.36225 0.2,-3.16225 -2.72125,-3.04225 -3.3625,-6.08425 2.7625,0.56037 4.20375,3.48237 7.245,4.16275 7.045,-1.76113 -1.04,-2.84188 3.3225,-5.00325 3.2025,0.48025 3.0425,-3.24225 3.8825,2.48162 1.52125,0.56038 3.0025,1.12075 4.48375,1.68113 1.96125,-0.8005 2.68125,-1.68113 3.3225,-1.68113 0.4,0 0.76,0 1.12,0 1.52125,-4.203 9.12625,-3.44237 12.76875,-3.6025 -1.16,1.16075 -2.84125,2.40163 -4.3225,1.401 -1.68125,3.8025 -1.92125,5.64388 -6.24375,6.08413 -0.56125,0.5605 -1.08125,1.08075 -1.60125,1.60112 -0.92125,6.4845 5.0025,0.7605 5.2025,7.04488 3.68375,2.52162 5.725,4.00275 6.965,8.60587 6.525,2.64188 1.48125,5.0435 -3.3225,4.44313 -3.7225,0.48037 -4.8825,0.36025 -6.28375,3.7225 2.20125,5.60387 -0.36,10.72737 6.845,10.72737 4.4025,-0.56037 2.60125,4.403 1.08,6.4045 3.3625,0 3.3625,0 5.56375,-0.84075 0.20125,-0.20012 0.40125,-0.40012 0.56125,-0.56037 0,-2.20138 -4.0425,-4.68313 1.68125,-5.84388 2.16125,2.16138 4.1225,-2.52175 3.8825,2.52163 5.00375,0.76062 10.00625,1.481 15.01,2.20162 0,2.60163 -5.80375,-0.56037 -8.045,2.80188 -0.56125,-0.84063 -0.56125,-0.84063 -0.72125,-2.40163 -5.0025,0 -4.3225,4.68325 -7.085,0.16 -1.44,1.44113 -2.20125,1.9615 -2.48125,3.92275 3.1225,2.56188 3.8825,2.72188 7.765,1.92138 1.16125,5.1635 10.4475,11.00737 2.9225,14.28987 -2.6825,9.846251 -19.29375,5.80375 -18.4925,-4.56375 -0.56125,-0.12 -1.12125,-0.2 -1.64125,-0.28 -11.84875,7.485 25.7375,19.973761 26.6575,20.293761 0,4.88375 -17.61125,-4.92251 -20.57375,-5.84376 -2.40125,-2.24125 -4.80375,-4.442501 -7.205,-6.643751 -2.24125,-0.24125 -4.88375,0 -6.68375,-1.40125 -4.80375,3.8425 0.28,15.010011 -3.0425,18.332511 -0.56,4.1625 -1.12125,4.7225 -1.12125,6.40375 1.60125,2.1225 3.4825,5.845 -0.84,5.565 0,0.12 0,0.2 0,0.28 -3.3625,1.68125 -3.7625,1.80125 -3.3225,5.56375 -1.92125,-0.56126 -1.44125,-2.08125 -3.3225,-2.8025 -0.8,0.15999 -2.24125,1.04125 -2.24125,0 -0.56,-0.76 -1.12125,-1.48125 -1.68125,-2.20125 z M 16.838581,6.4820886 c 1.20125,-0.44038 2.40125,-0.92063 3.6025,-1.401 2.9225,2.92212 1.28125,4.28287 -2.48125,3.6025 -3.2425,0.36025 -4.60375,2.6417504 -7.245,4.4430004 -1.7212499,4.363 -0.20125,7.84537 -3.3224999,11.12762 -0.2,3.68263 -0.8012497,5.36375 -3.9224997,7.76538 -3.48249996,3.24225 -4.00374996,0.7205 -3.88374996,-2.76188 0.92125,0 1.84124996,0 2.80249996,0 1.44125,-1.12075 1.56125,-2.2015 2.20125,-3.88262 2.7224997,-2.72188 2.5624997,-12.929 5.5637496,-15.5707504 2.20125,-1.08075 4.44375,-2.2015 6.685,-3.32225 z m 82.817496,7.2050004 c -0.88125,-0.96075 -1.76125,-1.92138 -2.642496,-2.92213 4.923749,-2.2015004 7.524999,0.7605 2.642496,2.92213 z m -41.668746,3.88262 c -1.88125,0 -0.88125,-1.20087 -0.56125,-2.76187 -1.88125,-1.04088 -3.8025,-2.1215 -5.72375,-3.20225 -1.80125,-6.5245004 5.36375,-2.5617504 4.60375,0.40025 1,0.20025 4.4825,3.12212 5.0025,3.92262 5.605,3.08225 0,4.08288 -3.32125,1.64125 z m 12.76875,1.96125 c -6.045,-2.84187 1.16,-5.2435 1.16,-0.32012 -0.36,0.08 -0.76,0.20012 -1.16,0.32012 z m -50.595,0.28025 c -2.3625,-3.002 -1.24125,-8.766 2.80125,-4.72325 4.92375,0.7605 -1.92125,1.88138 -2.80125,2.76188 0.68,1.24087 1.80125,1.96137 0,1.96137 z m 57.27875,39.46725 c -3.8425,-6.32437 2.8425,-5.684 3.8825,-1.68125 -3.20125,-0.20012 -0.92,1.68125 -3.8825,1.68125 z m -10.00625,1.12075 c 1.56125,-3.36237 6.725,-5.56387 8.325,-1.12075 -3.5225,-0.12012 -5.2025,-0.4805 -8.325,1.12075 z m 30.019996,2.76188 c -0.559996,-0.36025 -7.764996,-3.20225 -3.362496,-3.6025 1.68125,1.68112 10.167499,2.2415 3.362496,3.6025 z m -32.822496,3.36225 c 0,-1.60113 -2.96125,-5.96413 0.56125,-4.20288 1.48,2.2015 2.12125,2.962 -0.56125,4.20288 z m 37.266249,49.474381 c -6.124999,-4.28375 -13.849999,-7.645 -1.68125,-3.0825 2.88125,0.24 4.3225,3.0825 1.68125,3.0825 z m -47.272499,14.45 c 1.24,-3.1625 1.36,-3.4025 3.8825,-1.68125 3.1225,2.48125 -2.20125,7.205 -3.8825,1.68125 z m 2.80125,8.88625 c -0.6,-3.6425 0.88125,-4.08375 4.0025,-2.9225 0.32125,2.48125 -2.16125,2.36125 -4.0025,2.9225 z m -10.5675,-2.2425 c 0.96125,0.40125 1.9225,0.80125 2.8825,1.24125 1.28125,-4.2025 2.20125,-2.64125 2.6825,0.44 1.24,0.40125 8.085,5.56375 4.4425,5.56375 -2.12125,2.6425 -8.48625,-0.44 -10.5675,-2.52125 -2.08125,-0.52 -7.765,-0.68 -6.845,-3.2025 4.24375,-0.16 9.4475,-0.24001 2.4025,-4.0025 -2.8425,-5.04375 3.8425,1.60125 5.0025,2.48125 z"
       inkscape:connector-curvature="0"
       id="path38"
       style="fill:#2c2c2b;fill-rule:evenodd;stroke:none" />
  </g>
</svg>
