<?xml version="1.0" encoding="UTF-8" standalone="no"?>
<!-- Created with Inkscape (http://www.inkscape.org/) -->

<svg
   xmlns:dc="http://purl.org/dc/elements/1.1/"
   xmlns:cc="http://creativecommons.org/ns#"
   xmlns:rdf="http://www.w3.org/1999/02/22-rdf-syntax-ns#"
   xmlns:svg="http://www.w3.org/2000/svg"
   xmlns="http://www.w3.org/2000/svg"
   xmlns:sodipodi="http://sodipodi.sourceforge.net/DTD/sodipodi-0.dtd"
   xmlns:inkscape="http://www.inkscape.org/namespaces/inkscape"
   width="744.09448819"
   height="1052.3622047"
   id="svg3168"
   version="1.1"
   inkscape:version="0.48.2 r9819"
   sodipodi:docname="splat4.svg">
  <defs
     id="defs3170" />
  <sodipodi:namedview
     id="base"
     pagecolor="#ffffff"
     bordercolor="#666666"
     borderopacity="1.0"
     inkscape:pageopacity="0.0"
     inkscape:pageshadow="2"
     inkscape:zoom="0.55"
     inkscape:cx="375"
     inkscape:cy="1174.5455"
     inkscape:document-units="px"
     inkscape:current-layer="layer1"
     showgrid="false"
     inkscape:window-width="1012"
     inkscape:window-height="796"
     inkscape:window-x="197"
     inkscape:window-y="0"
     inkscape:window-maximized="0" />
  <metadata
     id="metadata3173">
    <rdf:RDF>
      <cc:Work
         rdf:about="">
        <dc:format>image/svg+xml</dc:format>
        <dc:type
           rdf:resource="http://purl.org/dc/dcmitype/StillImage" />
        <dc:title></dc:title>
      </cc:Work>
    </rdf:RDF>
  </metadata>
  <g
     inkscape:label="Layer 1"
     inkscape:groupmode="layer"
     id="layer1">
    <path
       d="m 41.497091,73.465869 c -2.24125,-1.195 -9.7325,-4.11875 -12.5925,-8.0025 -0.535,-7.407504 -3.3075,-4.077504 -8.4525,-5.038754 -3.73625,-12.31375 19.125,-7.405 19.125,-8.30125 8.58,-6.85125 2.36875,1.665 2.36875,-8.90125 3.0725,-9.11375 2.92375,-0.02 7.10625,4.1625 8.4525,-4.4175 1.10875,0.5125 13.78875,2.22 3.05125,5.82625 10.84125,-6.8725 11.86625,4.29 -7.58,1.42125 -4.99625,13.422504 -12.76375,13.042504 1.06,0.4075 1.28625,1.1 -0.575,1.4925 -0.17625,-0.52875 -0.3525,-1.07375 -0.545,-1.62125 -1.89125,-0.335 -4.3075,-1.29625 -7.45875,-3.117504 1.49375,5.293754 0.51125,3.031254 5.335,3.542504 -1.8775,7.51375 -12.7,4.6325 -17.2025,6.2325 z M 8.8845909,11.505865 c -0.065,-3.3724995 0.875,-4.1387495 0.96,-0.23375 -0.32,0.0637 -0.64,0.15 -0.96,0.23375 z m 110.2812491,1.79375 c -0.0425,-0.38375 -0.085,-0.78875 -0.15,-1.195 0.96125,-1.025 2.49875,0.0213 0.15,1.195 z m -75.896249,-0.29875 c 0.2125,1.0875 0.40375,2.17625 0.5975,3.26625 -1.11125,-0.855 -1.38875,-2.1575 -0.5975,-3.26625 z m -11.84625,6.51 c -0.96,-0.81125 -1.30125,-1.195 -1.7725,-2.37 2.71125,-0.1925 3.75625,0.1075 1.7725,2.37 z m 15.70875,2.09125 c -0.1925,-0.72625 -0.5775,-0.89625 0.3,-0.89625 -0.0875,0.2975 -0.19375,0.5975 -0.3,0.89625 z m -13.04125,0.2775 c 0.0637,-0.46875 0.1275,-0.93875 0.21375,-1.40875 1.64375,0.32 1.04625,1.08875 -0.21375,1.40875 z m 29.05,2.09125 c -0.15125,-0.44875 -0.15125,-0.44875 0.1475,-0.89625 -0.0425,0.29875 -0.085,0.5975 -0.1475,0.89625 z m -21.345,2.07125 c 0,0.19125 0,0.3825 0,0.5975 -0.085,0 -0.1925,0 -0.29875,0 0,-0.1925 0,-0.385 0,-0.5975 0.0863,0 0.19125,0 0.29875,0 z m 58.09625,1.47125 c -0.2975,0.1075 -0.5975,0.21375 -0.875,0.29875 -3.6275,-0.63875 -11.73875,-5.31375 -3.86375,-7.70375 -2.11125,-8.51625 6.809999,2.30625 4.73875,7.405 z m -22.2175,0.8975 c -1.43125,-0.61875 1.2375,-3.26625 1.2375,-0.23625 -0.405,0.065 -0.81125,0.15 -1.2375,0.23625 z m -8.3025,0.89625 c 0,-0.1925 0,-0.38375 0,-0.59875 0.19125,0 0.3825,0 0.57625,0 0,0.19375 0,0.385 0,0.59875 -0.19375,0 -0.385,0 -0.57625,0 z m -9.79625,1.17375 c -0.74875,-0.32 -0.59875,-0.57625 -0.7275,-1.32375 1.62375,-1.6225 1.8575,1.32375 0.7275,1.32375 z m -20.14875,0.29875 c -0.15,-0.4475 -0.15,-0.4475 0.15,-0.89625 -0.0438,0.29875 -0.0863,0.5975 -0.15,0.89625 z m -13.0425,0.29875 c -1.8125,-3.6275 7.45,-5.03625 1.175,-1.34375 -0.38375,0.4475 -0.7675,0.89625 -1.175,1.34375 z m 66.40125,2.6675 c -0.0213,-0.51125 -0.0425,-1.025 -0.0863,-1.5575 1.57875,0 1.345,1.11 0.0863,1.5575 z m -18.975,0.5975 c -6.34,-5.0575 11.41875,-1.98375 3.71375,-0.44625 -2.5175,-0.385 -2.09125,-0.13 -3.71375,0.44625 z m -26.37875,0.875 c -1.62375,-3.2225 0.7875,-2.5175 1.17125,0 -0.38375,0 -0.76625,0 -1.17125,0 z m 66.696249,1.19625 c -0.405,-1.815 -2.00625,-2.71 1.4725,-3.26625 0,2.1125 0.64125,2.8175 -1.4725,3.26625 z m -64.029999,0.5975 c -0.0637,-0.79 -0.12875,-0.64125 0.5975,-0.89625 -0.15,0.5975 -0.15,0.5975 -0.5975,0.89625 z m 57.498749,0.29875 c -1.30125,-0.57625 -0.34125,-4.675 2.28375,-1.58 -0.725,1.06875 -1.06625,1.1525 -2.28375,1.58 z m -15.408749,0.29875 c 1.10875,-2.56125 1.08875,-3.5425 3.32875,-1.87875 0,1.7925 -1.96375,1.7725 -3.32875,1.87875 z m -20.15,1.175 c -1.74875,-0.87625 -4.67375,-0.855 -4.31,-3.26625 4.14125,-2.64625 9.51875,2.39 4.31,3.26625 z m 20.7475,5.03625 c -1.7075,-0.85375 -1.11,-1.64375 0.59625,-1.4725 -0.0625,0.725 -0.02,1.06625 -0.59625,1.4725 z m 3.265,6.83 c -0.66125,-0.875 -0.53375,-1.11 0.14875,-1.7925 0.70625,0.87375 0.49125,0.895 -0.14875,1.7925 z m -18.37625,0.87375 c -2.54,-1.7925 -2.30625,-5.03625 -1.64375,-7.70375 7.8975,-10.075 14.59875,3.39375 1.64375,7.70375 z m 22.816249,5.935 c 0.38375,-0.5125 0.32,-0.7275 0.81,-0.235 -0.25625,0.0637 -0.53375,0.15 -0.81,0.235 z m -25.783749,0.2975 c -1.08875,-3.62875 1.21625,-3.8625 1.7725,-0.5975 -0.5775,0.19375 -1.175,0.385 -1.7725,0.5975 z m 3.24375,0.59875 c 0.0862,-0.38375 0.1925,-0.79 0.29875,-1.19625 2.0075,0 1.04625,0.94 -0.29875,1.19625 z m 11.8675,1.17375 c -0.14875,-0.44875 -0.14875,-0.44875 0.15,-0.875 0.6825,0.68375 0.81125,0.5975 -0.15,0.875 z m 13.638749,5.03625 c -3.07375,-2.45375 1.08875,-3.5 0.6625,-0.2125 -0.21375,0.0637 -0.42875,0.1275 -0.6625,0.2125 z m -5.037499,2.667504 c -0.8325,-1.36625 -1.34375,-3.115004 -0.085,-4.375004 3.969999,2.34875 5.016249,3.630004 0.085,4.375004 z m -21.6425,0.5975 c -2.26125,-1.77125 -4.5875,-1.1725 -4.5875,-5.335004 3.41375,-5.18625 8.75,3.863754 4.5875,5.335004 z m -6.23125,0.59875 c -3.2875,-2.83875 1.72875,-5.101254 0.895,0 -0.2975,0 -0.59625,0 -0.895,0 z m 4.16125,1.195 c -0.4475,-0.5975 -0.4475,-0.5975 -0.5975,-1.79375 1.43,0.215 1.81375,0.79125 0.5975,1.79375 z m -62.5575,2.945 c 0.21375,0.1075 0.40625,0.21375 0.5975,0.3 -0.21375,-0.1075 -0.40625,-0.21375 -0.5975,-0.3 z m 5.33625,5.33625 c -2.945,-3.47875 6.105,-3.585 2.73125,-0.21375 -0.89625,0.065 -1.81375,0.12875 -2.73125,0.21375 z m 115.019999,0.5975 c 0.0425,-0.1925 0.085,-0.38375 0.14875,-0.5975 0.4275,0.4275 0.3625,0.3425 -0.14875,0.5975 z m -67.296249,0.3 c -2.22,-2.83875 -6.425,1.40875 -5.485,-3.565 -2.4325,-9.605 16.3925,-11.120004 5.93375,1.195 -0.15,0.79 -0.29875,1.57875 -0.44875,2.37 z m -12.145,0.29875 c 0.1925,-1.19625 1.175,-1.55875 1.175,-0.29875 -0.385,0.085 -0.77,0.19125 -1.175,0.29875 z m -13.34,2.06875 c -0.0212,-0.51125 -0.0412,-1.02375 -0.085,-1.5575 1.90125,0 1.83625,1.13125 0.085,1.5575 z m 68.769999,1.495 c -2.92375,-1.55875 -13.574999,-15.2175 -4.9725,-10.7575 6.23125,-12.465004 34.04125,5.2725 9.1125,5.2725 -6.06125,-1.51625 -3.97,2.64625 -4.14,5.485 z m -63.732499,1.1725 c -6.06,-3.22125 4.0975,-5.44125 1.3225,-2.6675 0,2.1775 1.26,2.22 -1.3225,2.6675 z m 66.698749,2.37 c -0.34125,-0.6825 0.21375,-0.46875 0.89625,-0.57625 0,0.76875 -0.15,0.57625 -0.89625,0.57625 z m -17.502499,1.195 c -0.725,-7.34125 3.15875,-7.29875 2.24125,-1.195 -1.04625,0.7475 -1.04625,0.7475 -2.24125,1.195 z m 9.498749,0.89625 c -1.92125,-1.53625 1.2375,-2.4975 1.2375,-0.53375 -0.405,0.1725 -0.81,0.3425 -1.2375,0.53375 z m -43.283749,0.57625 c -0.19375,-0.14875 -0.385,-0.29875 -0.5975,-0.4475 1.0025,0.08625 2.3675,0.4475 0.5975,0.4475 z m 33.20875,1.49375 c -0.23375,-1.06625 -0.6175,-1.19375 0.57625,-1.19375 0,0.81125 0.27875,1.19375 -0.57625,1.19375 z m -3.56375,1.7725 c -0.23375,-1.0675 -0.5975,-1.17375 0.5975,-1.17375 -0.14875,0.87625 -0.14875,0.87625 -0.5975,1.17375 z m -32.91125,0.29875 c -1.8575,-2.09125 -0.8975,-4.48125 0.74625,-1.4725 -0.2975,1.17375 -0.2975,1.17375 -0.74625,1.4725 z"
       inkscape:connector-curvature="0"
       id="path44"
       style="fill:#2c2c2b;fill-rule:evenodd;stroke:none" />
  </g>
</svg>
