<?xml version="1.0" encoding="UTF-8" standalone="no"?>
<!-- Created with Inkscape (http://www.inkscape.org/) -->

<svg
   xmlns:dc="http://purl.org/dc/elements/1.1/"
   xmlns:cc="http://creativecommons.org/ns#"
   xmlns:rdf="http://www.w3.org/1999/02/22-rdf-syntax-ns#"
   xmlns:svg="http://www.w3.org/2000/svg"
   xmlns="http://www.w3.org/2000/svg"
   xmlns:sodipodi="http://sodipodi.sourceforge.net/DTD/sodipodi-0.dtd"
   xmlns:inkscape="http://www.inkscape.org/namespaces/inkscape"
   width="744.09448819"
   height="1052.3622047"
   id="svg3168"
   version="1.1"
   inkscape:version="0.48.2 r9819"
   sodipodi:docname="splat8.svg">
  <defs
     id="defs3170" />
  <sodipodi:namedview
     id="base"
     pagecolor="#ffffff"
     bordercolor="#666666"
     borderopacity="1.0"
     inkscape:pageopacity="0.0"
     inkscape:pageshadow="2"
     inkscape:zoom="0.55"
     inkscape:cx="375"
     inkscape:cy="1174.5455"
     inkscape:document-units="px"
     inkscape:current-layer="layer1"
     showgrid="false"
     inkscape:window-width="1012"
     inkscape:window-height="796"
     inkscape:window-x="197"
     inkscape:window-y="0"
     inkscape:window-maximized="0" />
  <metadata
     id="metadata3173">
    <rdf:RDF>
      <cc:Work
         rdf:about="">
        <dc:format>image/svg+xml</dc:format>
        <dc:type
           rdf:resource="http://purl.org/dc/dcmitype/StillImage" />
        <dc:title></dc:title>
      </cc:Work>
    </rdf:RDF>
  </metadata>
  <g
     inkscape:label="Layer 1"
     inkscape:groupmode="layer"
     id="layer1">
    <path
       d="m 25.131798,87.221042 c -0.268125,-0.26875 -0.4465,-0.4475 -0.6255,-0.62625 -0.446375,0 -0.803625,0 -1.161,0 -0.268125,0.17875 -0.447,0.3575 -0.625375,0.62625 -2.769125,0.3575 -5.449125,0.80375 -8.129,1.25 0.892875,-6.52125 15.097,-16.705 19.920625,-23.58375 -3.3945,1.16125 -6.699875,2.4125 -10.00525,3.6625 -0.08025,-1.095 -0.1295,-2.16125 -0.14675,-3.1975 -5.546625,0 -11.081875,0 -16.56125,0 0,-0.62625 0,-1.25125 0,-1.87625 5.449625,-1.34 7.32525,-4.55625 9.55875,-9.1125 0.98275,0 2.0545,0 3.126375,0 0.625375,0.80375 1.250875,1.60875 1.87625,2.5025 0.872125,0 1.935,-0.1625 2.9915,-0.27625 1.723375,-5.7125 5.910375,-9.43 14.342,-10.105 0.357247,-13.6675 17.687747,-25.37 28.943497,-33.7675 0.17875,0.17875 0.3575,0.3575 0.53625,0.625 0.17875,-0.2675 0.3575,-0.44625 0.625,-0.625 -0.2675,-0.17875 -0.44625,-0.3575 -0.625,-0.53625 1.34,-0.17875 2.68,-0.2675 4.02,-0.3575 1.42875,-4.8237502 1.25,-6.8787502 6.2525,-6.8787502 0.17875,4.91375 -0.44625,7.2362502 -2.50125,11.7925002 -7.50375,0.3575 -15.186,7.6825 -17.68762,14.65 1.608,0 3.30537,0 5.00262,0 -1.51837,5.985 -1.6075,7.23625 -6.61012,10.81 0,1.16125 0,2.41125 0,3.6625 1.78637,-0.2675 3.57287,-0.53625 5.35987,-0.805 -1.60212,7.75875 -3.28512,13.4475 -3.995,21.19875 3.026,-2.84375 4.15375,-5.12375 9.2765,-6.6825 0.12,-0.4375 0.28,-0.8375 0.44,-1.235 -0.4,0 -0.75875,0 -1.1175,0 0.7975,-5.14375 4.625,-9.24875 8.85,-12.19875 -0.19875,0.7175 -0.3575,1.475 -0.5175,2.23125 0.35875,0 0.71625,0 1.075,0 0,0.36 0,0.71875 0,1.1175 -2.78875,0.91625 -4.9025,2.95 -6.89625,4.9825 0.0413,0.39875 0.08,0.7975 0.12,1.23625 1.35625,0 1.35625,0 2.07375,0.6775 -0.55875,1.395 -0.55875,1.395 -0.44,3.18875 1.19625,0.4375 2.39125,0.8775 3.62875,1.35625 -0.04,0.7975 -0.08,1.595 -0.12,2.3925 -1.31625,0.4775 -9.16987,6.815 -9.40775,7.4925 -0.91187,0 -1.81075,0 -2.7025,0 0,2.22625 0,4.4625 0,6.76 -21.79687,4.19875 -22.33312,16.705 -35.642997,29.479998 0,-6.87875 4.5555,-12.417498 3.3945,-18.938748 -1.965375,-0.3575 -3.93075,-0.625 -5.896125,-0.8925 z m 34.721622,-19.1925 c 0.1515,0.06 0.30375,0.1225 0.45588,0.185 0.0429,-0.1575 0.0863,-0.31625 0.12912,-0.47125 -0.1945,0.0937 -0.39125,0.19 -0.585,0.28625 z"
       inkscape:connector-curvature="0"
       id="path52"
       style="fill:#2c2c2b;fill-rule:evenodd;stroke:none" />
  </g>
</svg>
