<?xml version="1.0" encoding="UTF-8" standalone="no"?>
<!-- Created with Inkscape (http://www.inkscape.org/) -->

<svg
   xmlns:dc="http://purl.org/dc/elements/1.1/"
   xmlns:cc="http://creativecommons.org/ns#"
   xmlns:rdf="http://www.w3.org/1999/02/22-rdf-syntax-ns#"
   xmlns:svg="http://www.w3.org/2000/svg"
   xmlns="http://www.w3.org/2000/svg"
   xmlns:sodipodi="http://sodipodi.sourceforge.net/DTD/sodipodi-0.dtd"
   xmlns:inkscape="http://www.inkscape.org/namespaces/inkscape"
   width="744.09448819"
   height="1052.3622047"
   id="svg3446"
   version="1.1"
   inkscape:version="0.48.2 r9819"
   sodipodi:docname="splat3.svg">
  <defs
     id="defs3448" />
  <sodipodi:namedview
     id="base"
     pagecolor="#ffffff"
     bordercolor="#666666"
     borderopacity="1.0"
     inkscape:pageopacity="0.0"
     inkscape:pageshadow="2"
     inkscape:zoom="0.35"
     inkscape:cx="375"
     inkscape:cy="520"
     inkscape:document-units="px"
     inkscape:current-layer="layer1"
     showgrid="false"
     inkscape:window-width="1147"
     inkscape:window-height="856"
     inkscape:window-x="120"
     inkscape:window-y="15"
     inkscape:window-maximized="0" />
  <metadata
     id="metadata3451">
    <rdf:RDF>
      <cc:Work
         rdf:about="">
        <dc:format>image/svg+xml</dc:format>
        <dc:type
           rdf:resource="http://purl.org/dc/dcmitype/StillImage" />
        <dc:title />
      </cc:Work>
    </rdf:RDF>
  </metadata>
  <g
     inkscape:label="Layer 1"
     inkscape:groupmode="layer"
     id="layer1">
    <path
       style="fill:#000000"
       d="m 26.185843,85.844627 c -1.95131,-0.52252 -6.4137,-9.69962 -5.46381,-11.23657 1.07581,-1.7407 4.37715,-1.28954 6.56367,0.89698 1.1,1.1 2.45,2 3,2 1.11262,0 1.29353,3.30282 0.36972,6.75 -0.59183,2.20838 -1.26486,2.44774 -4.46958,1.58959 z m 60.59217,-4.07834 c -0.39583,-1.23132 -1.10923,-1.99801 -1.58533,-1.70376 -1.10846,0.68507 -4.90698,-1.32194 -4.90698,-2.59268 0,-1.7154 4.63761,-1.02273 6.43267,0.96078 0.95845,1.05908 1.52589,2.74658 1.26098,3.75 -0.42525,1.61077 -0.56593,1.56225 -1.20134,-0.41434 z m 5.25769,-2.19174 c -2.0625,-2.12483 -3.75,-4.069 -3.75,-4.32039 0,-0.25139 1.11762,-1.663 2.48359,-3.13691 2.3571,-2.54336 2.60658,-2.59924 4.89887,-1.09727 3.05111,1.99916 5.033787,6.69046 4.21177,9.96565 -0.89708,3.57424 -3.45109,3.1148 -7.84423,-1.41108 z m -49.27912,-5.80949 c 0.79321,-3.16041 2.11496,-4.22317 5.27912,-4.24471 2.32559,-0.0158 2.85538,1.48095 1.35969,3.84145 -0.59929,0.94581 -1.06687,1.02153 -1.5437,0.25 -1.05133,-1.70109 -2.36396,-1.31867 -3.06599,0.89324 -0.98727,3.11063 -2.82716,2.43966 -2.02912,-0.73998 z m -9.63762,0.105 c -0.4532,-1.65154 -1.15746,-2.0257 -3.11021,-1.65241 -2.139,0.4089 -2.92117,-0.19454 -5.1237,-3.95288 -2.93944,-5.01576 -3.28199,-8.48273 -1.11835,-11.3186 1.28516,-1.68445 1.61887,-1.74279 2.52367,-0.44113 0.57347,0.825 0.84171,2.625 0.59607,4 -0.32972,1.84572 0.5986,3.74662 3.54709,7.26332 2.20841,2.63399 3.83222,5.53966 3.63249,6.5 -0.30047,1.4447 -0.45969,1.37774 -0.94706,-0.3983 z M 9.4585829,72.845847 c 0.42145,-2.18841 3.3271201,-2.49801 3.3271201,-0.35451 0,0.81747 -0.82836,1.64584 -1.84081,1.84082 -1.3364001,0.25736 -1.7436701,-0.14991 -1.4863101,-1.48631 z m 27.8271201,0.18558 c 0,-1.00849 -1.75596,-3.45471 -3.90214,-5.43605 -5.02989,-4.64357 -6.39527,-11.23387 -3.47097,-16.75336 2.11214,-3.98656 4.94441,-6.33698 7.63611,-6.33698 0.99989,0 3.12619,-0.9672 4.72511,-2.14933 2.75106,-2.03395 3.04226,-2.06079 5.42433,-0.5 5.15423,3.37718 5.42901,8.61271 0.53358,10.16646 -2.32974,0.73943 -2.11051,2.82183 0.34727,3.29857 0.89515,0.17364 3.17594,-0.41906 5.06843,-1.3171 4.2495,-2.01653 5.57626,-6.78407 3.17837,-11.42108 -1.99982,-3.86722 -1.96179,-4.07752 0.73741,-4.07752 1.25262,0 3.21261,-0.65498 4.35553,-1.45551 1.90275,-1.33275 2.30928,-1.21414 4.81968,1.40614 1.91747,2.00142 2.5499,3.4658 2.10379,4.87136 -0.35082,1.10533 -0.20835,2.27514 0.31661,2.59958 1.04301,0.64462 -2.62121,8.59256 -4.5301,9.82607 -0.63635,0.4112 -0.94428,1.56109 -0.68429,2.5553 0.35437,1.3551 -0.79481,2.49754 -4.59008,4.56318 -2.78454,1.51554 -5.42877,2.52934 -5.87607,2.25289 -2.23087,-1.37875 -9.43038,1.84089 -12.72603,5.69112 -2.55589,2.98598 -3.46654,3.56818 -3.46654,2.21626 z m -22,-4.64415 c 0,-0.55755 0.44388,-1.84311 0.98639,-2.8568 0.96885,-1.81033 -1.02077,-4.56589 -6.3646801,-8.81487 -0.89194,-0.70918 -1.62171,-1.6898 -1.62171,-2.17915 0,-0.9057 8.5232601,-7.02634 9.8001301,-7.03758 0.38493,-0.003 1.92975,-0.64775 3.43294,-1.43191 1.64265,-0.85692 2.96869,-1.0445 3.32366,-0.47015 0.78312,1.26711 -2.54989,9.90822 -3.82175,9.90822 -0.62073,0 -0.74339,2.20901 -0.32702,5.88923 0.66574,5.88439 0.66379,5.89011 -2.37083,6.94798 -2.02255,0.70507 -3.03713,0.72011 -3.03713,0.045 z m 82,-7.88224 c 0,-0.55 0.45,-1 1,-1 0.55,0 1,0.45 1,1 0,0.55 -0.45,1 -1,1 -0.55,0 -1,-0.45 -1,-1 z m -16.39181,-6.49574 c -1.04049,-0.78767 -2.3852,-1.5966 -2.98824,-1.79761 -0.77457,-0.25819 -0.73169,-1.16598 0.14607,-3.09245 1.34465,-2.9512 3.23398,-2.69133 3.23398,0.44482 0,1.27431 0.68694,1.94098 2,1.94098 1.42857,0 2,-0.66667 2,-2.33333 0,-3.00972 0.9708,-3.9358 2.65799,-2.53555 2.89294,2.40092 0.48925,8.90031 -3.26823,8.83708 -1.03937,-0.0175 -2.74107,-0.67627 -3.78157,-1.46394 z m -26.59287,-5.69524 c -0.008,-1.48005 0.43468,-2.9691 0.98468,-3.30902 1.2769,-0.78917 1.2769,2.52414 0,4.5 -0.7582,1.17323 -0.97271,0.91378 -0.98468,-1.19098 z m -27.01532,0.30901 c 0,-0.55 0.45,-1.27811 1,-1.61803 0.55,-0.33992 1,-0.16804 1,0.38196 0,0.55 -0.45,1.27812 -1,1.61804 -0.55,0.33992 -1,0.16803 -1,-0.38197 z M 9.2857029,47.505037 c 0,-0.55 0.45,-1 1.0000001,-1 0.55,0 1,0.45 1,1 0,0.55 -0.45,1 -1,1 -0.5500001,0 -1.0000001,-0.45 -1.0000001,-1 z m 17.6580201,-5.44881 c -0.33543,-0.87411 0.21016,-1.69197 1.37542,-2.0618 1.06226,-0.33715 2.63958,-2.10541 3.50515,-3.92947 1.24396,-2.62145 2.34787,-3.44433 5.26759,-3.9266 2.65913,-0.43923 4.00482,-0.19321 4.80407,0.87827 1.42018,1.90393 2.38975,1.89922 2.38975,-0.0116 0,-2.21825 1.2214,-1.74261 3.74616,1.45885 2.24615,2.84819 2.24615,2.84819 -0.50539,3.80738 -1.51335,0.52755 -4.14506,0.75467 -5.84826,0.50469 -2.06487,-0.30306 -4.80094,0.4091 -8.21136,2.13729 -5.99269,3.03673 -5.8088,3.0045 -6.52313,1.14299 z m 25.84198,0.44881 c -0.33992,-0.55 -0.14147,-1 0.44099,-1 0.58245,0 1.05901,0.45 1.05901,1 0,0.55 -0.19844,1 -0.44098,1 -0.24254,0 -0.7191,-0.45 -1.05902,-1 z m 36.16667,0.33333 c -1.26779,-1.26779 -0.65891,-2.33333 1.33333,-2.33333 1.11111,0 2,0.66667 2,1.5 0,1.52241 -2.1154,2.05126 -3.33333,0.83333 z m -37.02829,-6.83333 c -0.39856,-1.03862 0.0676,-1.5 1.51545,-1.5 1.74534,0 1.88524,0.248 0.84617,1.5 -0.68469,0.825 -1.36664,1.5 -1.51545,1.5 -0.14881,0 -0.52959,-0.675 -0.84617,-1.5 z m 7.36162,-1.5 c 0,-0.55 0.45,-1 1,-1 0.55,0 1,0.45 1,1 0,0.55 -0.45,1 -1,1 -0.55,0 -1,-0.45 -1,-1 z m -6.83543,-6.19274 c -1.74051,-1.10202 -3.20989,-2.29697 -3.26529,-2.65546 -0.16801,-1.0872 -0.19322,-5.54261 -0.0417,-7.37612 0.17604,-2.1307 5.07922,-4.77568 8.85302,-4.77568 2.98424,0 9.54236,5.08236 7.45566,5.77793 -1.42189,0.47396 -1.56365,3.22207 -0.16622,3.22207 2.15211,0 0.82106,2.08636 -2.75,4.31051 -5.65841,3.52421 -6.65069,3.67147 -10.08543,1.49675 z m 24.41838,-7.67305 c -0.43077,-0.697 -0.51316,-1.53734 -0.18308,-1.86741 0.89496,-0.89496 1.87076,0.4213 1.38738,1.87144 -0.33872,1.01618 -0.57426,1.01539 -1.2043,-0.004 z m -5.10407,-4.526 c -1.61719,-1.18252 -1.7027,-1.6336 -0.56869,-3 1.66979,-2.01197 3.47793,-2.05041 5.08981,-0.10821 0.99319,1.19671 0.99319,1.80328 0,3 -1.53716,1.85217 -2.11713,1.86605 -4.52112,0.10821 z"
       id="path2983"
       inkscape:connector-curvature="0" />
  </g>
</svg>
