<?xml version="1.0" encoding="UTF-8" standalone="no"?>
<!-- Created with Inkscape (http://www.inkscape.org/) -->

<svg
   xmlns:dc="http://purl.org/dc/elements/1.1/"
   xmlns:cc="http://creativecommons.org/ns#"
   xmlns:rdf="http://www.w3.org/1999/02/22-rdf-syntax-ns#"
   xmlns:svg="http://www.w3.org/2000/svg"
   xmlns="http://www.w3.org/2000/svg"
   xmlns:sodipodi="http://sodipodi.sourceforge.net/DTD/sodipodi-0.dtd"
   xmlns:inkscape="http://www.inkscape.org/namespaces/inkscape"
   width="744.09448819"
   height="1052.3622047"
   id="svg3446"
   version="1.1"
   inkscape:version="0.48.2 r9819"
   sodipodi:docname="splat1.svg">
  <defs
     id="defs3448" />
  <sodipodi:namedview
     id="base"
     pagecolor="#ffffff"
     bordercolor="#666666"
     borderopacity="1.0"
     inkscape:pageopacity="0.0"
     inkscape:pageshadow="2"
     inkscape:zoom="0.35"
     inkscape:cx="375"
     inkscape:cy="520"
     inkscape:document-units="px"
     inkscape:current-layer="layer1"
     showgrid="false"
     inkscape:window-width="1147"
     inkscape:window-height="856"
     inkscape:window-x="20"
     inkscape:window-y="20"
     inkscape:window-maximized="0" />
  <metadata
     id="metadata3451">
    <rdf:RDF>
      <cc:Work
         rdf:about="">
        <dc:format>image/svg+xml</dc:format>
        <dc:type
           rdf:resource="http://purl.org/dc/dcmitype/StillImage" />
        <dc:title />
      </cc:Work>
    </rdf:RDF>
  </metadata>
  <g
     inkscape:label="Layer 1"
     inkscape:groupmode="layer"
     id="layer1">
    <path
       style="fill:#000000"
       d="m 141.54652,123.39791 c -0.31568,-2.3375 -0.14993,-4.6775 0.36833,-5.2 0.59072,-0.59555 0.9423,0.99017 0.9423,4.25 0,6.30278 -0.53533,6.69081 -1.31063,0.95 z M 97.606757,109.8612 c -1.51271,-0.19041 -3.1986,-1.1837 -3.74641,-2.20731 -1.06863,-1.99674 -0.38441,-5.00598 1.13823,-5.00598 0.53471,0 0.64658,-2.1173 0.26418,-5.000001 -0.56047,-4.22502 -0.41081,-5 0.96556,-5 1.92314,0 2.09933,-1.1295 0.43569,-2.79314 -0.92418,-0.92418 -0.69876,-1.86181 1,-4.1595 2.451193,-3.31541 2.988523,-9.04736 0.84812,-9.04736 -1.99038,0 -4.15765,2.84837 -6.68155,8.78134 -2.06033,4.84327 -2.38631,5.15499 -3.92992,3.75804 -1.50832,-1.36502 -1.88381,-1.36174 -3.61337,0.0315 -1.37087,1.10427 -1.56795,1.7056 -0.68014,2.07529 1.93296,0.80491 1.47716,3.14697 -0.75,3.85385 -1.1,0.34912 -2,1.05445 -2,1.56739 0,0.51293 -0.9,0.93261 -2,0.93261 -1.1,0 -2.00689,0.5625 -2.01532,1.25 -0.0117,0.95241 -0.19623,0.96541 -0.77525,0.0546 -0.53516,-0.84178 -1.88224,-0.94226 -4.55399,-0.33968 -2.15205,0.48536 -5.13691,0.47057 -6.8969,-0.0342 -1.95383,-0.56036 -3.55133,-0.51769 -4.31392,0.1152 -0.85116,0.7064 -1.39686,0.52091 -1.83627,-0.62419 -0.34387,-0.8961 -1.25918,-1.386 -2.03402,-1.08866 -0.77485,0.29734 -1.65693,-0.10598 -1.96019,-0.89625 -0.85455,-2.22691 -2.60688,-1.69474 -2.67753,0.81315 l -0.0634,2.25 -0.91259,-2.27217 c -0.50192,-1.24969 -1.7109,-2.52004 -2.68661,-2.823 -0.97572,-0.30296 -2.54374,-0.96068 -3.48449,-1.46162 -0.94076,-0.50093 -2.39531,-0.64799 -3.23233,-0.32679 -1.5637,0.60004 -1.40163,-0.30183 1.87937,-10.45834 0.62593,-1.93758 0.43773,-2.28122 -1.09001,-1.99032 -1.29264,0.24613 -2.02898,1.5486 -2.45466,4.34192 -0.33445,2.19467 -0.67195,3.00437 -0.75,1.79933 -0.22568,-3.48439 -2.1419,-3.81365 -2.1419,-0.36803 0,3.95271 -1.20104,3.88433 -3.35452,-0.19098 -0.94455,-1.7875 -1.51679,-2.53148 -1.27163,-1.65329 0.49226,1.76337 -3.81191,7.78222 -4.83834,6.76583 -0.35407,-0.3506 -0.69575,-2.91981 -0.75929,-5.70935 -0.0855,-3.75197 -0.5268,-5.15891 -1.69588,-5.40629 -1.19201,-0.25222 -0.96602,-0.68248 0.91966,-1.75094 1.47568,-0.83615 5.57294,-1.46252 10,-1.52876 5.38769,-0.0806 10.3164,-0.99959 17.5,-3.26294 5.5,-1.7329 11.9125,-3.44528 14.25,-3.8053 2.61715,-0.40309 4.25,-1.18177 4.25,-2.02677 0,-1.59414 -1.59779,-1.83201 -2.5,-0.37219 -0.33992,0.55 -1.37898,0.99832 -2.30902,0.99626 -1.04709,-0.002 -0.40954,-0.78498 1.67434,-2.05543 3.17922,-1.93824 3.26217,-2.12763 1.5,-3.42484 -2.06578,-1.52072 -1.24656,-2.13309 3.63468,-2.71696 1.87396,-0.22415 2.41646,-0.79986 2.16642,-2.29903 -0.50081,-3.0027 -1.72604,-3.80606 -3.97173,-2.6042 -2.45154,1.31203 -7.69469,-0.60893 -7.69469,-2.81914 0,-0.90133 -2.934,-2.35272 -8,-3.95744 -6.11941,-1.9384 -7.36916,-2.61699 -5.3164,-2.88668 1.47598,-0.19392 4.06348,0.36099 5.75,1.23312 1.91786,0.99177 3.0664,1.17628 3.0664,0.49263 0,-0.64915 0.91377,-0.84325 2.25,-0.47793 1.94205,0.53095 2.01048,0.46493 0.5,-0.4823 -1.81931,-1.1409 -2.45011,-4.99806 -0.81739,-4.99806 0.51294,0 1.21826,0.9 1.56739,2 0.3999,1.25997 1.51303,2 3.00837,2 2.84924,0 4.07004,-1.59813 2.58639,-3.38582 -0.59258,-0.71401 -0.78132,-1.5943 -0.41942,-1.95619 1.66609,-1.6661 5.01723,-0.28385 9.51761,3.92573 3.92101,3.66764 5.18123,4.35062 6.30572,3.41738 0.77294,-0.64149 2.32695,-0.87384 3.45334,-0.51633 2.31486,0.7347 2.77851,2.51523 0.65498,2.51523 -2.73891,0 -2.56407,2.77505 0.20823,3.30501 3.6791,0.7033 4.18478,0.17217 4.18478,-4.39541 0,-2.87151 0.48497,-4.15062 1.75,-4.61558 0.9625,-0.35376 2.11515,-1.2491 2.56146,-1.98964 0.99004,-1.64277 2.79651,-0.74934 2.10875,1.04293 -0.27083,0.70579 -0.0547,2.37888 0.48029,3.71797 0.655453,1.64059 0.993403,1.88318 1.036113,0.74373 0.089,-2.37501 1.67319,-3.08821 4.04272,-1.82007 1.5402,0.82429 2.02156,0.77584 2.02442,-0.20376 0.002,-0.70685 1.91929,-2.07268 4.26051,-3.03518 5.22373,-2.14754 6.11582,-2.18285 5.35959,-0.21215 -0.3358,0.87507 0.0491,1.78314 0.89301,2.10699 0.81573,0.31302 1.48314,1.22255 1.48314,2.02116 0,0.88524 0.47461,1.15871 1.21587,0.70058 1.73015,-1.06929 9.78413,-1.28215 9.78413,-0.25859 0,1.14339 -4.6108,2.25058 -5.94316,1.42713 -1.83437,-1.13369 -1.14404,1.07598 0.91958,2.94354 1.08703,0.98375 1.73547,2.17849 1.44098,2.65498 -0.88533,1.4325 3.33143,0.97467 4.83057,-0.52447 2.1964,-2.1964 4.4055,-0.21312 4.56567,4.09896 0.0775,2.08553 0.41272,5.03337 0.74501,6.55076 0.45534,2.07931 -0.0317,3.51459 -1.97724,5.82673 -1.41978,1.6873 -2.58141,3.54218 -2.58141,4.12195 0,0.67662 -1.34292,0.80191 -3.75,0.34986 -2.0625,-0.38734 -4.425,-0.73256 -5.25,-0.76715 -0.825,-0.0346 -2.02244,-0.47341 -2.66097,-0.97515 -1.21704,-0.95631 -3.03924,0.81799 -1.9543,1.90293 0.7686,0.7686 -4.11466,3.28194 -6.37659,3.28194 -3.76864,0 -4.43506,2.4985 -3.18025,11.92317 0.64466,4.84193 1.17211,11.613141 1.17211,15.047151 0,5.28256 -0.24349,6.15022 -1.58179,5.63667 -0.86998,-0.33385 -1.99498,-0.60699 -2.5,-0.60699 -0.50501,0 -0.94984,-1.2375 -0.9885,-2.75 -0.0387,-1.5125 -0.45702,-3.65 -0.92971,-4.75 -0.65092,-1.514791 -0.87648,-0.87732 -0.92971,2.62755 -0.0789,5.19184 -1.30259,6.59153 -5.320683,6.08574 z M 76.857147,91.647909 c 0,-0.55 -0.19845,-1 -0.44099,-1 -0.24254,0 -0.71909,0.45 -1.05901,1 -0.33992,0.55 -0.14148,1 0.44098,1 0.58246,0 1.05902,-0.45 1.05902,-1 z m 4.10793,-12.63006 c 1.21468,-1.4636 1.03922,-1.56117 -1.71821,-0.95554 -4.46491,0.98066 -6.42274,-1.58487 -2.63191,-3.44883 2.72429,-1.33954 2.72696,-1.35088 0.40972,-1.73731 -1.28285,-0.21394 -3.08368,0.29086 -4.00183,1.12178 -0.91815,0.83091 -2.97304,2.00641 -4.56641,2.61221 -2.57312,0.9783 -2.75266,0.92747 -1.60567,-0.45456 1.79198,-2.15922 0.64318,-2.91782 -2.15798,-1.42499 -2.12583,1.13292 -2.21235,1.09528 -0.9632,-0.41898 1.21435,-1.47208 1.09127,-1.66372 -1.0685,-1.66372 -3.49282,0 -12.58882,2.8429 -13.42503,4.19592 -0.46873,0.75841 -0.14325,0.92762 0.96573,0.50207 0.92,-0.35304 2.73668,-0.23737 4.03707,0.25703 1.58071,0.60099 2.75166,0.5116 3.53295,-0.26969 0.84687,-0.84687 1.36365,-0.8636 1.87698,-0.0608 0.77039,1.20486 8.4864,1.12561 11.70836,-0.12026 2,-0.77336 2,-0.77336 0,0.94281 -1.62685,1.39597 -1.67947,1.61579 -0.28203,1.1782 0.94489,-0.29588 1.98394,-0.10761 2.30902,0.41837 0.95874,1.55127 6.11463,1.09306 7.58094,-0.67373 z m 28.892073,-26.81093 c 0,-0.24254 -0.45,-0.71909 -1,-1.05901 -0.55,-0.33992 -1,-0.14148 -1,0.44098 0,0.58246 0.45,1.05902 1,1.05902 0.55,0 1,-0.19844 1,-0.44099 z m -13.000003,-3.11803 c 0,-0.79254 -0.45,-1.44098 -1,-1.44098 -0.55,0 -1,0.92656 -1,2.05901 0,1.13246 0.45,1.78091 1,1.44099 0.55,-0.33992 1,-1.26648 1,-2.05902 z m -81,59.059021 c 0.68469,-0.825 1.97729,-1.48569 2.87244,-1.4682 1.36732,0.0267 1.31718,0.26656 -0.31357,1.5 -2.52654,1.91098 -4.15445,1.89075 -2.55887,-0.0318 z m 62.75,-1.18933 c -0.9625,-0.25152 -1.75,-0.83219 -1.75,-1.29037 0,-0.45819 0.9,-0.59771 2,-0.31005 1.1,0.28766 2,0.92053 2,1.40638 0,0.48585 -0.1125,0.83117 -0.25,0.76737 -0.1375,-0.0638 -1.0375,-0.3218 -2,-0.57333 z m -49.30887,-8.842481 c 1.06762,-0.8075 2.41762,-1.45388 3,-1.43639 0.58237,0.0175 0.18536,0.69249 -0.88226,1.5 -1.06762,0.80751 -2.41762,1.45389 -3,1.43639 -0.58238,-0.0175 -0.18537,-0.69249 0.88226,-1.5 z m 147.558873,-2.46819 c -1.35857,-1.02477 -2.20309,-2.13025 -1.87672,-2.45661 0.32637,-0.32637 1.66964,0.27912 2.98506,1.34552 3.12052,2.52982 2.11236,3.54047 -1.10834,1.11109 z m -34.37929,-2.75 c -2.30883,-7.85971 -1.71104,-18.25 1.04997,-18.25 1.24783,0 1.41115,0.72741 0.84194,3.75 -0.3884,2.0625 -0.65071,6.5625 -0.58289,10 0.12301,6.23558 -0.33584,7.81293 -1.30902,4.5 z m -139.9823429,-2.75 c 0.31658,-0.825 0.75246,-1.5 0.96861,-1.5 0.21616,0 0.39302,0.675 0.39302,1.5 0,0.825 -0.43588,1.5 -0.96862,1.5 -0.53274,0 -0.70959,-0.675 -0.39301,-1.5 z m 198.5543529,-6.5 c 0.18117,-3.24275 0.71769,-5.2948 1.30728,-5 1.30877,0.65438 0.90928,7.99282 -0.51197,9.40468 -0.80279,0.79749 -1.01904,-0.40018 -0.79531,-4.40468 z m -187.164193,3.68745 c 0.2907,-0.31782 2.48258,-1.0169 4.87086,-1.55351 2.38828,-0.53661 3.95044,-0.59629 3.47146,-0.13262 -0.97121,0.94019 -9.17702,2.59873 -8.34232,1.68613 z m 149.721473,-2.25943 c -1.5125,-0.82054 -2.75,-1.70253 -2.75,-1.95996 0,-1.04705 1.91626,-0.35324 4.13922,1.49867 2.8138,2.34413 2.35948,2.49499 -1.38922,0.46129 z M 2.4305871,82.875439 c -0.84628,-2.66187 0.17248,-8.22753 1.50601,-8.22753 1.10135,0 1.10016,5.68084 -0.002,8.5 -0.7549,1.9313 -0.80656,1.92195 -1.50423,-0.27247 z m 93.4583599,-0.47753 c -0.0175,-0.9625 0.3852,-1.75 0.89487,-1.75 0.50967,0 1.13247,-0.7875 1.384,-1.75 0.3553,-1.35959 0.4832,-1.40223 0.57332,-0.19113 0.0638,0.85738 -0.54468,2.43238 -1.35219,3.5 -1.32847,1.75639 -1.47122,1.77458 -1.5,0.19113 z m 72.968203,-1.75 c -0.825,-0.53316 -1.05,-0.96938 -0.5,-0.96938 0.55,0 1.675,0.43622 2.5,0.96938 0.825,0.53315 1.05,0.96937 0.5,0.96937 -0.55,0 -1.675,-0.43622 -2.5,-0.96937 z m -19.44911,-5.34439 c -2.81857,-3.69535 -3.3681,-5.57872 -1.07164,-3.67283 1.43082,1.18747 4.74977,7.01722 3.995,7.01722 -0.20486,0 -1.52037,-1.50498 -2.92336,-3.34439 z m 15.44911,1.34439 c 0,-0.55 0.47656,-1 1.05902,-1 0.58246,0 0.7809,0.45 0.44098,1 -0.33992,0.55 -0.81648,1 -1.05902,1 -0.24254,0 -0.44098,-0.45 -0.44098,-1 z m 13.91491,-2.75312 c -5.48103,-2.69571 -5.55877,-2.79346 -4.17279,-5.24688 l 1.41229,-2.5 -0.5671,2.63383 c -0.521,2.41972 -0.21346,2.72287 3.78311,3.72922 2.39261,0.60247 4.91817,1.77975 5.61234,2.61617 1.82399,2.19778 0.26102,1.88035 -6.06785,-1.23234 z m -20.33001,-6.84451 c -3.25331,-0.78705 -8.42339,-2.78955 -11.48907,-4.44999 -4.88407,-2.64532 -5.71273,-2.82921 -6.69514,-1.48568 -1.43543,1.96307 -2.51064,1.98339 -1.76232,0.0333 0.31659,-0.825 0.0775,-1.5 -0.53138,-1.5 -0.60885,0 -1.10699,-0.675 -1.10699,-1.5 0,-2.13885 2.32957,-1.9038 12.22624,1.23362 8.93121,2.83135 11.74147,4.989 5.02376,3.85711 -5.22266,-0.87998 -2.0569,0.84641 4.25871,2.32241 2.75478,0.64381 5.67978,1.59484 6.5,2.1134 1.94202,1.2278 0.75436,1.1124 -6.42381,-0.62417 z m 11.2276,-2.08549 c 0.72187,-0.28887 1.58437,-0.25334 1.91667,0.079 0.33229,0.3323 -0.25834,0.56864 -1.3125,0.52522 -1.16495,-0.048 -1.4019,-0.28494 -0.60417,-0.60416 z M 48.429007,37.620089 c -2.16048,-1.6347 -3.56359,-2.97218 -3.11804,-2.97218 1.4187,0 7.54618,4.12621 7.54618,5.08156 0,1.24728 0.022,1.25777 -4.42814,-2.10938 z m -5.57186,0.0278 c 0,-0.55 0.70155,-1 1.55901,-1 0.85746,0 1.28091,0.45 0.94099,1 -0.33992,0.55 -1.04148,1 -1.55902,1 -0.51754,0 -0.94098,-0.45 -0.94098,-1 z m 74.947933,-19.56274 c -1.18791,-1.43135 -1.07982,-1.5873 0.88953,-1.2833 1.23297,0.19032 2.25769,0.78479 2.27715,1.32104 0.0611,1.68309 -1.75649,1.66144 -3.16668,-0.0377 z m 34.95635,-6.0526 c -1.15986,-1.39754 -1.08641,-1.56608 0.54469,-1.25 1.03691,0.20093 2.07259,0.92784 2.3015,1.61534 0.59396,1.78389 -1.25999,1.54591 -2.84619,-0.36534 z M 132.00715,6.6978886 c 0.42971,-1.28914 1.80131,-1.52071 1.925,-0.325 0.0413,0.39875 -0.465,0.905 -1.125,1.125 -0.66,0.22 -1.02,-0.14 -0.8,-0.8 z"
       id="path2983"
       inkscape:connector-curvature="0" />
  </g>
</svg>
