<?xml version="1.0" encoding="UTF-8" standalone="no"?>
<!-- Created with Inkscape (http://www.inkscape.org/) -->

<svg
   xmlns:dc="http://purl.org/dc/elements/1.1/"
   xmlns:cc="http://creativecommons.org/ns#"
   xmlns:rdf="http://www.w3.org/1999/02/22-rdf-syntax-ns#"
   xmlns:svg="http://www.w3.org/2000/svg"
   xmlns="http://www.w3.org/2000/svg"
   xmlns:sodipodi="http://sodipodi.sourceforge.net/DTD/sodipodi-0.dtd"
   xmlns:inkscape="http://www.inkscape.org/namespaces/inkscape"
   width="744.09448819"
   height="1052.3622047"
   id="svg3168"
   version="1.1"
   inkscape:version="0.48.2 r9819"
   sodipodi:docname="splat5.svg">
  <defs
     id="defs3170" />
  <sodipodi:namedview
     id="base"
     pagecolor="#ffffff"
     bordercolor="#666666"
     borderopacity="1.0"
     inkscape:pageopacity="0.0"
     inkscape:pageshadow="2"
     inkscape:zoom="0.55"
     inkscape:cx="375"
     inkscape:cy="1174.5455"
     inkscape:document-units="px"
     inkscape:current-layer="layer1"
     showgrid="false"
     inkscape:window-width="1012"
     inkscape:window-height="796"
     inkscape:window-x="197"
     inkscape:window-y="0"
     inkscape:window-maximized="0" />
  <metadata
     id="metadata3173">
    <rdf:RDF>
      <cc:Work
         rdf:about="">
        <dc:format>image/svg+xml</dc:format>
        <dc:type
           rdf:resource="http://purl.org/dc/dcmitype/StillImage" />
        <dc:title></dc:title>
      </cc:Work>
    </rdf:RDF>
  </metadata>
  <g
     inkscape:label="Layer 1"
     inkscape:groupmode="layer"
     id="layer1">
    <path
       d="m 24.395127,61.783952 c -0.14,0.085 -0.22,-0.15 -0.2325,-0.23125 -0.0488,-0.345 0.34125,-0.97375 0,-1.04625 -0.8125,-0.17375 -1.6375,0.9075 -2.38,0.63875 -1.5625,-0.56375 -1.94625,-5.2575 -1.62625,-6.8525 0.0613,-0.30625 0.94375,0.06 0.9875,-0.29 0.11125,-0.895 -0.1575,-1.05625 -0.81375,-1.22 -0.35625,-0.08875 -0.66875,0.52125 -0.92875,0.34875 -0.4325,-0.28875 -0.23,-1.33625 -0.6975,-1.33625 -0.4675,0 -0.1625,1.2 -0.63875,1.33625 -0.65375,0.18625 -1.4075,-0.175 -1.8575,-0.58125 -0.25875,-0.2325 0.0225,-0.70625 0.115,-0.9875 0.0263,-0.0775 0.105,-0.1525 0.2325,-0.17375 0.22875,-0.03875 0.515,0.22875 0.755,0.0575 0.29875,-0.2125 0.645,-0.83 0.34875,-0.92875 -0.47,-0.15625 -0.93875,0.39 -1.33625,0.63875 -0.0687,0.04375 -0.0525,0.18625 -0.17375,0.2325 -0.38375,0.14375 -0.95875,-0.04125 -1.22,0.29 -0.45375,0.5775 -0.14875,1.6075 -0.63875,2.2075 -0.2325,0.2825 -1.075,-0.04875 -0.9875,-0.34875 0.58,-1.96875 4.69375,-5.9525 2.38125,-7.37625 -0.6725,-0.41375 0.2925,0.795 -0.58,3.13625 -0.38125,1.0225 -2.135,2.09125 -2.90375,1.39375 -3.5687497,-3.23875 -2.2687497,-4.3575 -2.14875,-8.885 0.004,-0.16375 0.1625,0.505 0.40625,0.465 0.59,-0.0975 1.4875,-1.46375 1.5675,-0.87125 0.385,2.825 -1.54625,4.8525 -0.465,7.375 0.31875,0.74375 1.72375,-0.23875 2.265,-0.8125 0.58125,-0.615 0.20375,-1.7075 0.6975,-2.32375 0.29875,-0.37375 1.03375,-0.0325 1.39375,-0.3475 0.21875,-0.19125 -0.205,-0.66625 0,-0.87125 0.205,-0.205 0.76125,-0.26875 0.87125,0 1.76,4.26 0.75375,4.5875 1.68375,6.27125 0.525,0.95 2.2325,0.34625 3.195,0.9875 0.3975,0.26625 0.02,1.03 0.34875,1.4525 0.1775,0.22875 0.75,0.26375 0.87,0 0.265,-0.58125 -0.30625,-1.4025 0.0588,-1.85875 0.25375,-0.3175 0.91,-0.28375 1.2775,0 0.515,0.39625 0.27625,1.70625 0.9875,1.85875 0.6425,0.13625 0.18625,-0.51375 0.69625,-2.61375 0.0688,-0.28125 0.7425,0.26 0.87125,0 0.165,-0.32875 -0.0375,-0.9525 -0.34875,-0.9875 -2.9425,-0.3325 -5.0575,-0.57875 -7.6075,-1.5675 -0.8725,-0.33875 -0.63375,-1.16 0.34875,-2.67125 0.35375,-0.545 0.45125,1.30875 0.9875,1.8 0.25625,0.235 0.76625,0.20875 1.045,0 0.29375,-0.22 0.075,-0.7775 0.34875,-0.93 0.355,-0.19625 1.16875,0.43375 1.335,0 0.27875,-0.7225 0.0662,-1.6825 -0.46375,-2.1475 -1.5425,-1.355 -1.91625,-0.34 -3.60125,-0.81375 -0.35375,-0.09875 -0.5175,-0.74 -0.29,-0.92875 0.31125,-0.26 1.1575,0.44875 1.2775,0 0.2325,-0.87125 -0.1275,-1.19 -0.755,-1.22 -0.75375,-0.03625 -1.3125,1.0175 -2.09,0.9875 -0.90875,-0.035 -1.49375,-1.15875 -2.32375,-1.10375 -0.42125,0.0275 0.0238,1.02 -0.34875,1.22 -0.5625,0.30125 -1.425,0.50625 -1.8575,0.11625 -0.4325,-0.38875 -0.26,-1.22375 0,-1.7425 0.12875,-0.26 0.66625,0.205 0.87,0 0.205,-0.205 0.265,-0.75375 0,-0.87125 -0.9675,-0.43 -1.67625,-0.7575 -1.7425,-1.7425 -0.0263,-0.40625 0.93,-0.225 1.33625,0 0.25875,0.14375 -0.0238,0.74 0.29125,0.92875 0.3975,0.23875 1.08,0.2975 1.51,0 0.47,-0.325 0.46875,-1.04375 0.755,-1.5675 0.0613,-0.11375 0.1125,-0.285 0.23125,-0.2325 0.45625,0.2025 0.88,0.5675 1.33625,0.87125 0.0687,0.045 0.045,0.2325 0.17375,0.2325 0.13,0 0.2325,-0.1025 0.2325,-0.2325 0,-0.165 -0.19375,-0.16 -0.2325,-0.2325 -0.4275,-0.80125 -0.36,-2.01 -1.10375,-2.38125 -0.465,-0.23125 -0.43375,0.99875 -0.6375,1.51 -0.0312,0.07625 -0.08,0.32125 -0.175,0.2325 -2.7,-2.52375 -0.2175,-0.81875 -3.8325,-1.22 -0.925,-0.1025 -0.9325,-2.365 -0.11625,-2.67125 1.345,-0.50375 1.04375,-1.08625 1.45125,-1.85875 0.22375,-0.4225 1.14875,-0.68875 1.39375,-0.29 0.42625,0.6925 -0.78875,2.1875 0,2.555 0.895,0.4175 1.6525,-1.2775 2.61375,-1.2775 0.40625,0 -0.37125,0.99875 0,1.2775 0.3825,0.2875 1.16125,0.07 1.39375,-0.3475 0.455,-0.81875 -1.01625,-0.8675 -0.5225,-2.2075 0.36625,-0.99375 2.215,0.90875 3.13625,0.05875 2.67625,-2.475 2.0575,-3.16 1.8575,-4.0075 -0.0588,-0.2525 -0.51875,-0.3925 -0.69625,-0.2325 -1.13,1.0225 -1.71,1.59375 -3.2525,1.7425 -0.33625,0.0325 -0.7025,-0.2375 -0.755,-0.5225 -0.3125,-1.7175 -0.46,-3.42625 -0.34875,-5.11125 0.0162,-0.2375 0.565,0.025 0.6975,-0.17375 0.16125,-0.24125 0.19375,-0.655 0,-0.87125 -0.4,-0.44375 -1.265,-0.38125 -1.51,-0.87125 -0.235,-0.47 -0.13375,-1.22875 0.29,-1.4525 0.88,-0.4625 0.86375,0.14625 1.62625,0.34875 0.3175,0.085 0.64875,-0.90125 0.755,-0.58 0.22375,0.67 -0.72125,1.54 -0.29,2.09 0.785,1.005 2.36625,1.1225 3.36875,2.03375 0.35375,0.32125 -0.0738,1.1225 0.3475,1.45125 0.33375,0.26 0.99875,-0.01 1.33625,-0.34875 0.33875,-0.33875 -0.11375,-1.27 0.34875,-1.39375 0.7625,-0.2025 1.82375,0.0775 2.265,0.755 0.475,0.73 -0.245,1.8725 0.11625,2.73 0.17125,0.4075 1.50625,0.14875 1.335,0.63875 -0.42,1.20125 -2.3525,1.6925 -1.62625,2.90375 0.33,0.55 1.41,-0.17375 1.9175,0.2325 0.4875,0.39 1.125,1.23 0.8125,1.8575 -0.28625,0.57375 -1.69125,-0.2775 -1.85875,0.29125 -0.52375,1.7825 -0.045,3.83625 1.27875,5.45875 1.06625,1.3075 2.6,2.1825 4.1225,1.51 1.61375,-0.71125 1.96875,-2.45875 0.87125,-3.89125 -0.7425,-0.96875 -2.55,1.49125 -3.65875,0.63875 -0.83375,-0.64125 -0.775,-2.175 -0.34875,-3.13625 0.23625,-0.53 1.3625,-0.43875 1.7425,0 0.58125,0.67125 0.2025,1.715 0.63875,1.2775 0.94875,-0.9475 1.19625,-1.06375 0.9875,-1.8575 -0.25875,-0.9825 -0.64625,-1.1975 -1.22,-2.0325 -0.2325,-0.33875 -0.7775,0.4 -1.1025,0.23125 -1.475,-0.7625 -2.46625,-6.6625 -1.04625,-7.20125 1.91875,-0.7275 2.94125,3.475 4.35625,3.07875 0.84,-0.23625 -0.47875,-2.03375 0.17375,-2.61375 0.46125,-0.41 0.74,2.88875 1.33625,2.61375 0.78375,-0.3625 0.96625,-1.58125 0.87125,-2.43875 -0.0987,-0.88125 -1.23125,-1.35 -1.33625,-2.15 -0.0875,-0.67375 1.285,-1.57625 0.69625,-1.91625 -1.52125,-0.8775 -2.47875,-1.8225 -3.94875,-0.87125 -1.23375,0.79875 1.86875,3.735 0.5225,3.775 -2.15875,0.065 -1.78875,-3.39375 -3.5425,-4.64625 -1.58375,-1.13125 -4.33,2.3575 -5.69125,1.045 -1.38875,-1.34 0.4425,-2.41875 -0.17375,-2.38 -0.7375,0.045 -0.795,1.7675 -1.91625,0.87 -1.01375,-0.81 -0.0238,-1.54375 0.40625,-3.01875 0.1975,-0.6775 1.69,1.08875 2.14875,0.465 0.62125,-0.84875 -0.83875,-2.29875 -0.2325,-3.07875 0.40375,-0.51875 0.77125,1.51 1.51,1.51 0.825,0 1.2375,-1.11375 1.975,-1.51 0.0712,-0.03875 0.075,0.18625 0.23125,0.2325 0.8525,0.25 1.8575,0.14875 2.61375,0.63875 0.355,0.22875 -0.065,1.12875 0.34875,1.22 1.70125,0.3725 3.5925,-0.855 4.41375,-2.4975 0.13,-0.26 0.76375,-0.27 0.87125,0 0.32375,0.81 0.3625,1.745 0.2325,2.6125 -0.0613,0.40625 -0.75125,0.48 -0.87125,0.8725 -0.1375,0.44625 -0.17375,1.0575 0.17375,1.45125 0.62,0.70125 0.77125,0.3975 1.10375,0.2325 0.0737,-0.03625 0.2075,0.07 0.2325,0.2325 0.32875,2.135 -0.45875,2.64875 1.21875,4.23875 0.885,0.83875 1.36125,-0.89 2.55625,-0.63875 0.305,0.065 -0.48625,0.69375 -0.29125,0.9875 0.16125,0.24125 0.79125,0.27875 0.87125,0 0.50625,-1.7425 0.61625,-2.10125 0,-3.95 -0.0913,-0.27375 0.735,0.25625 0.87125,0 0.4175,-0.7825 0.90875,-1.3475 0.5225,-2.26375 -0.14125,-0.33875 -0.7975,-0.06375 -0.98625,-0.29 -0.18625,-0.22375 -0.16875,-0.63625 0,-0.8725 0.18125,-0.25375 0.8525,-0.0063 0.98625,-0.3475 0.5625,-1.43125 -0.16375,-3.515 1.39375,-3.60125 1.39375,-0.0775 0.5075,1.7525 1.56875,2.61375 1.22375,0.99375 2.10375,1.7275 3.42625,1.335 0.81125,-0.24 -0.007,-2.055 0.755,-2.3225 1.7525,-0.61625 3.035,1.3 4.4725,2.4975 0.0987,0.0825 -0.2325,0.1025 -0.2325,0.2325 0,0.08125 0.0675,0.2325 0.2325,0.2325 0.13,0 0.1025,-0.2325 0.23125,-0.2325 0.0825,0 0.2875,0.0775 0.2325,0.2325 -0.55875,1.565 -0.93625,1.54375 -0.69625,2.38 0.135,0.47375 0.5525,1.0625 1.045,1.04625 1.395,-0.0475 1.3975,-0.8775 4.065,-0.29125 0.53875,0.11875 0.5225,1.02 0.5225,1.62625 0,0.29 -0.21,0.625 -0.5225,0.755 -0.4825,0.20125 -1.15375,0.2975 -1.51,0 -0.48,-0.4 -0.14625,-1.44625 -0.69625,-1.74125 -0.485,-0.26125 -1.2225,0.20625 -1.51,0.6375 -0.2575,0.3875 -0.35125,1.12375 0,1.51125 0.3975,0.4375 1.38125,-0.0925 1.85875,0.3475 0.43375,0.4025 -0.11875,1.57625 0.46375,1.7425 1.03,0.295 0.96375,0.68125 3.02,0.40625 0.89375,-0.11875 -0.59,-1.725 -0.63875,-2.555 -0.0125,-0.20875 0.2375,-0.58875 0.40625,-0.465 1.0575,0.78 2.04125,0.07625 3.2525,0.64 1.48875,0.69125 0.61,1.8425 1.22,3.3675 0.1775,0.445 1.0725,0.70375 1.39375,0.34875 0.9925,-1.0975 0.87375,-1.1375 1.62625,-2.265 0.1725,-0.26 -0.7075,-0.09375 -0.755,-0.34875 -0.20625,-1.08375 -0.0525,-2.2075 0,-3.2525 0.006,-0.12875 0.2075,-0.105 0.23125,-0.23125 0.33375,-1.72625 0.3175,-1.99 0.64,-1.7425 0.53625,0.4125 0.69625,2.3225 1.1025,1.7425 1.02625,-1.46625 0.34375,-3.20125 1.68375,-4.29875 0.8375,-0.68375 1.67,2.44125 2.61375,1.9175 2.37875,-1.3225 -0.3475,-5.05625 -0.17375,-7.6087499 0.02,-0.28875 0.7725,0.27375 0.87125,0 0.21875,-0.6025 -0.4875,-1.35375 -0.11625,-1.8 0.37875,-0.45375 1.9,-0.99625 1.85875,-0.34875 -0.36125,5.5937499 -0.89375,4.6949999 3.5425,7.2599999 0.66,0.3825 -0.12,1.66125 0.34875,2.265 0.4625,0.595 1.725,1.56 2.14875,0.87125 0.5675,-0.92375 -0.35,-2.13375 -0.87125,-3.02 -0.1475,-0.25 -0.66625,0.205 -0.87125,0 -0.205,-0.205 -0.2775,-0.785 0,-0.87125 3.64375,-1.13875 3.26125,-1.51 0.87125,-3.7174999 -0.34375,-0.31625 1.41375,-0.14875 1.335,-0.63875 -0.23,-1.43625 -1.44125,-1.76875 -0.58,-2.265 1.5625,-0.9 3.25625,0.59 5.11,0.34875 1.0825,-0.14125 0.93625,0.57 1.51,1.51 0.15125,0.2475 0.66625,-0.205 0.87125,0 0.205,0.205 -0.2225,0.685 0,0.87125 0.2675,0.2225 0.7,-0.05 1.10375,0 0.0813,0.01 0.22,0.06875 0.2325,0.2325 0.0487,0.6387499 -0.35125,1.3762499 -0.11625,2.0324999 0.105,0.29375 0.6825,0.5525 0.9875,0.34875 0.4125,-0.275 0.1725,-1.37875 0.63875,-1.33625 0.61375,0.05625 0.58,2.8675 0,3.07875 -0.30875,0.1125 -0.39,-0.5825 -0.6975,-0.6975 -0.22375,-0.08375 -0.56625,0.03625 -0.63875,0.2325 -0.35,0.95125 0.245,2.4375 -0.63875,3.02 -2.05875,1.35625 -2.54,0.045 -3.13625,0.5225 -0.64125,0.5125 0.2725,1.93375 -0.34875,2.555 -0.4275,0.42875 -1.33125,-0.8675 -1.68375,-0.46375 -0.39,0.445 -0.12375,1.4475 0.40625,1.74125 0.76125,0.42375 1.87875,-0.46625 2.61375,0 0.395,0.25125 -0.27375,1.035 -0.6975,1.33625 -0.2,0.14375 -0.26375,-0.5475 -0.40625,-0.465 -0.675,0.39375 -0.675,1.51125 -3.3675,0.755 -1.22625,-0.34375 -0.83875,-2.42875 -1.51,-3.485 -0.1975,-0.30875 -0.73625,-0.44625 -0.9875,-0.29 -0.33,0.20625 -0.16625,1.25875 -0.465,1.045 -1.7375,-1.24125 -0.92,-3.98125 -2.38125,-4.52875 -0.6075,-0.2275 -0.445,1.23625 -0.8125,1.7425 -0.14125,0.1925 -0.54,0.35375 -0.6975,0.17375 -0.3625,-0.415 -0.0463,-1.1375 -0.40625,-1.45125 -0.265,-0.23375 -0.9575,-0.02125 -0.9875,0.29 -0.2775,2.83125 0.84875,3.6875 1.85875,6.21375 0.1075,0.27 0.725,-0.25 0.87125,0 0.355,0.61 0.7525,1.45625 0.40625,2.14875 -0.26125,0.52125 -1.21375,-0.06 -1.68375,0.175 -0.165,0.08125 0.3425,0.46875 0.17375,0.6375 -0.205,0.205 -0.57125,0.27 -0.755,0.1175 -0.28125,-0.235 -0.004,-0.85875 -0.29,-0.93 -2.90875,-0.72625 -2.61875,-2.4975 -3.42625,-5.11 -0.1925,-0.62 -1.00625,0.89125 -1.6275,0.98625 -0.32375,0.05 -0.4125,-0.6425 -0.69625,-0.58 -0.40125,0.08875 -0.40625,0.885 -0.8125,0.9875 -0.31875,0.07875 -0.41875,-0.74875 -0.63875,-0.63875 -0.5525,0.275 -0.7925,3.7675 -1.04625,5.22625 -0.0687,0.4 1.0475,-0.4025 1.2775,0 2.16,3.765 -1.61125,6.3475 0.34875,8.5375 0.41875,0.4675 0.97625,-0.9025 1.5675,-0.9875 0.335,-0.0475 1.0025,0.29 0.8725,0.63875 -0.3325,0.885 -0.8,0.27625 -2.03375,0.9875 -0.5125,0.295 0.18,1.33 -0.23125,1.74125 -0.45875,0.45875 -1.33375,-0.015 -1.80125,0.34875 -0.23375,0.1825 0.42,0.64375 0.29125,0.9875 -0.11,0.2925 -0.755,0.08875 -0.755,0.34875 0,0.4675 0.86125,0.7975 0.755,1.335 -0.0825,0.415 -0.9975,0.6775 -1.16125,0.34875 -0.58125,-1.16125 -0.2325,-1.2775 -1.10375,-2.14875 -0.11625,-0.11625 -0.25875,-0.155 -0.2325,-0.2325 0.10625,-0.32125 0.5975,-0.50125 0.63875,-0.87125 0.0312,-0.2875 -0.20125,-0.5975 -0.40625,-0.63875 -0.205,-0.04125 -0.3575,0.645 -0.465,0.465 -0.24125,-0.40125 -0.44875,-1.03125 -0.17375,-1.33625 0.405,-0.45 1.77125,0.185 1.7425,-0.40625 -0.11625,-2.31125 -0.945,-2.25 -0.58125,-3.6 0.0813,-0.3025 1.04625,0.0575 0.9875,-0.29125 -0.35375,-2.06375 -1.47,-3.18625 -3.485,-3.94875 -0.27625,-0.10375 -0.0412,-0.60625 -0.17375,-0.87125 -0.0575,-0.11625 -0.15125,-0.17375 -0.2325,-0.17375 -0.13,0 -0.2325,0.09125 -0.2325,0.17375 0,0.0825 0.22375,0.06875 0.2325,0.2325 0.0513,0.9875 0.47125,2.11875 -0.0587,3.02 -0.295,0.5025 -1.84,-0.67625 -1.68375,-0.17375 0.6025,1.94 1.8675,2.89875 1.045,2.6125 -1.78375,-0.62 -2.0525,-2.06125 -3.89125,-2.43875 -0.36375,-0.075 -0.45125,0.58875 -0.63875,0.87125 -0.045,0.06875 -0.05,0.27125 -0.17375,0.2325 -1.61125,-0.5175 -1.58875,-0.25875 -2.96125,-0.5225 -0.415,-0.08 0.11625,-1.17625 -0.29125,-1.22 -1.57625,-0.16875 -1.51875,-0.06125 -2.72875,-0.11625 -0.3125,-0.01375 -0.035,0.79875 -0.34875,0.9875 -0.39875,0.23875 -1.17375,-0.3925 -1.2775,0 -0.22875,0.85875 1.345,2.05375 0.63875,2.61375 -1.545,1.225 -1.8425,-2.43125 -1.51,-3.485 0.1225,-0.3875 1.1575,0.44875 1.2775,0 0.2325,-0.87125 -0.30125,-1.7925 -0.63875,-2.61375 -0.0987,-0.24 -0.5675,-0.43375 -0.6975,-0.2325 -0.49625,0.7725 0.0438,2.69625 -0.87125,2.61375 -1.39,-0.12625 0.29625,-1.84375 -0.8125,-2.7875 -1.285,-1.095 -2.39875,0.2075 -3.485,1.51 -0.24875,0.29875 1.0325,0.9025 0.63875,1.045 -2.675,0.9725 -1.045,-2.7875 -2.555,-4.2975 -0.11625,-0.11625 -0.21625,-0.1525 -0.2325,-0.2325 -0.045,-0.2275 0.17125,-0.61 0,-0.63875 -0.3625,-0.06 -0.76625,0.1275 -0.9875,0.34875 -0.22,0.22125 -0.64125,0.70875 -0.34875,0.92875 0.3125,0.235 0.685,-0.35375 1.10375,-0.40625 0.0812,-0.01 0.2425,0.06875 0.2325,0.2325 -0.11,1.92625 0.39625,5.28125 -0.0575,5.16875 -1.34375,-0.33625 -1.235,-1.2625 -2.14875,-0.87125 -0.625,0.2675 2.00375,2.5675 0.87,3.31 -3.0975,2.03 -4.17625,2.09125 -3.89,5.63375 0.0463,0.58125 1.3575,-0.265 1.7425,0.17375 1.37,1.56625 -0.84125,3.3 -0.465,4.7625 0.13625,0.53 0.92,0.7725 1.51,0.87125 0.2425,0.04 0.59875,-0.2325 0.58,-0.5225 -0.05,-0.8075 -0.815,-1.4775 -0.755,-2.265 0.0225,-0.29 0.7725,-0.2725 0.87125,0 0.44125,1.21125 -0.9525,2.42 2.03375,4.23875 1.69375,1.0325 3.7575,-5.3725 1.625,-5.98125 -1.18375,-0.3375 -1.1725,2.28625 -1.97375,2.7875 -0.20375,0.1275 -0.605,0.0063 -0.63875,-0.17375 -0.16125,-0.85625 1.59875,-1.0075 0.69625,-2.14875 -0.9775,-1.23875 -2.4725,0.47625 -2.20625,-0.2325 0.6925,-1.8475 -1.3975,-4.1225 -1.2775,-5.86625 0.04,-0.57875 1.55,-0.5475 1.74125,0 0.715,2.035 0.0525,2.32 0.63875,2.61375 0.1875,0.09375 0.19875,-0.465 0.4075,-0.465 0.16375,0 0.31,0.6575 0.46375,0.465 0.505,-0.63125 0.43875,-1.58875 0.8725,-2.20625 0.0925,-0.135 0.1625,0.505 0.40625,0.46375 0.285,-0.0475 0.745,-0.34125 0.58,-0.58 -0.6525,-0.95 -1.545,-0.8625 -1.4525,-2.0325 0.0325,-0.41 0.46625,-0.93375 0.8725,-0.87125 0.61,0.09375 0.8275,0.9975 1.45125,1.21875 0.295,0.105 0.70875,-0.58625 0.9875,-0.3475 0.355,0.30375 -0.1075,1.1275 0.29,1.39375 0.635,0.4225 1.6075,-0.04 2.265,0.3475 0.4475,0.26375 0.3125,1.0725 0.755,1.39375 0.2825,0.205 0.77,0.23375 1.10375,0 0.3625,-0.2525 0.24375,-0.96375 0.63875,-1.1025 0.71125,-0.25125 1.66375,0.38125 2.38125,0 0.4125,-0.22 -0.15125,-1.1 0.2325,-1.27875 0.68375,-0.31875 1.605,-0.24125 2.38,0 0.29875,0.09375 0.67,0.81 0.34875,0.9875 -0.56,0.31125 -1.39375,-0.46375 -1.85875,-0.115 -0.4275,0.32 -0.13625,1.0625 -0.29,1.625 -0.0337,0.125 -0.12125,0.16625 -0.2325,0.2325 -1.64875,0.99 -1.31125,2.0925 -2.43875,3.65875 -0.2875,0.4 -0.69625,-0.69625 -1.045,-1.045 -0.11625,-0.11625 -0.19,-0.1625 -0.2325,-0.2325 -0.2475,-0.39625 -0.63875,-1.4925 -0.63875,-1.10375 0,1.52 0.14375,1.4425 0.465,1.33625 0.0775,-0.02625 0.205,0.09875 0.17375,0.17375 -0.45375,1.0775 -1.80625,1.19875 -1.51,2.38125 0.095,0.3775 0.66375,0.81125 1.045,0.63875 1.0125,-0.455 0.85375,-1.1725 1.80125,-0.87125 0.56875,0.1825 1.25375,1.11 0.87,1.56875 -0.5675,0.6825 -1.045,0.1 -1.21875,0.755 -0.0813,0.30125 -0.015,0.93 0.34875,0.9875 0.99,0.15625 2.02875,-0.81875 3.02,-0.465 0.44,0.1575 -0.25875,1.01875 -0.64,1.335 -0.18875,0.1575 -0.3175,-0.5375 -0.46375,-0.46375 -0.5525,0.275 -0.665,1.4075 -1.2775,1.33625 -0.81625,-0.09625 -0.72375,-0.19375 -1.975,-0.8725 -0.40875,-0.22 0.4025,-1.28125 0,-1.335 -0.91,-0.12125 -1.83125,1.3525 -2.61375,0.87125 -0.65,-0.4 0.925,-1.5975 0.465,-2.14875 -0.48375,-0.58 -2.185,-0.695 -2.14875,0 0.1225,2.4025 3.2725,4.53625 2.555,6.91125 -0.4725,1.565 -5.09125,0.43 -5.63375,1.97375 -0.51625,1.47125 1.915,3.1175 0.23375,3.2525 -2.21,0.17625 -2.2325,-4.645 -4.53,-4.7625 -0.29,-0.01375 -0.2775,0.78375 0,0.87125 2.31125,0.73375 0.25375,2.31125 0.6375,3.89125 0.175,0.71875 2.34125,0.51125 2.67125,1.22 0.1325,0.2825 -0.59625,0.75375 -0.29,0.92875 0.76375,0.43625 2.085,-0.38125 2.6725,0.34875 1.54875,1.92375 0.59125,2.3575 1.1025,3.65875 0.20875,0.5325 1.92875,0.18125 1.62625,0.755 -1.15,2.18 -0.34125,2.26125 0.63875,3.94875 0.145,0.25125 0.74125,0.26 0.87125,0 0.26,-0.51875 -0.26,-1.2225 0,-1.7425 0.13,-0.25875 0.9075,0.28875 0.87125,0 -0.12625,-1.00625 -0.52125,-2.07 -1.22,-2.72875 -0.47125,-0.44625 -1.81875,0.2925 -1.8,-0.29125 0.06,-1.85375 0.93,-1.84125 0.5225,-2.555 -0.1725,-0.3025 -0.79875,0.24625 -1.045,0 -0.3375,-0.3375 -0.0325,-1.03375 -0.34875,-1.39375 -0.19125,-0.2175 -0.9575,0.2775 -0.87125,0 0.55375,-1.78625 1.74625,-3.4225 3.02,-2.14875 2.70125,2.70125 4.485,8.56375 4.995,12.1375 0.03,0.2075 -0.22625,0.57 -0.40625,0.465 -0.71,-0.41375 -0.5875,-1.19125 -1.975,-0.87125 -0.6325,0.14625 0.325,1.82 -0.34875,2.0325 -0.99875,0.315 -1.97,-1.26125 -2.90375,-0.9875 -1.305,0.38375 -0.8375,1.25 -1.51,2.44 -0.2275,0.40375 -1.205,-0.4 -1.2775,0 -0.23,1.268747 -0.0725,1.461247 1.2775,3.019997 0.26625,0.30625 0.95625,0.26625 1.33625,0 0.34625,-0.2425 -0.008,-1.0125 0.3475,-1.10375 1.4075,-0.365 2.29375,-0.1625 3.7175,0.40625 0.38875,0.15625 0.28875,-1.138747 0.6975,-1.045 2.9,0.67 0.11,5.87375 1.74125,7.84 1.41375,1.7025 3.4875,0.21875 2.67125,2.2075 -0.355,0.865 -1.6775,-0.8775 -2.38,-0.175 -0.7025,0.7025 0.2925,0.89625 0.58,3.13625 0.0537,0.41875 -0.7175,0.41625 -1.1025,0.465 -0.16375,0.02 -0.195,-0.16 -0.2325,-0.2325 -0.6025,-1.15 0.6675,-1.92875 -0.4075,-2.84625 -2.045,-1.74625 -2.6125,-0.63875 -3.25125,-1.2775 -0.11625,-0.11625 -0.29625,-0.18 -0.2325,-0.2325 0.35875,-0.29875 0.79125,-0.735 1.2775,-0.63875 0.30625,0.0613 0.0625,0.7 0.34875,0.93 0.37375,0.29875 1.2625,0.8075 1.39375,0.3475 0.3675,-1.28875 0.23875,-3.7925 0,-5.16875 -0.11,-0.62875 -1.32,0.2825 -1.85875,0.0588 -0.33875,-0.14125 -0.0337,-0.7825 -0.29,-0.92875 -0.3075,-0.175 -0.92375,-0.0162 -0.9875,0.29 -0.26,1.25125 0.91125,1.57875 0.755,2.72875 -0.0288,0.2075 -0.30625,0.60125 -0.465,0.465 -1.19,-1.01125 -1.3775,-1.7525 -1.8575,-3.19375 -0.1125,-0.335 -0.6625,-0.2275 -0.93,-0.11625 -0.46125,0.1925 -1.115,0.4625 -1.22,0.9875 -0.33,1.65 -0.59875,2.72625 -0.5225,4.47125 0.0325,0.75375 1.56625,-1.36375 2.2075,-0.87125 0.69,0.53125 0.0762,1.1075 0.40625,0.87125 0.23625,-0.16875 -0.29,-0.87125 0,-0.87125 0.5475,0 0.9975,0.56375 1.51,0.87125 0.07,0.0425 0.34,0.10875 0.2325,0.2325 -0.81375,0.92875 -1.93375,1.16875 -1.10375,1.91625 2.5475,2.29375 4.37375,4.38875 2.38125,6.96875 -1.1475,1.485 -6.145,-7.93625 -6.91125,-9.52375 -0.125,-0.26125 -0.64375,-0.18125 -0.87125,0 -0.18125,0.145 0.25,0.665 0,0.8125 -1.45625,0.86375 -1.555,0.93 -3.48375,0.87125 -0.29,-0.009 -0.28375,-0.80875 0,-0.87125 2.10625,-0.455 3.155,-1.06875 4.8775,-2.0325 0.96375,-0.5375 0.95375,-2.8225 0,-3.25125 -2.1175,-0.95375 -2.79375,2.39125 -5.3425,-0.58125 -0.25375,-0.29625 0.015,1.12375 -0.40625,1.10375 -1.19625,-0.0562 -2.10375,-1.09625 -3.02,-1.7425 -0.2425,-0.17 -0.035,-0.6625 0.17375,-0.87125 0.11625,-0.11625 0.29125,0.63875 0.465,0.46375 0.3375,-0.3375 0.0937,-1.0225 0.40625,-1.335 0.11625,-0.11625 0.2675,0.6125 0.465,0.465 0.2825,-0.2125 0.56125,-0.8325 0.29,-0.9875 -1.61125,-0.919997 -0.78875,-0.867497 -1.16125,-2.497497 -0.385,-1.68125 -0.72125,-1.74375 -1.7425,-3.02 -0.385,-0.48125 0.2375,1.135 -0.63875,1.2775 -2.3375,0.38125 -3.445,-3.615 -5.2275,-5.16875 -0.97125,-0.8475 -1.18875,0.3075 -2.7875,1.2775 z"
       inkscape:connector-curvature="0"
       id="path50"
       style="fill:#2c2c2b;fill-rule:evenodd;stroke:none" />
  </g>
</svg>
