<?xml version="1.0" encoding="UTF-8" standalone="no"?>
<!-- Created with Inkscape (http://www.inkscape.org/) -->

<svg
   xmlns:dc="http://purl.org/dc/elements/1.1/"
   xmlns:cc="http://creativecommons.org/ns#"
   xmlns:rdf="http://www.w3.org/1999/02/22-rdf-syntax-ns#"
   xmlns:svg="http://www.w3.org/2000/svg"
   xmlns="http://www.w3.org/2000/svg"
   xmlns:sodipodi="http://sodipodi.sourceforge.net/DTD/sodipodi-0.dtd"
   xmlns:inkscape="http://www.inkscape.org/namespaces/inkscape"
   width="744.09448819"
   height="1052.3622047"
   id="svg3168"
   version="1.1"
   inkscape:version="0.48.2 r9819"
   sodipodi:docname="splat2.svg">
  <defs
     id="defs3170" />
  <sodipodi:namedview
     id="base"
     pagecolor="#ffffff"
     bordercolor="#666666"
     borderopacity="1.0"
     inkscape:pageopacity="0.0"
     inkscape:pageshadow="2"
     inkscape:zoom="0.55"
     inkscape:cx="375"
     inkscape:cy="1174.5455"
     inkscape:document-units="px"
     inkscape:current-layer="layer1"
     showgrid="false"
     inkscape:window-width="1012"
     inkscape:window-height="796"
     inkscape:window-x="197"
     inkscape:window-y="0"
     inkscape:window-maximized="0" />
  <metadata
     id="metadata3173">
    <rdf:RDF>
      <cc:Work
         rdf:about="">
        <dc:format>image/svg+xml</dc:format>
        <dc:type
           rdf:resource="http://purl.org/dc/dcmitype/StillImage" />
        <dc:title></dc:title>
      </cc:Work>
    </rdf:RDF>
  </metadata>
  <g
     inkscape:label="Layer 1"
     inkscape:groupmode="layer"
     id="layer1">
    <path
       d="m 45.744178,29.847313 c -0.18837,1.2475 1.906,-2.19375 3.78838,-0.61 2.31825,1.95 0.40512,-3.78875 5.39012,-3.78875 0.17975,0 -5.167,4.3775 -0.178,4.39875 1.582,0.0062 0.51975,1.08125 1.24575,1.42375 1.92513,0.90875 7.78565,0.72875 5.89865,3.53375 -0.419,0.6225 -1.8324,-1.82 -2.0085,-1.0675 -0.6265,2.67625 -0.5116,4.43 0.3559,7.0675 0.4938,1.5025 2.531,0.58375 3.9408,-0.10125 1.037,-0.50375 0.5237,0.16875 1.3475,-0.61 1.2609,-1.1925 1.9735,-1.335 2.8985,-2.74625 1.2202,-1.86125 1.7639,-4.17875 3.6364,-2.18625 0.7825,0.83375 -0.1937,1.94875 0.8888,2.2875 3.84,1.20375 5.6187,6.14625 5.0087,10.145 -0.075,0.49375 -6.3475,3.415 -4.0675,0.17875 1.5363,-2.1825 2.44,-2.27125 -0.9412,-1.50125 -2.6363,0.6025 -3.485,-0.83 -3.5335,0.89 -0.048,1.6775 5.8672,0.27625 1.7547,2.11125 -1.8477,0.8225 3.9925,2.9375 4.245,4.9575 0.2363,1.8875 -4.8587,-6.21375 -6.1777,-6.35625 -0.9724,-0.105 0.1468,1.50625 -0.8899,1.39875 -2.3781,-0.24875 -3.6126,0.15375 -5.4664,-1.755 -0.7717,-0.79375 -0.6364,-0.87625 -2.1357,-2.135 -1.8934,-1.59 -0.3548,-0.61375 -1.5764,-3.17875 -0.8145,-1.71 -6.71952,-2.56 -8.39027,-0.96625 -0.81125,0.77375 -2.8005,-0.79375 -3.35613,0.17875 -1.127,1.9725 1.6045,6.3 -1.06775,4.3975 -2.3665,-1.68375 0.50913,-0.96 -2.46625,-2.82125 -2.20737,-1.38125 -1.46837,-4.53 -1.67812,-7.145 -0.17163,-2.14125 0.92,-3.03375 1.42387,-4.9325 0.49063,-1.85 0.74625,-4.99625 -1.42387,-2.11 -2.28563,3.03875 0.2815,4.35875 -0.71188,8.46625 -0.6095,2.52125 -2.19812,5.33 -1.14412,6.4325 3.14737,3.29375 1.44137,3.21625 -2.034,2.5675 -2.51038,-0.4675 -3.51425,2.5825 -3.86463,-1.57625 -0.20387,-2.42 -3.85337,-1.48875 -5.77137,-3.4575 -1.97125,-2.02375 0.60575,-3.86625 -1.11875,-6.4325 -0.5955,-0.88625 1.53225,-1.48125 0.53387,-2.135 -2.38762,-1.56625 -3.05662,-1.95375 -3.534,-2.8225 -0.86912,-1.5825 2.98425,1.49 3.61038,0.7875 2.35062,-2.63625 4.01787,0.955 5.46637,2.8225 0.89475,1.15375 2.6955,-0.18 3.99163,-0.7875 0.198,-0.09375 -0.17338,-0.4925 -0.35588,-0.50875 -3.39662,-0.32 -1.55387,-3.41 -4.77987,-3.35625 -3.09175,0.05125 -10.72538,-3.6 -11.5685,-5.2375 -0.66388,-1.29 -0.49388,-5.105 -1.678,-3.94125 -1.5775,1.55125 -0.48125,0.94875 -2.46625,1.9325 -4.34613,2.155 -3.7805,7.3725 -8.4665001,4.0675 -2.6575,-1.87375 0.65225,-2.5625 3.1781201,-4.42375 1.18713,-0.875 1.04588,1.95375 2.7205,-0.28 1.13375,-1.51125 3.0955,-1.065 5.03413,-1.29625 2.10512,-0.25125 4.70875,-0.245 3.89,1.755 -0.82888,2.02375 -1.87588,0.82625 0.0762,2.36375 3.053,2.405 5.154,7.16625 6.992,3.9925 1.59737,-2.76 -3.57925,-1.4275 -5.64438,-4.24625 -2.03687,-2.78 0.88975,-1.88125 -0.63562,-3.28 -2.72225,-2.495 -2.011,-4.46625 -4.9325,-1.22 -1.27875,1.42 -1.69,1.875 -3.10188,1.32125 -1.60437,-0.62875 -3.79925,-0.8625 -5.21212,-2.39 -0.7425001,-0.8025 -1.4272501,-5.3225 -0.61013,-5.5425 3.95813,-1.0675 -1.8316201,-1.23375 3.61025,-3.2799999 1.15338,-0.4325 0.948,-0.84 1.8815,-2.8975 1.73175,-3.8175 5.09875,1.74375 6.53425,3.355 0.3385,0.38125 1.10738,-0.2375 1.47463,0.0775 2.92112,2.5037499 0.94862,-0.88375 3.10187,-0.0775 3.883,1.4562499 2.99188,6.2749999 5.18675,0.0775 0.526,-1.48625 1.861,3.9799999 3.27975,2.2112499 0.498,-0.62125 1.36738,-0.86 2.13575,-1.0675 0.86225,-0.2325 2.48738,-0.40875 3.534,-0.17875 2.7695,0.61125 3.1625,1.27 0.8645,2.31375 -1.52425,0.69375 -1.83725,0.1925 -0.96612,1.11875 2.18875,2.33 0.11937,4.22 3.35612,6.89 0.574,0.47375 0.0654,2.9225 0.27963,2.2125 1.67437,-5.5425 -0.62225,-4.785 3.94087,-2.92375 0.98313,0.40125 -0.70112,0.86625 -1.22037,1.78 -0.94775,1.6675 1.71837,1.3125 0.45762,1.85625 -2.55,1.09875 -2.2905,0.9475 -4.95787,1.42375 -0.21525,0.0375 0.15175,0.51625 0.356,0.53375 2.991,0.245 0.51525,-0.015 1.75425,2.64375 0.99212,2.13 1.427,-0.98125 1.06787,1.39875 z m 28.603,-10.5775 c -0.7625,-1.01625 -0.7112,-1.3975 0.3563,-1.77875 -0.6863,-3.96625 4.9837,-0.61125 1.0675,0.355 0,1.3225 -0.1525,1.09375 -1.4238,1.42375 z m -15.5345,1.39875 c 0,-0.915 1.7035,-1.90625 -1.06787,-0.53375 -5.11038,-0.33 4.95787,-7.27125 4.95787,-3.68625 -2.1102,0.27875 -0.9916,0.94 -0.7119,2.82125 -1.373,0.17875 -1.8306,1.11875 -3.1781,1.39875 z m 12.0008,0.7125 c -0.6863,-3.9925 -1.4748,-0.255 -2.8224,-0.535 -0.5848,-1.11875 -1.1695,-2.23625 -1.7543,-3.355 2.517,-0.255 6.3567,0.86375 6.3567,3.53375 -0.585,0.10125 -1.17,0.22875 -1.78,0.35625 z M 55.990428,8.6685631 c -0.17787,0.305 -0.35587,0.61 -0.53387,0.88875 1.7035,2.5687499 -5.64438,2.6962499 -1.57638,3.3562499 -2.41537,1.67875 0.99163,2.1875 2.11025,3.535 -4.62725,-0.76375 -1.62712,0.68625 -1.5255,3.585 0.45775,0.4575 0.45775,0.4575 2.92388,0.99125 -1.8305,-0.1275 -10.98363,-2.2125 -5.21213,-3.81375 1.80525,-3 -2.8475,-3.48375 -5.00875,-3.61 -0.40675,3.1525 -0.12712,2.82125 -3.27975,2.745 -0.5085,-4.78 0.94075,-0.635 2.46625,-3.53375 5.21213,-0.50875 0.38138,-1.42375 -2.00862,-1.3225 0.61025,-4.2199999 7.653,2.085 8.4665,-2.8212499 1.06787,0 2.13575,0 3.17812,0 z m 2.82225,12.3562499 c 3.534,0.1775 3.534,0.1775 5.2884,0.71125 -2.2374,0.20375 -4.7036,1.95875 -5.2884,-0.71125 z m -16.24662,2.8225 c -1.24588,-2.11125 -1.24588,-2.11125 -1.39838,-3.17875 -3.3815,0.63625 -3.30525,1.29625 -6.81387,0.4325 -0.30513,-2.16125 -0.88988,-4.42375 0.10162,-6.4325 -2.59325,0.1525 -2.97462,-3.1025 -4.24587,1.9575 1.44912,-1.09375 1.06775,-3.05125 2.64412,-0.7375 1.017,4.755 -0.20337,5.8475 4.50025,6.81375 0.20338,0.305 0.40675,0.63625 0.63563,0.96625 0,-4.39875 3.89,1.0425 4.2205,1.24625 0.10175,-0.35625 0.22887,-0.7125 0.356,-1.0675 z m 32.49362,3.1775 c -0.28,-0.4575 -0.28,-0.4575 -1.5262,-0.96625 -0.4825,-1.44875 -1.3725,-5.49125 0.89,-5.49125 0.56,1.01625 1.8312,4.70375 -0.076,4.70375 0,1.32125 2.3138,0.635 0.7125,1.75375 z m 22.9588,2.13625 c -0.9663,-1.22125 -0.9163,-1.6025 -1.0688,-3.17875 1.73,0.585 3.661302,1.3725 1.0688,3.17875 z m -88.3015501,0 c -1.551,-0.48375 -2.05937,-0.35625 -2.82212,-1.78 0.71187,0.1775 1.42375,0.89 2.13562,0.89 1.3221301,-1.475 3.9663801,-1.37375 5.6443801,-0.53375 0.25425,0 0.48312,0 0.71187,0 2.18663,0.25375 6.07663,2.77125 6.35625,5.2875 0.91538,-0.33 1.72888,-1.245 0.8645,-2.11 0.76275,-4.3725 1.29663,-2.44125 1.24575,0.7125 1.80525,0.66 0.2035,1.83 0,3.1775 0.0764,0.1275 0.12725,0.25375 0.178,0.35625 0.66113,0 0.534,-0.07625 0.534,-0.7125 2.5425,0.91625 1.7035,3.35625 3.17813,4.755 -1.856,1.3225 -2.66963,-2.8725 -3.71213,-3.50875 -0.76275,0.7625 -0.0762,1.6775 0.534,2.28875 0.53388,0.71125 0.53388,0.71125 1.04238,3.1775 2.00862,-0.38125 1.27125,0.025 2.66962,1.0425 4.52563,0 0.3305,1.98375 -0.99162,1.85625 -0.27963,-2.13625 -0.0762,-2.67 -2.3645,-1.5 -0.30513,2.00875 -1.14413,3.68625 -3.712,2.49125 -0.30513,-0.07625 -0.61025,-0.1275 -0.88988,-0.1775 -1.39837,0.1775 -1.75437,0.50875 -3.71212,0.86375 -0.1525,1.39875 -0.1525,1.39875 -0.53388,1.6025 -0.22887,0.25375 -0.45762,0.4825 -0.6865,0.71125 -0.38137,0.78875 -0.88987,0.7375 -1.77975,0.865 0.58475,2.36375 2.46625,2.72 4.602,3.1775 0.91525,-3.4825 6.02563,-2.94875 8.8225,-2.11 0.73725,0.63625 0.94063,0.96625 1.93225,0.89 0.0762,0.40625 0.12713,0.81375 0.178,1.22 0.25425,0.07625 0.483,0.1275 0.71188,0.17875 3.07637,-0.35625 1.77975,1.85625 2.77137,4.0925 2.56788,2.26375 5.13575,1.0175 2.695,4.22125 1.57638,0.38125 2.39,0.4325 2.49163,2.11 -4.32225,1.72875 -4.3985,4.52625 -7.602,0.53375 -2.26288,-0.1525 -2.13575,0.1525 -2.746,-2.05875 -2.74588,-1.78 -0.9915,1.44875 -3.712,-0.1525 0,-2.16125 1.62725,-0.48375 1.24587,-3.02625 -1.06787,-0.25375 -9.76325,-1.42375 -6.43262,-3.07625 0.22887,-0.83875 0.45762,-1.6525 0.6865,-2.46625 -2.82213,0.10125 -2.31363,-0.96625 -2.39,2.5425 -1.29663,0.4575 -0.45763,-1.01625 -2.5425,-1.11875 0.534,0.7625 0.48312,0.865 0.43225,1.83125 -2.13563,1.245 0.0509,1.6525 1.14412,2.745 0,2.035 2.61875,6.78875 -0.61012,6.78875 -0.81363,-3.50875 -1.44925,-2.77125 -4.85625,-2.89875 -0.35588,0 -0.7118801,0 -1.0423801,0 -1.06787,-1.27125 0.6865001,-2.44 -2.13575,-2.82125 -0.178,-1.22125 -0.53387,-3.50875 -1.93225,-2.11125 0.17788,-2.8475 7.6020001,-3.2025 2.28825,-5.8475 2.7967501,-1.32125 4.1951301,0.17875 6.3562501,1.9575 -0.12712,-1.855 -1.5255,-4.22 0,-5.2875 -0.839,0.12625 -1.65262,0.22875 -2.46625,0.33 0.91525,-1.85625 -0.61025,-3.83875 0.356,-4.755 -1.29675,-1.29625 -3.5341201,0.91625 -3.5341201,-1.60125 0.356,-0.35625 0.71187,-0.71125 1.06787,-1.0425 0,-1.29625 -0.0509,-1.0675 -1.3475,-0.99125 1.42375,-1.78 1.04238,-5.56875 3.6357501,-3.4325 -2.1611201,2.61875 0.43225,4.805 -0.178,1.9575 0.96613,-0.10125 4.09338,-0.1525 2.46625,-1.42375 0.22875,-1.3725 0.0509,-1.55125 1.24575,-2.2875 0.48313,-1.45 0.6865,-2.11125 1.75438,-3.17875 -0.53388,-0.305 -1.06788,-0.61 -1.57638,-0.89 -2.13562,-0.68625 -3.45775,-1.525 -5.6697501,-1.75375 z m 49.0957501,0.33 c -0.8899,-1.11875 -2.39,-1.6525 -1.24587,-3.35625 -0.43225,-0.61 -0.43225,-0.61 -1.93225,-1.39875 0.35587,-0.355 3.17812,-0.355 4.85612,-0.8125 2.6951,2.16 0.8899,4.6525 -1.678,5.5675 z m -38.8495,0.35625 c -0.91525,-4.6525 -7.32237,-1.45 -4.32225,-6.45875 1.16963,0 2.79675,4.9075 2.46625,0.7125 2.1865,-0.81375 2.28825,-0.53375 2.212,1.525 3.35613,-0.40625 1.856,3.6875 -0.356,4.22125 z m -4.2205,-1.39875 c -0.8645,0.07625 -1.72887,0.1525 -2.59337,0.255 0,2.08375 2.97475,1.60125 3.63575,-0.255 -0.3305,0 -0.6865,0 -1.04238,0 z m 14.28888,-11.67 c -1.09338,0.40625 -2.13575,2.2625 -3.45788,3.07625 -4.0425,6.45875 5.74613,3.9925 5.74613,3.81375 -1.29675,0.1025 -4.78,0.1275 -5.69525,-0.53375 0.3305,-2.33875 2.51712,-0.10125 2.51712,-2.2125 -2.94937,-0.12625 0.10163,-2.08375 0.88988,-4.14375 z m 6.17825,9.3825 c 0.30512,2.44 1.98312,2.16 -0.71188,4.22 0.81363,0.81375 2.61875,0.025 3.712,0.1775 -1.06787,-1.3975 -2.33912,-3.94 -3.00012,-4.3975 z m 32.13727,6.86375 c -2.4663,-1.9575 1.8301,-2.2375 1.8301,-0.61 -0.61,0.20375 -1.22,0.4075 -1.8301,0.61 z m -56.13852,0 c -0.53388,-1.75375 -0.53388,-1.75375 -0.9915,-2.21125 1.60175,-0.1025 5.21212,2.21125 0.9915,2.21125 z m 66.02862,1.42375 c -0.3562,-1.0425 -0.7112,-2.11 -1.0675,-3.1775 2.6188,0.305 2.135,1.0425 1.0675,3.1775 z m 9.89,1.755 c -5.39,-1.145 -3.05,-3.20375 -1.0675,-1.22 0.8138,-0.05125 1.6275,-0.1025 2.4663,-0.17875 0,0.99125 -0.1775,1.39875 -1.3988,1.39875 z m -15.89,-1.22 c -0.3562,-0.535 -0.3562,-0.535 -0.3562,-3.00125 1.6787,1.24625 3.305,1.72875 3.5337,3.865 -1.7025,1.44875 -2.16,0.915 -3.1775,-0.86375 z m 8.8225,2.2875 c 1.9575,-2.39 3.7888,2.06 4.6013,-0.71125 2.4662,0.53375 2.8225,0.88875 5.2887,1.0675 -2.5162,2.16125 -3.0762,-0.38125 -4.6012,-0.17875 -2.1113,2.11125 -2.695,0.02625 -5.2888,-0.1775 z m -79.4533701,4.24625 c -0.0254,-1.3225 -0.0509,-2.64375 -0.10163,-3.99125 4.19513,-0.0775 8.36475,-4.85625 5.82225,0.53375 -2.13562,1.11875 -4.2205,1.44875 -5.72062,3.4575 z m 92.5221701,0.35625 c -0.9163,-0.9925 -2.8225,-2.8225 -0.3563,-3.02625 2.3388,1.70375 4.0675,2.5175 0.3563,3.02625 z m -2.8225,-4.24625 c 3.915,-0.20375 7.6787,0.585 8.11,4.9325 -1.6525,-3.17875 -4.4488,-4.37375 -8.11,-4.9325 z m -41.3158,5.64375 c -0.61025,-2.79625 3.81375,-2.2375 2.11025,-0.53375 -0.6865,0.17875 -1.39837,0.35625 -2.11025,0.53375 z m 43.4258,2.46625 c -1.83,-3.40625 -4.5513,-0.305 -5.9238,-3.635 -5.4412,-1.2975 1.3725,-2.16125 3.5338,-2.11125 0.865,1.11875 3.7125,4.80625 2.39,5.74625 z m -9.5338,0.35625 c -0.28,-0.4575 -0.28,-0.4575 -1.8562,-0.96625 -0.026,-2.135 -0.6613,-3.20375 1.1437,-4.3225 -0.1775,1.72875 2.67,4.5775 0.7125,5.28875 z m -81.5640001,2.46625 c -0.71187,-0.915 -0.86437,-2.33875 -1.06775,-3.50875 1.06775,0.1525 1.42375,-0.1775 2.11025,-0.1775 1.83063,1.83 -0.12712,0.7625 -0.6865,2.64375 5.16125,0 3.86463,1.11875 -0.356,1.0425 z m 87.5640001,1.0675 c -0.915,-1.16875 -2.8225,-1.3725 -2.8225,-2.82125 1.195,0.305 2.39,0.635 3.61,0.96625 -0.025,1.04125 0.3563,1.855 -0.7875,1.855 z m -6,0.35625 c 0.3813,-1.9825 -2.5687,-0.71125 -4.2462,-0.89 -2.3138,-2.89875 0.3812,-3.86375 2.8475,-1.3975 1.8812,0 4.755,1.47375 1.3987,2.2875 z m -37.782,0 c -1.8815,-2.415 2.28825,-2.74625 2.82213,-0.71125 -0.94075,0.22875 -1.8815,0.4575 -2.82213,0.71125 z m -25.06912,-4.60125 c 2.39,4.0675 4.47475,-2.87375 6.71225,0.71125 -0.71188,0.22875 -1.42388,0.4575 -2.13575,0.7125 3.02562,4.9575 -3.12725,-0.1525 -3.78838,2.0075 -2.26275,-0.10125 -4.93237,2.5425 -5.746,-0.58375 2.5425,-0.305 2.3645,-2.31375 4.95788,-2.8475 z m 9.1785,1.42375 c 0.78812,0.025 1.57625,0.05 2.3645,0.07625 0.5085,1.855 1.09325,3.05 -0.94075,3.81375 -0.81363,0.25375 -0.81363,0.25375 -2.31363,0.1775 0,-2.2125 -2.00862,-3.4325 0.88988,-4.0675 z m 24.00112,5.2875 c -0.78812,-1.44875 -3.2035,-0.4575 -2.56787,-2.21125 4.5765,0.10125 2.39,0.025 2.39,-3.4325 0.53387,-0.56 5.05947,-1.755 2.31362,-1.755 0.88988,-3 6.30535,3.94125 1.29663,3.94125 -0.8135,-2.74625 -5.36463,-2.135 0.45772,1.88125 0.483,-0.07625 0.9915,-0.1775 1.5,-0.27875 0.2289,3.55875 -4.6781,-0.6875 -4.6781,1.855 -0.22887,0 -0.45775,0 -0.712,0 z m 11.6701,1.42375 c -0.5338,-2.46625 -0.5338,-2.46625 -1.0678,-3.53375 1.6017,0.96625 4.068,2.74625 1.0678,3.53375 z m -21.89097,0 c -0.0762,-1.42375 0.12712,-2.51625 -0.88988,-3.53375 -2.517,3.78875 -3.33062,-3.63625 -0.45762,-3.63625 0.3305,1.9325 6.102,7.17 1.3475,7.17 z m 51.53617,0.7125 c -3.3563,-1.475 4.602502,-3.35625 1.4237,-0.1775 -0.4575,0.05 -0.94,0.10125 -1.4237,0.1775 z m -44.49342,2.46625 c -2.517,-0.96625 -0.305,-0.66125 0.356,-2.46625 1.90687,0 1.24587,2.05875 -0.356,2.46625 z m -4.2205,0 c -0.15263,-0.7375 -0.30513,-1.475 -0.45763,-2.2125 3.07638,-1.01625 1.22038,-3.4825 3.99175,-3.61 0.86438,1.22 0.86438,1.22 1.04238,1.9325 -2.212,-0.48375 -0.96613,3 -4.5765,3.89 z m 37.07012,2.11 c -0.2037,-3.7625 0.5338,-4.6275 3.9663,-2.5675 0.2287,2.33875 -2.1875,2.21125 -3.9663,2.5675 z m 10.2463,0.35625 c -2.95,-2.5425 0.8387,-2.28875 1.3975,-0.7125 -0.4575,0.22875 -0.915,0.45875 -1.3975,0.7125 z m -26.8493,0.35625 c 0.3305,-0.78875 0.5594,-4.70375 1.4239,-1.42375 3.3304,0 0,1.29625 -1.4239,1.42375 z m 6.3568,0.71125 c 0.635,-3.25375 -1.5,-1.85625 -3.9663,-3.81375 0.1013,-2.03375 -2.365,-2.92375 1.5,-2.72 1.6013,0.94 2.3388,1.0675 1.4238,3 1.4737,0.1525 1.8812,0.7875 3.1775,1.39875 -0.5338,1.0675 -1.0163,1.72875 -2.135,2.135 z m 20.4925,1.0425 c -0.8138,-2.72 2.4662,0.63625 2.4662,-2.11 1.4738,0.20375 4.321302,-0.20375 4.321302,1.5 -2.211302,0.4325 -2.211302,0.4325 -6.787502,0.61 z m -28.6037,-0.68625 c 1.7799,0 -0.025,1.9575 2.4663,-0.53375 0.712,0.07625 1.4239,0.12625 2.1099,0.1775 0.1275,0.1275 0.255,0.255 0.3562,0.35625 0.6363,0.28 0.915,-0.1275 1.4238,-0.53375 2.8737,0.28 0.1275,5.16125 0,6.89 -0.1275,0 -0.2538,0 -0.3563,0 0.4075,1.525 1.0688,1.29625 2.2888,2.28875 2.0337,-0.94125 0.1775,-4.73 2.5425,-1.52625 0.305,0 0.61,0 0.89,0 2.5675,-3.025 3.7887,-3.4575 7.78,-3.68625 0.5337,1.22 0.5337,1.22 0.9662,1.5 -0.1787,-1.525 0.1525,-2.28875 -1.1437,-3.1025 0,-2.49125 6.2037,2.95 1.855,3.81375 0.7375,2.00875 -0.8638,7.2975 1.4237,5.4675 3.3063,0.2025 -2.5162,5.46625 1.0425,5.46625 0.255,1.47375 -1.22,3.05 0.076,3.43125 0,1.22125 -0.4313,1.0425 -1.5763,1.425 -2.2112,2.745 -7.4487,2.0075 -10.9575,1.57625 -0.305,-0.4075 -0.585,-0.81375 -0.865,-1.22125 -3.33,-0.2025 -2.5675,2.61875 -3.9662,-3.4325 -2.0338,0 -0.94,-2.8975 -3.2797,-4.16875 -0.6102,-0.96625 -0.4831,-5.74625 -1.6781,-3.61125 -0.5847,0.1025 -1.1695,0.22875 -1.7542,0.35625 -0.4832,-0.1275 -0.9662,-0.25375 -1.4239,-0.35625 -0.7119,-1.01625 -2.6188,-0.88875 -3.8645,-1.0425 0.9152,-3.68625 2.2882,1.27125 2.7204,-2.23625 -1.5509,-1.0425 -2.4408,-3.35625 -3.7883,-3.76375 -0.4576,-0.28 -0.91537,-0.55875 -1.3475,-0.81375 -2.87312,-3.635 1.2204,-2.5425 2.2374,-2.5425 1.0424,-2.82125 5.0341,-3.4825 5.8222,-0.1775 z m 10.2462,3.53375 c 0.3562,-0.53375 0.3562,-0.53375 1.9325,-1.42375 0.8387,-3.25375 2.1862,-1.90625 -0.1775,-5.8225 -3.89,-1.16875 1.3975,-3.68625 -1.755,-3 0.585,-2.79625 1.1187,-1.27125 3.61,-1.16875 1.9587,2.05875 -1.805,1.62625 -2.9238,2.745 3.6363,2.8225 2.7213,3.84 2.5688,8.035 -1.5,0.10125 -1.5,0.10125 -3.255,0.635 z m -28.95892,2.8225 c 0.20337,-1.22 0.27962,-1.475 1.39837,-1.0675 0.178,-2.56875 3.07638,-5.69625 -0.534,-3.35625 -4.19512,-3.4325 -4.3985,1.3725 -8.03425,0.96625 -0.5085,-1.755 1.1695,0.1775 0.53388,-1.6025 -3.43238,-2.5425 3.00025,-0.53375 -0.88988,-3.35625 -0.86437,-1.57625 -1.678,-1.88125 -2.0085,-3.61 -1.856,-0.1275 -4.52562,-0.38125 -3.99175,-2.5675 3.02563,-2.085 -1.7035,-2.645 1.93225,-2.46625 0.8645,1.245 1.42388,0.915 2.31375,1.75375 -0.22887,2.4925 4.551,-1.805 5.21213,1.88125 -0.81363,0.9925 -2.46625,7.37375 -0.63563,5.54375 2.11025,-0.05125 2.517,0.25375 2.92388,-2.00875 2.08487,0.33 3.61037,0.83875 5.746,0.61 0.10175,1.78 -0.3305,2.975 1.32212,3.78875 -3.5595,2.36375 -0.40675,6.2025 0.534,-0.865 1.09325,-1.09375 1.06775,-1.3225 1.24575,-2.8225 4.8563,2.415 -1.47462,1.70375 1.75438,3.6875 -3.15275,2.36375 -0.91538,5.5925 -6.00038,4.0675 -0.35587,1.5 -1.5,1.24625 -2.82212,1.42375 z m -17.3145,1.0425 c -0.305,-0.38125 -5.87313,-3.7125 -6.00025,-3.7125 -1.67813,1.37375 -3.0765,-3.07625 -6.00038,-3.33 0.12713,-1.67875 1.44925,-5.365 3.00025,-3.17875 0,5.77125 13.24638,5.26375 9.00038,10.22125 z m 69.20712,0.71125 c -1.1187,-0.58375 -1.17,-0.7625 -1.5762,-1.93125 -0.915,-0.48375 -4.6275,-1.85625 -3.1025,-3.45875 1.6275,-0.1525 2.3137,0.81375 3.1787,1.9325 1.805,0.33125 3.457502,0.33125 3.813802,2.39 -1.423802,-1.3475 -1.398802,0.4575 -2.313802,1.0675 z m -1.3987,7.06875 c -0.33,-1.3475 -0.8138,-1.83125 0.1787,-2.8225 0.7875,1.6525 2.2625,2.31375 -0.1787,2.8225 z m 17.288692,-2.46625 c 0.2288,0.1275 2.4925,-1.6775 2.4925,-2.49125 1.6263,0.4825 0.7875,-0.66125 2.11,-1.755 -0.61,2.72125 -1.9325,10.0175 -6.1025,9.61125 -0.1525,-1.9075 1.6788,-2.8225 1.5,-5.365 z m -22.246192,8.46625 c -1.2713,-0.99125 -2.0338,-0.4575 -2.4663,-2.11 0.8638,0.22875 5.1613,1.14375 2.4663,2.11 z m 52.273692,-3.89 c -0.3562,2.2125 -1.8812,2.8475 -2.8225,4.6025 0.7888,0.25375 0.7888,0.25375 1.0688,0.71125 0.8637,0.68625 1.6012,0.7125 2.11,1.0425 0.585,2.87375 1.4487,2.7975 0.355,6 -1.0675,-0.53375 -1.6263,-0.53375 -2.8213,-0.53375 -3.5087,-2.66875 0.8638,2.67 -4.3475,2.03375 -0.535,-1.855 -1.195,-1.93125 0,-3.71125 5.2875,-1.5 -1.2712,-2.5175 -2.365,-3.61 -3.255,0 -4.0175,0.71125 -4.8812,-2.39 -1.6275,-0.535 -2.06,-1.475 -3.7125,-1.9325 -1.22,-3 -1.9575,-2.11 -3.9413,-0.4325 -2.745,-2.74625 8.1875,-4.22 6.1788,0.35625 1.1187,-0.28 1.1187,-0.28 1.5762,-0.7125 0,-4.6275 -4.2462,-2.11 -3.8137,-4.3475 2.2887,-0.25375 2.085,-0.61 2.2375,-2.72 1.9325,0.635 -1.22,3.4325 3.5337,3.89 1.8313,0.96625 5.67,1.525 7.755,1.3975 1.6275,-1.62625 3.61,-2.79625 3.89,0.35625 z m -37.07,4.6025 c -1.83,-4.06875 -1.2962,-0.38125 -1.4237,1.3975 -0.1775,1.06875 -0.1775,1.06875 -0.7113,1.6025 -0.4837,0.53375 -0.9412,1.0675 -1.3987,1.57625 0,1.90625 -2.23749,-0.28 -2.92379,-0.10125 -0.1275,2.18625 4.19499,2.695 1.8563,4.3475 0,0.22875 0,0.4575 0,0.71125 1.98249,2.8475 1.11869,-0.12625 2.46619,0.7125 0.1775,1.525 -0.026,2.77125 1.0675,3.86375 0.7875,1.145 0.1775,1.52625 0.2538,2.89875 2.8475,0.661247 4.5775,1.754997 4.3475,4.881247 -1.6013,-0.96625 -2.39,-1.29625 -4.245,-1.42375 6.0762,3.96626 -2.4663,4.55126 -2.4663,1.06875 -1.42369,0.1775 -1.77999,0.53375 -4.24619,0.71125 0,-2.05875 2.39,-0.4325 -1.423802,-2.8225 0.051,-0.8125 0.89,-4.168747 1.957502,-2.668747 -2.542502,4.168747 2.2888,3.533747 5.10999,3.533747 0.2288,0 0.4588,0 0.7125,0 2.2625,-0.22875 2.1613,-2.2625 -0.1012,-2.5675 -0.6363,-4.983747 -0.8138,-2.644997 -4.83129,-2.364997 -1.195,-1.6775 -4.576202,-4.42375 -1.3475,-5.74625 1.2713,-1.6275 1.78,-2.31375 -0.432502,-2.89875 -0.2037,1.8825 -0.1525,1.0425 -1.7537,0.6875 0.1012,-2.11125 -0.305,-1.9325 -2.4925,-2.46625 0,0.83875 -2.4663,1.855 -3.9663,1.5 -0.89,-2.31375 -0.89,-2.31375 -1.3212,-2.5425 -0.1788,1.3975 0.1775,1.75375 0.1775,2.82125 -0.7113,0.6875 -0.7113,0.6875 -1.17,2.1875 -1.525,-0.28 -2.8725,-0.33125 -2.5425,-2.1875 -3.9913,-0.915 -3.5338,-2.415 -3.8138,0.76375 -3.025,0 -1.0675,-5.00875 -0.076,-5.00875 0.84,3.4325 4.5012,-1.27125 7.0687,0.71125 -0.4575,-1.27125 0.4325,-1.3725 1.4238,-2.135 0.2537,-0.1275 0.4825,-0.22875 0.7112,-0.33125 1.7038,-0.61 1.9075,-0.25375 3.5088,0.68625 1.4237,0.535 1.4237,0.535 2.9237,0.4325 -0.1012,-2.89875 2.848802,-2.79625 3.102502,-6.4325 1.7538,0.17875 2.10999,0.53375 3.25379,0.4325 1.9075,-2.31375 8.2387,-2.72 3.3312,-0.1775 0,0.7625 0,1.525 0,2.2875 1.3225,0.05125 6.0513,-0.22875 3.1788,1.6025 0,1.0925 2.4912,1.88125 3.635,2.92375 -1.3988,-0.305 -7.17,-1.805 -7.3988,-2.46625 z m 26.4675,6.35625 c -1.8812,-1.475 -2.9237,-1.6025 0,-1.6025 1.8813,-1.88125 2.1613,1.0425 0,1.6025 z m -21.535,1.0425 c 2.415,-1.195 -1.9825,-0.66125 -2.8225,-1.9325 1.4238,0.07625 2.8488,0.12625 4.2463,0.1775 3.84,-0.28 5.7975,-0.55875 1.3987,-2.8225 0,-0.05 0,-0.10125 0,-0.1775 1.195,0 2.365,0 3.5338,0 1.6025,-0.86375 0.7125,-4.52625 3.255,-4.52625 -0.9663,3.20375 3.2287,3.15375 4.525,5.7725 -2.3638,0 -4.1188,-1.0175 -6.1775,1.0425 0,5.51625 7.475,5.11 11.4662,5.46625 -1.5512,-1.06875 -2.0087,-3.35625 0.4325,-2.74625 0.9913,2.33875 3.1775,1.755 3.1775,3.7125 -3.2037,0.05 -15.6362,-0.96625 -7.1437,3.28 -0.56,0.55875 -1.3475,0.22875 -2.1113,0.1775 0,1.27125 1.78,0.89 2.8988,0.96625 0,1.5 -0.635,1.3225 -1.8563,1.3225 -0.7112,-0.585 -8.11,-6.76375 -8.11,-4.39875 0.5338,0.10125 3.305,3.7625 3.5338,4.57625 -1.5763,-0.20375 -3.1525,-0.4075 -4.7038,-0.61 -0.5087,-2.56875 -1.78,-2.8475 -0.4312,-5.035 0.355,-3.38125 -1.8063,-2.11 -4.755,-2.11 -1.2463,-0.10125 -1.1438,-1.5 -0.3563,-2.135 z m 36.3838,6.71125 c -0.28,-0.4575 -0.28,-0.4575 -4.2463,-1.93125 3.025,-2.72125 6.9663,1.93125 4.2463,1.93125 z m -66.741292,-1.0425 c -0.61,-0.4825 -1.195,-0.965 -1.78,-1.42375 -1.3475,-0.58375 -0.5075,-1.805 0.255,-2.5675 0.9663,0.025 1.9325,0.05125 2.9238,0.10125 0.3562,0.35625 0.7112,0.7125 1.0675,1.06875 0.1787,-1.42375 -0.1775,-1.78 -0.1013,-2.59375 3.2538,0.96625 6.0763,3.56 8.39,6.4575 0.305,-0.58375 0.61,-1.16875 0.89,-1.75375 -3.8137,-0.63625 -2.2887,-6.78875 -1.525,-4.17 2.3388,0 3.5338,-1.0425 5.415,-0.4325 -0.7375,1.24625 -7.8812,0.9925 -5.415,3.61125 2.8213,0.7875 1.6263,0.89 1.7788,3.53375 0.7637,0.10125 1.5,-0.05125 1.5,0.81375 0.305,0.53375 0.6112,1.0675 0.89,1.57625 -1.525,0.025 -4.22,0.07625 -1.9325,-1.755 -1.22,-0.10125 -7.6013,1.5 -7.78,2.111247 -1.7288,0.61 0.4325,2.05875 0.4325,3.96625 -4.2713,4.27126 -6.28,-2.2375 -4.1438,-4.856247 -1.2212,-2.13625 -1.7287,-1.06875 -0.865,-3.6875 z m 54.383792,4.22125 c -0.8125,-1.3475 -4.6525,-1.98375 -0.355,-2.8225 0.7375,1.42375 2.695,2.2125 0.355,2.8225 z m -43.094992,4.246247 c -0.5338,-1.06875 -1.2463,-1.755 -1.5,-2.56875 2.0087,-0.05 5.39,1.195 1.5,2.56875 z m -4.9325,0 c -0.1013,-2.7975 2.085,-2.39 2.8225,-0.35625 -0.9413,0.10125 -1.8813,0.22875 -2.8225,0.35625 z m 64.961192,3.17751 c -0.7125,-0.25375 -1.4237,-0.4825 -2.11,-0.71125 -0.7125,-1.45 -1.5,0.81375 -2.0337,-1.85626 -0.9663,-0.20375 -1.9325,-0.4075 -2.925,-0.61 -0.1013,-0.48375 -2.8725,-8.136247 -0.4313,-4.169997 3.5338,0.838747 1.4238,0.941247 3.1775,3.533747 1.195,0.255 2.39,0.53375 3.61,0.81375 2.8988,2.31376 3.0013,3.53376 6.3563,1.57626 -0.2288,0.94125 -0.4575,1.88125 -0.6863,2.8475 3.0513,0.48375 2.1875,3.865 -0.8137,2.18625 -1.1188,-2.11 -2.085,-2.5425 -4.1438,-3.61 z"
       inkscape:connector-curvature="0"
       id="path42"
       style="fill:#2c2c2b;fill-rule:evenodd;stroke:none" />
  </g>
</svg>
