<?xml version="1.0" encoding="UTF-8" standalone="no"?>
<!-- Created with Inkscape (http://www.inkscape.org/) -->

<svg
   xmlns:dc="http://purl.org/dc/elements/1.1/"
   xmlns:cc="http://creativecommons.org/ns#"
   xmlns:rdf="http://www.w3.org/1999/02/22-rdf-syntax-ns#"
   xmlns:svg="http://www.w3.org/2000/svg"
   xmlns="http://www.w3.org/2000/svg"
   xmlns:sodipodi="http://sodipodi.sourceforge.net/DTD/sodipodi-0.dtd"
   xmlns:inkscape="http://www.inkscape.org/namespaces/inkscape"
   width="744.09448819"
   height="1052.3622047"
   id="svg3168"
   version="1.1"
   inkscape:version="0.48.2 r9819"
   sodipodi:docname="splat10.svg">
  <defs
     id="defs3170" />
  <sodipodi:namedview
     id="base"
     pagecolor="#ffffff"
     bordercolor="#666666"
     borderopacity="1.0"
     inkscape:pageopacity="0.0"
     inkscape:pageshadow="2"
     inkscape:zoom="0.55"
     inkscape:cx="375"
     inkscape:cy="1174.5455"
     inkscape:document-units="px"
     inkscape:current-layer="layer1"
     showgrid="false"
     inkscape:window-width="1012"
     inkscape:window-height="796"
     inkscape:window-x="197"
     inkscape:window-y="0"
     inkscape:window-maximized="0" />
  <metadata
     id="metadata3173">
    <rdf:RDF>
      <cc:Work
         rdf:about="">
        <dc:format>image/svg+xml</dc:format>
        <dc:type
           rdf:resource="http://purl.org/dc/dcmitype/StillImage" />
        <dc:title></dc:title>
      </cc:Work>
    </rdf:RDF>
  </metadata>
  <g
     inkscape:label="Layer 1"
     inkscape:groupmode="layer"
     id="layer1">
    <path
       d="m 18.028618,82.762313 c -0.62875,-0.0975 -0.795,-1.0525 -1.26,-1.26 -0.41125,-0.1825 -0.9,0 -1.26,0 -0.45,0 -0.945,0.175 -1.26,0 -0.55625,-0.30875 -0.77375,-1.11 -1.26,-1.26 -0.77375,-0.2375 -1.6675,0.2725 -2.43,0 -0.5987499,-0.21375 -0.7949999,-1.0525 -1.2599999,-1.26 -0.41125,-0.1825 -0.9,0 -1.2599999,0 -0.45,0 -0.945,0.175 -1.26,0 -0.55625,-0.30875 -0.83125,-0.985 -1.26,-1.26 -0.84625,-0.54375 -1.89375,-0.54375 -2.52,-1.17 -0.3175,-0.3175 -0.05,-0.90375 0,-1.26 0.31,-2.1675 0.6125,-4.28375 1.26,-6.3 0.17625,-0.54875 0.8525,-0.8525 1.26,-1.26 0.4075,-0.4075 0.77625,-0.94875 1.26,-1.26 0.78,-0.50125 1.7049999,-0.645 2.5199999,-1.17 0.485,-0.31125 0.7337499,-1.02625 1.2599999,-1.26 0.32875,-0.14625 0.72,0 1.17,0 0.81,0 1.88375,0.63625 2.52,0 0.63625,-0.63625 -0.4375,-1.83875 0,-2.52 2.305,-3.58625 5.27625,-2.51375 7.56,-3.78 0.50375,-0.27875 0.61625,-1.10125 1.17,-1.26 0.77875,-0.2225 1.65,0.22875 2.52,0 0.89625,-0.235 1.5725,-1.06 2.52,-1.26 0.7925,-0.16625 1.65,0.22875 2.52,0 0.89625,-0.235 1.58875,-0.90375 2.52,-1.17 0.34625,-0.09875 0.72,0 1.17,0 0.81,0 1.62625,0.10125 2.52,0 0.43875,-0.04875 1.08125,-0.03375 1.24875,-0.44125 0.135,-0.33125 -0.60375,-0.35625 -0.6,-0.60125 0.005,-0.32375 0.30625,-0.63 0.63,-0.63 0.255,0 0.615,0.24875 0.63,0.63 0.0125,0.3025 -0.8875,0.59875 -0.59375,0.5775 0.8675,-0.06 1.64375,-0.56125 2.465,-0.795 0.0063,-0.0013 0.01875,0.0062 0.01875,0 0.0063,-0.315 -0.34625,-0.935 0,-1.0425 1.1175,-0.34625 2.4475,-0.205 3.69,0 0.20625,0.035 -0.2375,0.61625 0,0.70125 0.40125,0.14375 0.88,-0.0675 1.24125,-0.28875 0.2775,-0.16875 0.365,-0.44375 0.63,-0.63 0.635,-0.44375 1.20875,-1.0125 1.89,-1.26 0.33875,-0.1225 0.81,0 1.26,0 0.06125,0 0.12375,0.01625 0.1825,0 0.4775,-0.12875 1.16625,-0.31375 2.35625,-0.3225 0.26375,-0.0012 -0.7025,0.0575 -0.72875,0.3225 -0.02375,0.23125 0.4675,0 0.71,0 0.36,0 0.83625,0.15125 1.26,0 0.8725,-0.31125 1.58875,-0.99375 2.52,-1.26 0.34625,-0.09875 0.76875,0.20125 1.17,0 1.63,-0.815 0.4875,-1.6275 2.52,-3.78 1.455,-1.54 4.2375,-0.5275 6.3,-1.26 7.6075,-2.70125 7.4525,-3.2525 13.14,-3.69 0.25375,-0.01875 0.4775,0.3125 0.54,0.63 0.12375,0.6175 0.44625,1.445 0,1.89 -0.445,0.44625 -1.2875,0.17125 -1.8,0 -0.36125,-0.12 -0.375,-0.63 -0.63,-0.63 -0.32375,0 -0.63,0.30625 -0.63,0.63 0,0.255 0.65,0.24875 0.63,0.63 -0.25625,4.88375 -0.94625,5.51 -5.04,8.1 -0.38,0.24 -0.91375,-0.09875 -1.26,0 -0.93125,0.26625 -1.63375,0.99 -2.52,1.26 -11.825,3.60625 -7.77125,9.2975 -8.73,21.24 -0.04625,0.575 -0.78625,0.9325 -1.26,1.26 -0.72875,0.505 -1.65,0.75875 -2.43,1.26 -0.48375,0.31125 -0.75625,0.89125 -1.26,1.17 -0.3925,0.21875 -0.93125,-0.14625 -1.26,0 -0.52625,0.23375 -0.8525,0.8525 -1.26,1.26 -0.4075,0.4075 -0.7175,1.06625 -1.26,1.26 -0.8475,0.3025 -1.74125,-0.2225 -2.52,0 -0.55375,0.15875 -0.75625,0.98125 -1.26,1.26 -0.3925,0.21875 -0.915,-0.105 -1.26,0 -6.7975,2.09125 -12.77375,1.26 -19.98,1.26 -2.52,0 -5.06875,0.375 -7.47,0 z m 56.435,-59.125 c 0.29,-0.145 0.305,-0.63 0.63,-0.63 0.25375,0 0.63,0.2475 0.63,0.63 0,0.32375 -0.485,0.34 -0.63,0.63 -0.48625,0.9725 -0.16375,2.755 -1.26,3.06 -1.3575,0.37625 -3.96875,-0.59125 -3.69,-1.89 0.32875,-1.5375 2.94375,-1.1125 4.32,-1.8 z m 45.630002,2.43 c -0.28125,-0.225 -0.28125,-0.90875 0,-1.26 0.22375,-0.28125 0.90875,-0.28125 1.26,0 0.28,0.22375 0.28,0.90875 0,1.26 -0.225,0.28 -0.90875,0.28 -1.26,0 z m -9.99001,2.52 c -0.34625,-0.09875 -0.42375,-1.10875 0,-1.26 1.18625,-0.42375 2.56875,-0.34625 3.78,0 0.345,0.09875 0.42375,1.10875 0,1.26 -1.18625,0.42375 -2.56875,0.345 -3.78,0 z m 0.63,2.52 c 0.29,-0.145 0.305,-0.63 0.63,-0.63 0.25375,0 0.63,0.2475 0.63,0.63 0,0.32375 -0.5675,0.31125 -0.63,0.63 -0.12375,0.6175 -0.61125,1.7375 0,1.89 2.44375,0.61 3.6075,0.625 2.52,1.26 -1.86625,1.0875 -4.4025,0.825 -6.3,0 -0.82625,-0.35875 -0.50125,-1.88375 0,-2.52 0.67125,-0.855 2.13125,-0.75125 3.15,-1.26 z m -11.506242,-15.5375 c 2.975002,-2.19 3.883742,-0.98125 6.298742,-1.88625 15.27251,-5.7187498 37.60626,-7.4437498 52.45251,-5.8912498 1.16375,0.1225 0.83375,2.7462498 0,3.6899998 -0.91,1.0325 -2.925,0.07125 -4.05,0.9 -0.78,0.575 0.06,2.51625 -0.9,2.88 -9.1875,3.48875 -15.76375,-2.535 -25.02,-0.63 -6.5075,1.34 -9.64125,4.43 -16.20001,5.67 -0.795,0.15 -0.72875,2.07875 0,2.43 10.65001,5.14 -26.151242,12.10125 -25.649992,11.25 0.19375,-0.32875 -0.575,-0.38125 -0.63,-0.63 -0.13625,-0.615 -0.29875,-1.35 0,-1.8 0.2,-0.29875 0.83625,0.15125 1.26,0 0.8725,-0.31125 1.58875,-0.99375 2.52,-1.26 0.34625,-0.09875 0.77375,0.21375 1.17,0 2,-1.07625 -0.85375,-3.2225 2.52,-5.04 6.68,-3.59625 7.985002,0.16 11.519992,-2.25 0.8925,-0.6075 0.66625,-2.3275 0,-3.06 -1.38125,-1.52 -4.962492,-0.875 -5.219992,-2.79 -0.23625,-1.76625 4.318742,-0.94 4.746242,-2.785 0.3725,-1.6125 -6.149992,2.18375 -4.817492,1.2025 z m 58.770002,4.95 c -0.33375,-0.13375 -0.39375,-1.04125 0,-1.26 0.7075,-0.3925 1.685,-0.33375 2.52,0 0.33375,0.13375 0.39375,1.0425 0,1.26 -0.7075,0.39375 -1.685,0.335 -2.52,0 z m -77.863752,18.0575 c -0.28125,-0.225 -0.28125,-0.90875 0,-1.26 0.22375,-0.28125 0.90875,-0.28125 1.26,0 0.28,0.22375 0.28,0.90875 0,1.26 -0.225,0.28 -0.90875,0.28 -1.26,0 z m 32.863742,-8.0675 c -0.28125,-0.22375 -0.28125,-0.90875 0,-1.26 0.225,-0.28 0.90875,-0.28 1.26,0 0.28125,0.225 0.28125,0.90875 0,1.26 -0.225,0.28125 -0.90875,0.28125 -1.26,0 z m -56.249992,-0.63 c 0.7875,-0.3275 1.62,-0.81 2.52,-0.63 0.3525,0.07125 -0.16625,0.8425 0,1.26 0.06625,0.1675 0.39875,0.13875 0.63,0 0.27875,-0.16625 0.30625,-0.63 0.63,-0.63 0.255,0 0.63,0.24875 0.63,0.63 0,0.325 -0.56625,0.3125 -0.63,0.63 -0.12375,0.6175 -0.28125,1.3275 0,1.89 0.39875,0.7975 0.7975,0.39875 0,0 -0.56375,-0.28125 -1.2725,-0.1225 -1.89,0 -0.31875,0.06375 -0.48875,0.3375 -0.63,0.63 -1.03125,2.14125 -1.01,2.12 -3.15,3.15 -0.2925,0.14125 -0.30625,0.63 -0.63,0.63 -0.32375,0 -0.54,-0.375 -0.54,-0.63 0,-0.32375 0.3675,-0.44375 0.54,-0.63 0.99625,-1.0725 2.11375,-2.11375 3.15,-3.15 0.22875,-0.22875 0.43125,-0.37375 0.63,-0.63 0.445,-0.5725 1.4725,-1.145 1.26,-1.89 -0.1725,-0.605 -1.2725,-0.1225 -1.89,0 -0.31875,0.06375 -0.4125,0.39 -0.63,0.63 -0.59625,0.6625 -1.00125,1.8225 -1.89,1.89 -0.76125,0.05875 -1.84375,-0.99125 -1.53,-1.62 0.43375,-0.86625 1.85875,-0.47 2.79,-0.9 0.295,-0.135 0.33125,-0.505 0.63,-0.63 z m -16.2,0.63 c -0.28125,-0.22375 -0.28125,-0.90875 0,-1.26 0.225,-0.28 0.90875,-0.28 1.26,0 0.28125,0.225 0.28125,0.90875 0,1.26 -0.225,0.28125 -0.90875,0.28125 -1.26,0 z m 7.47,2.52 c -0.6475,0.05 -1.48375,-1.27375 -0.99,-1.62 0.96125,-0.6725 2.985,-1.31875 3.51,-0.27 0.49125,0.9825 -1.4975,1.81125 -2.52,1.89 z m 3.78,2.52 c -0.28125,-0.22375 -0.28125,-0.90875 0,-1.26 0.225,-0.28 0.90875,-0.28 1.26,0 0.28125,0.225 0.28125,0.90875 0,1.26 -0.225,0.28125 -0.90875,0.28125 -1.26,0 z m -11.25,0 c -0.32875,-0.145 -0.39375,-1.04125 0,-1.26 0.7075,-0.3925 1.69,-0.32875 2.43,0 0.32875,0.14625 0.39375,1.0425 0,1.26 -0.7075,0.39375 -1.69,0.32875 -2.43,0 z m 65.799992,6.18625 c -0.38125,0 -0.63,-0.375 -0.63,-0.63 0,-0.32375 0.30625,-0.63 0.63,-0.63 0.25375,0 0.63,0.24875 0.63,0.63 0,0.32375 -0.30625,0.63 -0.63,0.63 z m -6.944992,-5.55625 c 0.145,-0.29 0.3125,-0.56625 0.630002,-0.63 0.6175,-0.1225 1.34375,-0.3125 1.89,0 0.3125,0.17875 0.15125,0.83625 0,1.26 -0.31125,0.8725 -0.47125,1.9575 -1.26,2.52 -0.732502,0.52375 -2.208752,0.7475 -2.520002,0 -0.4375,-1.05 0.77375,-2.1775 1.26,-3.15 z m 0,-1.26 c 0.32375,0.02625 -0.32,0.53625 -0.63,0.63 -1.84,0.56 -4.61875,-0.32625 -5.58,1.26 -1.30625,2.155 -0.48375,3.51375 -1.26,2.52 -1.875,-2.39875 -1.66375,-3.665 0,-4.41 2.21875,-0.99125 4.95875,-0.2 7.47,0 z m -47.605,5.04 c -0.38125,0 -0.63,-0.375 -0.63,-0.63 0,-0.32375 0.30625,-0.63 0.63,-0.63 0.255,0 0.63,0.24875 0.63,0.63 0,0.325 -0.30625,0.63 -0.63,0.63 z m -15.66,-0.63 c 0.195,-0.25875 0.30625,-0.63 0.63,-0.63 0.255,0 0.63,0.24875 0.63,0.63 0,0.325 -0.92875,0.50625 -0.63,0.63 1.175,0.49 4.87125,-0.115 3.78,0.54 -1.8775,1.12625 -4.84625,-0.28 -6.3,1.26 -2.0325,2.1525 -0.72625,4.09625 -2.52,3.78 -1.24,-0.21875 -0.68125,-2.72 0,-3.78 0.4375,-0.68125 1.725,0.42125 2.52,0 0.90625,-0.48 1.275,-1.60875 1.89,-2.43 z m 23.13,2.43 c -0.28125,-0.22375 -0.28125,-0.90875 0,-1.26 0.225,-0.28 0.90875,-0.28 1.26,0 0.28125,0.225 0.28125,0.90875 0,1.26 -0.225,0.28125 -0.90875,0.28125 -1.26,0 z m -42.48,1.26 c -0.8575,-0.9225 -0.15875,-1.99 2.79,-2.25 0.76625,-0.0675 1.55875,1.6575 0.9,2.25 -0.93625,0.8425 -2.89375,0.8575 -3.69,0 z m 7.47,1.89 c -0.19625,-0.3275 -0.63,-0.375 -0.63,-0.63 0,-0.32375 0.30625,-0.63 0.63,-0.63 0.255,0 0.40875,0.32 0.63,0.63 0.23375,0.3275 0.3075,0.84625 0.63,1.26 0.3125,0.4025 1.71,0.81 1.26,1.26 -0.63625,0.63625 -1.8125,0.39375 -2.52,0 -0.39375,-0.2175 0,-0.9 0,-1.26 0,-0.27 0.0925,-0.475 0,-0.63 z m -6.21,0.63 c -0.35625,-0.815 -0.75125,-0.4775 0,0 0.30375,0.19375 0.81,0 1.26,0 0.36,0 0.7375,-0.1225 1.17,0 0.8525,0.24375 2.20125,0.30625 2.52,1.26 0.22875,0.68875 -1.25625,0.81625 -1.89,1.26 -0.26625,0.18625 -0.335,0.49625 -0.63,0.63 -0.755,0.34375 -1.58625,0.4975 -2.43,0.63 -0.88875,0.14125 -2.52,0.81 -2.52,0 0,-0.92625 1.95625,-0.47125 2.52,-1.26 0.5225,-0.73125 0.325,-1.7775 0,-2.52 z m 24.93,3.78 c 0.63,0.63 0.63,0.63 0,0 z m 47.52,7.47 c -0.28125,-0.22375 -0.28125,-0.90875 0,-1.26 0.225,-0.28 0.90875,-0.28 1.26,0 0.28125,0.225 0.28125,0.90875 0,1.26 -0.225,0.28125 -0.90875,0.28125 -1.26,0 z m -18.72,3.78 c -0.33375,-0.13375 -0.39375,-1.04125 0,-1.26 0.7075,-0.3925 1.685,-0.33375 2.52,0 0.33375,0.13375 0.39375,1.0425 0,1.26 -0.7075,0.39375 -1.685,0.335 -2.52,0 z"
       inkscape:connector-curvature="0"
       id="path56"
       style="fill:#2c2c2b;fill-rule:evenodd;stroke:none" />
  </g>
</svg>
