<?xml version="1.0" encoding="UTF-8" standalone="no"?>
<!-- Created with Inkscape (http://www.inkscape.org/) -->

<svg
   xmlns:dc="http://purl.org/dc/elements/1.1/"
   xmlns:cc="http://creativecommons.org/ns#"
   xmlns:rdf="http://www.w3.org/1999/02/22-rdf-syntax-ns#"
   xmlns:svg="http://www.w3.org/2000/svg"
   xmlns="http://www.w3.org/2000/svg"
   xmlns:sodipodi="http://sodipodi.sourceforge.net/DTD/sodipodi-0.dtd"
   xmlns:inkscape="http://www.inkscape.org/namespaces/inkscape"
   width="744.09448819"
   height="1052.3622047"
   id="svg3168"
   version="1.1"
   inkscape:version="0.48.2 r9819"
   sodipodi:docname="splat7.svg">
  <defs
     id="defs3170" />
  <sodipodi:namedview
     id="base"
     pagecolor="#ffffff"
     bordercolor="#666666"
     borderopacity="1.0"
     inkscape:pageopacity="0.0"
     inkscape:pageshadow="2"
     inkscape:zoom="0.55"
     inkscape:cx="375"
     inkscape:cy="1174.5455"
     inkscape:document-units="px"
     inkscape:current-layer="layer1"
     showgrid="false"
     inkscape:window-width="1012"
     inkscape:window-height="796"
     inkscape:window-x="197"
     inkscape:window-y="0"
     inkscape:window-maximized="0" />
  <metadata
     id="metadata3173">
    <rdf:RDF>
      <cc:Work
         rdf:about="">
        <dc:format>image/svg+xml</dc:format>
        <dc:type
           rdf:resource="http://purl.org/dc/dcmitype/StillImage" />
        <dc:title></dc:title>
      </cc:Work>
    </rdf:RDF>
  </metadata>
  <g
     inkscape:label="Layer 1"
     inkscape:groupmode="layer"
     id="layer1">
    <path
       d="m 38.684793,63.81284 c 0.7325,1.155 -0.1425,0.1075 -0.2875,0.215 -0.14375,0.10875 -0.6825,0.23375 -0.575,0.50375 0.1075,0.26875 0.55,0.65375 0.8625,0.575 0.31375,-0.0787 -0.0362,-0.60625 0,-0.79125 0.0375,-0.18375 -0.21,-0.5175 0.28875,-0.2875 0.4975,0.23 1.83,1.4125 2.51625,1.51 0.685,0.0975 -0.2775,-0.8925 0.43125,-0.935 0.70875,-0.0413 2.19125,0.1775 3.235,1.07875 1.04375,0.90125 -0.4975,2.51125 -0.14375,3.3075 0.35375,0.79625 1.27625,1.04875 1.725,0.43125 0.45,-0.6175 0.365,-2.14375 0.145,-2.80375 -0.22,-0.66 -1.2225,0.6075 -1.2225,-0.43125 0,-1.04 0.66875,-3.91625 1.0775,-4.8175 0.41,-0.9025 0.75875,-1.480003 1.07875,0 0.32,1.48 0.11125,3.43375 1.07875,4.31375 0.9675,0.88 1.96625,0.66625 2.1575,-0.575 0.19,-1.24125 -1.7725,-0.785 -2.7325,-2.1575 -0.96,-1.37125 0.245,-4.257503 0,-5.320003 -0.245,-1.0625 -0.87375,-0.115 -1.15,-0.43125 -0.2775,-0.31625 -1.15,-1.05625 -0.4325,-1.2225 0.71875,-0.165 2.33,1.93375 3.23625,0.575 0.90625,-1.35875 1.2575,-3.98875 1.58125,-5.105 0.32375,-1.115 0.10375,-0.25 0.2875,-0.2875 0.185,-0.03625 0.52875,0.2625 0.79125,0 0.2625,-0.26125 0.1575,-0.94875 0.43125,-1.22125 0.27375,-0.27375 0.8975,-0.79375 1.2225,-0.36 0.325,0.43375 -1.235,1.22 0,2.085 1.235,0.865 2.71875,3.24625 5.32,1.07875 2.60125,-2.1675 0.095,-5.2775 -1.36625,-6.975 -1.46,-1.69625 -0.64125,1.6975 -1.22125,2.01375 -0.58125,0.31625 -1.0425,-0.24625 -1.295,-0.79125 -0.25125,-0.545 0.0713,-1.61375 0.14375,-2.0125 0.0725,-0.4 0.2875,-0.1275 0.2875,-0.2875 0,-0.16125 -0.15625,-0.21625 -0.2875,-0.21625 -0.13,0 0.0125,2.12875 -0.2875,0.21625 -0.3,-1.91375 -2.18875,-5.3675 0,-5.89625 2.18875,-0.5275 1.68125,2.72 2.3725,1.87 0.6925,-0.85125 0.19625,-3.2675 0.57625,-4.02625 0.37875,-0.76 0.90625,-0.9125 1.22125,0.43125 0.31625,1.3425 0.31625,3.74125 2.01375,4.96125 1.6975,1.21875 -0.36875,2.58625 -0.2875,3.235 0.0812,0.64875 -0.27375,1.6975 0.79125,0.215 1.06375,-1.4825 2.83875,-6.86375 3.30625,-8.555 0.4675,-1.69125 0.21625,-0.1575 0.21625,-0.2875 0,-0.13125 -0.085,-0.2875 -0.21625,-0.2875 -0.13,0 -0.0788,0.20375 -0.2875,0.2875 -0.2075,0.0825 -0.6425,-0.2475 -0.79,0 -0.14875,0.24625 0.5475,0.80375 0,1.0775 -0.54875,0.27375 -1.845,0.3675 -2.445,0.2875 -0.6,-0.07875 -0.67875,-0.27125 -0.71875,-0.71875 -0.0412,-0.44625 -0.9425,-1.55375 0.43125,-1.725 1.37375,-0.17125 3.93,0.49125 2.7325,-0.2875 -1.19875,-0.77875 -2.575,-2.42125 -4.38625,-3.23625 -1.81125,-0.815 0.4725,-2.8425 0.43125,-5.17625 -0.0413,-2.33375 -1.5375,0.34625 -2.0125,-0.43125 -0.475,-0.7775 -0.10375,-2.68125 -0.4325,-3.37875 -0.3275,-0.69875 -0.78875,-1.0375 -1.15,-0.36 -0.36125,0.6775 -0.75375,2.78875 -0.64625,3.595 0.10625,0.80625 0.78125,-0.54375 1.15,-0.36 0.36875,0.185 0.15375,0.83375 0.43125,1.15125 0.27625,0.31625 0.9575,-0.01 1.2225,0.43125 0.26375,0.44125 0.72625,1.34375 0.0712,1.725 -0.655,0.3825 -2.095,-0.7075 -2.73125,-0.07125 -0.6375,0.63625 0.12875,2.1925 -0.0725,2.875 -0.20125,0.68375 -0.5125,0.635 -0.935,0.72 -0.42125,0.08375 -1.01375,-1.6625 -1.15,-0.43125 -0.13625,1.23 1.2675,2.72125 2.1575,3.5225 0.88875,0.80125 0.75625,1.69875 -0.86375,0.50375 -1.61875,-1.19625 -2.3725,-5.01875 -2.3725,-7.19 0,-2.1725 -1.02625,-0.93375 -1.2225,0.35875 -0.195,1.29375 -0.195,5.39375 0,6.6875 0.19625,1.2925 0.865,0.03375 1.2225,0.43125 0.3575,0.39625 1.13375,0.96875 0.79125,1.86875 -0.34375,0.90125 -1.94375,1.58 -3.09125,0.43125 -1.14875,-1.1475 -0.4225,-4.04125 -1.51,-5.53625 -1.0875,-1.495 -3.65375,1.39625 -4.8175,1.07875 -1.16375,-0.3175 0.475,-1.7325 0.14375,-2.3 -0.33125,-0.56875 -1.2275,-1.44625 -1.725,-0.36 -0.49875,1.08625 -0.8525,4.23625 -0.57625,5.3925 0.2775,1.15625 0.9025,-1.7275 1.07875,-1.07875 0.1775,0.64875 -1.35125,1.17125 -0.79125,2.3725 0.56125,1.2025 3.93125,0.255 3.73875,2.3725 -0.1925,2.11875 -2.745,1.59 -3.5225,2.445 -0.7775,0.85375 -0.48625,0.39375 -0.79125,-0.21625 -0.305,-0.61 -0.15,-2.77125 -1.0775,-3.235 -0.92875,-0.46375 -1.53,2.17125 -2.37375,1.58125 -0.8425,-0.59 0.49625,-2.3225 0.21625,-3.1625 -0.28,-0.84125 -0.9675,-1.31125 -1.725,-1.51 -0.75875,-0.2 -1.92375,-1.09625 -2.22875,0.43125 -0.30625,1.5275 1.61375,3.23375 2.15625,4.24125 0.5425,1.00875 0.5925,-0.62125 1.00625,0 0.415,0.6225 2.06,2.6225 1.07875,3.23625 -0.98125,0.6125 -2.09875,-1.765 -2.80375,-2.01375 -0.705,-0.24875 0.29125,0.99125 -0.79125,0.79125 -1.0825,-0.2 -4.253753,-1.74125 -5.680003,-3.45125 -1.425,-1.71 -0.37875,-4.505 -0.64625,-5.53625 -0.2675,-1.03125 -0.50875,-0.6425 -0.86375,-0.2875 -0.355,0.355 -0.37,1.5925 -0.71875,1.94125 -0.34875,0.34875 -0.495,-2.32875 -0.575,-0.575 -0.08,1.7525 1.305,9.0625 1.07875,11.2875 -0.22625,2.225 -0.75875,0.80875 -1.2225,0.935 -0.46375,0.12625 -0.9175,-0.08125 -1.15,-0.36 -0.2325,-0.2775 -0.255,-0.82375 0,-1.0775 0.25375,-0.255 1.125,0.89375 1.0775,0 -0.04625,-0.895 1.04125,-4.56 -1.15,-4.09875 -2.19125,0.46125 -2.6225,3.06875 -4.02625,4.09875 -1.40375,1.02875 -0.205,-1.69125 -0.6475,-3.38 -0.44125,-1.6875 -1.42,-1.1925 -1.86875,-0.575 -0.44875,0.6175 2.935,2.69625 0.14375,2.87625 -2.79125,0.18 -7.151251,-6.915 -9.9937513,-5.9675 -2.8425,0.9475 4.1100003,1.6575 2.4450003,2.7325 -1.66625,1.07375 -3.3375003,0.96625 -4.3862503,-0.4325 -1.04875,-1.3975 0.21375,-7.85375 1.4375,-8.19625 1.2237503,-0.3425 0.95,1.9325 2.4450003,1.07875 1.495,-0.85375 0.9,-3.87625 0.79125,-5.895 -0.11,-2.02 -0.53875,0.245 -0.57625,-0.50375 -0.03625,-0.74875 0.47875,-3.0025 0.28875,-3.81125 -0.19125,-0.80875 -1.00125,0.0375 -1.295,0 -0.29375,-0.03625 -0.435,0.63375 -0.2875,-0.215 0.1475,-0.84875 -0.5837503,-4.08625 1.07875,-4.60125 1.6625,-0.51625 1.56125,2.13625 2.51625,3.09125 0.955,0.955 1.175,-1.555 1.87,-1.36625 0.693751,0.19 0.767501,1.4525 0.43125,2.01375 -0.33625,0.56 -1.50125,-2.16375 -1.5825,0 -0.08125,2.16375 -2.09375,5.48875 1.00625,7.26125 3.101251,1.7725 0.928751,-3.2925 1.007501,-4.67375 0.07875,-1.38 1.0175,-0.07375 1.29375,-0.8625 0.27625,-0.78875 -0.60875,-2.765 0.2875,-3.45125 0.8975,-0.68625 2.62,0.7425 3.38,0.6475 0.75875,-0.095 -0.34375,-0.81 0,-1.00625 0.3425,-0.19625 1.36375,0.81625 1.58125,0 0.2175,-0.8175 -0.6075,-2.61125 -0.79125,-3.23625 -0.18375,-0.625 -0.325,0.16375 -0.2875,-0.2875 0.0375,-0.45125 -0.17875,-1.89375 0.43125,-2.3 0.61,-0.4075 1.84625,1.27625 2.30125,0.43125 0.455,-0.845 -0.93125,-1.91625 -1.94125,-2.7325 -1.01,-0.81625 -0.22125,0.575 -0.50375,0.575 -0.28125,0 -0.4025,-1.5625 -0.575,-0.575 -0.17125,0.98875 -2.3025,3.83 -3.5225,4.02625 -1.22125,0.19625 -0.28,0.85125 -0.43125,1.07875 -0.1525,0.2275 -0.08,0.205 -0.2875,0.2875 -0.20875,0.0825 -0.515,0.86875 -0.79125,0 -0.27625,-0.86875 -0.03,-2.6425 -0.862501,-2.1575 -0.83375,0.48625 0.702501,2.96875 -0.79125,3.23625 -1.49375,0.26625 -4.1425,-1.0625 -5.3925003,-2.1575 -1.25,-1.09375 -0.8775,-3.08125 -1.4375,-3.8825 -0.56125,-0.80125 -1.39,0.04875 -1.72625,-0.43125 -0.33625,-0.48 -0.41375,-1.3725 0.21625,-1.58125 0.63,-0.21 1.25125,-0.39 2.44375,-0.50375 1.1925003,-0.11375 -0.82125,0.7275 -0.2875,1.7975 0.535,1.06875 0.7625,2.48875 3.2362503,2.7325 2.4725,0.2425 3.8775,1.46625 5.103751,-0.79125 1.2275,-2.2575 -2.133751,-6.1575 -1.581251,-8.0525 0.5525,-1.895 0.823751,-0.05 1.150001,0.35875 0.3275,0.40875 -1.215001,1.545 0.43125,1.7975 1.64625,0.25375 4.15,0.3875 5.465,1.43875 1.31375,1.05125 0.0125,1.30625 0.43125,1.725 0.41875,0.42 1.325,0.15125 1.725,0.43125 0.40125,0.28125 -0.9425,0.87 0.43125,1.2225 1.37375,0.35375 3.69875,3.25125 5.465,2.22875 1.76625,-1.0225 1.39875,-4.45625 2.085003,-5.46375 0.685,-1.00875 1.2575,-0.64875 1.58125,0 0.32375,0.6475 -0.325,2.09125 -0.2875,2.66 0.0375,0.56875 0.29375,0.575 0.575,0.575 0.2825,0 0.37125,-0.9725 0.50375,-0.575 0.1325,0.3975 1.5025,0.4625 -0.14375,1.725 -1.64625,1.26375 -5.088753,3.9675 -6.615003,5.53625 -1.52625,1.57 -1.93125,-0.99875 -2.3725,-1.29375 -0.44125,-0.29375 -0.67875,0.2525 -0.215,-0.2875 0.4625,-0.54 2.08625,-3.05625 0.79,-3.5225 -1.295,-0.46625 -1.45625,1.485 -1.65375,2.15625 -0.19625,0.6725 0.43,1.32625 0.57625,1.65375 0.145,0.3275 0.815,-1.21875 0.2875,0.21625 -0.52875,1.435 -1.30375,3.01125 -1.15125,3.73875 0.15375,0.72625 0.175,2.49625 0.86375,0.8625 0.6875,-1.635 3.075,-1.35375 4.52875,-1.07875 1.45375,0.275 -0.0013,0.93375 0.2875,1.07875 0.28875,0.14375 0.07,-0.7925 0.50375,-0.575 0.43375,0.21625 0.655,1.96875 1.65375,1.65375 0.997503,-0.315 1.148753,-2.4275 2.372503,-3.02 1.22375,-0.5925 3.38375,-0.495 4.31375,-0.21625 0.93,0.27875 -0.68625,1.19 0,1.5825 0.68625,0.39125 2.4675,-0.0375 3.02,0 0.5525,0.03625 0.17875,-0.0063 0.215,0.2875 0.0375,0.29375 -0.4975,1.1525 0,1.36625 0.49875,0.2125 1.57875,-0.25625 1.65375,-0.86375 0.0763,-0.60625 -1.0775,-0.64625 -1.36625,-0.79 -0.2875,-0.14375 -0.65375,1.10375 -0.2875,-0.21625 0.3675,-1.32 1.2925,-3.98875 2.805,-4.4575 1.51125,-0.46875 -0.6825,1.36 -0.0725,2.0125 0.61,0.65375 2.27625,1.35625 3.16375,1.07875 0.8875,-0.27625 -0.79625,-2.475 0.2875,-2.15625 1.08375,0.3175 1.825,4.57 0.21625,4.52875 -1.60875,-0.04125 -0.5525,-1.86875 -1.295,-1.86875 -0.74125,0 -1.31,2.59875 -1.58125,5.3925 -0.27125,2.79375 1.325,1.895 1.86875,1.07875 0.545,-0.8175 -1.4575,-3.24625 -0.0712,-3.52375 1.38625,-0.2775 3.04,2.8875 4.4575,2.58875 1.4175,-0.29875 -0.40875,-2.74 -0.36,-3.38 0.05,-0.64 -0.72375,1.88125 0.50375,0.57625 1.22625,-1.30625 5.85875,-6.21125 6.18375,-7.8375 0.325,-1.62625 -0.5075,-0.89625 0.2875,-0.215 0.79375,0.68 -0.69125,4.86875 1.58125,4.31375 2.2725,-0.55625 0.1775,-5.3275 -0.6475,-6.4 -0.82375,-1.07125 -1.005,0.085 -1.22125,0.4325 -0.2175,0.34625 0.0362,1.065 0,1.365 -0.0375,0.3 0.18875,0.55875 -0.21625,0.28875 -0.405,-0.27125 -1.20125,-7.865 -0.8625,-8.62875 0.33875,-0.76375 0.71375,-1.21375 1.07875,0 0.36375,1.215 0.70125,4.16625 2.15625,6.47125 1.455,2.305 1.58875,1.295 2.1575,-0.575 0.56875,-1.87 -0.275,-4.5375 0.79,-3.73875 1.06625,0.79875 3.39125,4.215 2.58875,5.46375 -0.8025,1.25 -2.3075,-0.13875 -2.9475,0.2875 -0.64,0.4275 -0.5925,1.31375 -0.43125,1.7975 0.16125,0.485 1.2,-1.7825 1.0775,0 -0.12125,1.78375 -3.46125,5.68 -1.725,7.33375 1.73625,1.65375 2.335,0.2875 3.09125,0.71875 0.75625,0.4325 0.2475,-0.22375 0.2875,0.21625 0.04,0.44 -0.22625,1.61625 -0.0712,2.15625 0.15375,0.54125 0.9025,0.02375 0.8625,0.86375 -0.04,0.83875 -1.1225,2.87 -0.935,3.81 0.18875,0.94 1.27125,-0.6025 1.72625,0.43125 0.455,1.035 0.1375,2.43125 1.29375,2.7325 1.15625,0.30125 1.735,-1.04625 1.7975,-1.7975 0.0625,-0.75125 -1.3525,-0.3175 -1.65375,-0.79125 -0.30125,-0.4725 -0.25,-1.3025 0,-1.65375 0.25125,-0.35 0.76875,0.35125 1.2225,0.14375 0.45375,-0.20625 0.69625,-1.3525 1.2225,-1.22125 0.52625,0.13125 0.11875,1.1975 0.43125,1.51 0.31125,0.31125 0.97625,-0.61625 1.07875,0 0.1025,0.615 -0.7125,2.09 -0.575,2.73125 0.13625,0.64125 0.905,0.0825 1.22125,0.36 0.31625,0.27625 0.85,0.86375 0.43125,1.2225 -0.4175,0.3575 -1.36125,-0.24875 -1.7975,0.14375 -0.435,0.39125 -0.2425,1.37375 -0.35875,1.725 -0.1175,0.35125 0.2175,0.21 -0.2875,0.2875 -0.50625,0.0775 -1.8925,0.40125 -2.445,0 -0.5525,-0.40125 1.2,-1.49 0,-1.58125 -1.2,-0.0925 -3.7,3.5975 -3.235,5.0325 0.465,1.435 1.2925,1.70625 0.71875,2.58875 -0.57375,0.8825 -1.84125,0.0175 -2.30125,0.43125 -0.45875,0.4125 0.51125,1.1175 0,1.58125 -0.51,0.46375 -1.89125,-1.69375 -2.3,0.43125 -0.40875,2.125 4.2725,7.14 2.80375,9.49125 -1.46875,2.35 -4.02,-2.32625 -4.96125,-2.01375 -0.94,0.31375 -1.005,0.8075 -0.35875,1.2225 0.64625,0.41625 2.37375,-0.96375 3.3075,0.6475 0.9325,1.61 0.91,6.145003 1.365,7.548753 0.45625,1.405 1.5175,-1.04125 1.2225,0.43125 -0.29375,1.47375 -1.3,4.95125 -1.58125,6.39875 -0.28125,1.44875 -0.71375,1.1775 -1.07875,0 -0.365,-1.17625 -0.0975,-2.525 -0.8625,-2.66 -0.765,-0.135 -1.61125,0.34625 -1.87,1.07875 -0.2575,0.7325 0.71375,1.9675 0.575,2.66 -0.1375,0.69375 -0.9475,0.1575 -1.22125,0.43125 -0.27375,0.27375 -0.1225,0.9575 -0.43125,1.2225 -0.30875,0.265 -0.82875,-0.35 -1.07875,0 -0.25125,0.35125 -0.355,1.17625 0,1.5825 0.355,0.405 1.3725,-0.67625 1.65375,0 0.28125,0.675 0.16875,2.03125 -0.575,2.73125 -0.745,0.70125 -3.805,3.92875 -3.73875,2.085 0.065,-1.8425 1.62125,-3.98 0.64625,-5.46375 -0.975,-1.48375 -2.26375,-0.72 -2.80375,0.14375 -0.54,0.86375 1.6875,4.84875 0.79125,3.235 -0.89625,-1.61375 -3.9075,-5.72125 -4.96125,-7.19 -1.055,-1.46875 -1.45,-1.7375 -1.72625,-0.35875 -0.275,1.37875 -0.18375,3.80625 -0.79,4.8175 -0.60625,1.01 -0.25125,0.0837 -0.2875,-0.28875 -0.0375,-0.37125 1.19625,-1.86875 0,-1.86875 -1.1975,0 -2.1225,1.96 -1.65375,2.9475 0.4675,0.9875 1.05125,-0.7125 1.36625,-0.79 0.31375,-0.0787 0.10375,-0.5575 0.2875,0.2875 0.1825,0.84375 1.25125,4.59375 0.2875,5.10375 -0.96375,0.51 -0.3075,-1.21875 -0.79125,-1.58125 -0.48375,-0.3625 -1.13125,1.05625 -1.7975,-0.43125 -0.665,-1.4875 -0.0425,-2.93 -0.35875,-3.8825 -0.3175,-0.9525 -1.275,0.98125 -1.94125,0.79125 -0.6675,-0.19125 -0.99375,-1.1425 -1.07875,-1.65375 -0.085,-0.5125 0.2075,-0.95375 0.79125,-1.07875 0.5825,-0.125 1.24,0.98625 2.22875,0.575 0.9875,-0.41125 1.8025,-1.685 1.15,-2.58875 -0.6525,-0.9025 -1.68625,4.01875 -2.80375,0.14375 -1.11875,-3.87375 -7.76875,-5.8175 -7.62125,-9.7775 0.1475,-3.960003 0.09,-1.257503 1.4375,-0.71875 1.3475,0.53875 2.79125,2.15125 3.5225,3.3075 z"
       inkscape:connector-curvature="0"
       id="path46"
       style="fill:#2c2c2b;fill-rule:evenodd;stroke:none" />
  </g>
</svg>
