<?xml version="1.0" encoding="UTF-8" standalone="no"?>
<!-- Created with Inkscape (http://www.inkscape.org/) -->

<svg
   xmlns:dc="http://purl.org/dc/elements/1.1/"
   xmlns:cc="http://creativecommons.org/ns#"
   xmlns:rdf="http://www.w3.org/1999/02/22-rdf-syntax-ns#"
   xmlns:svg="http://www.w3.org/2000/svg"
   xmlns="http://www.w3.org/2000/svg"
   xmlns:sodipodi="http://sodipodi.sourceforge.net/DTD/sodipodi-0.dtd"
   xmlns:inkscape="http://www.inkscape.org/namespaces/inkscape"
   width="744.09448819"
   height="1052.3622047"
   id="svg3168"
   version="1.1"
   inkscape:version="0.48.2 r9819"
   sodipodi:docname="splat9.svg">
  <defs
     id="defs3170" />
  <sodipodi:namedview
     id="base"
     pagecolor="#ffffff"
     bordercolor="#666666"
     borderopacity="1.0"
     inkscape:pageopacity="0.0"
     inkscape:pageshadow="2"
     inkscape:zoom="0.55"
     inkscape:cx="375"
     inkscape:cy="1174.5455"
     inkscape:document-units="px"
     inkscape:current-layer="layer1"
     showgrid="false"
     inkscape:window-width="1012"
     inkscape:window-height="796"
     inkscape:window-x="197"
     inkscape:window-y="0"
     inkscape:window-maximized="0" />
  <metadata
     id="metadata3173">
    <rdf:RDF>
      <cc:Work
         rdf:about="">
        <dc:format>image/svg+xml</dc:format>
        <dc:type
           rdf:resource="http://purl.org/dc/dcmitype/StillImage" />
        <dc:title></dc:title>
      </cc:Work>
    </rdf:RDF>
  </metadata>
  <g
     inkscape:label="Layer 1"
     inkscape:groupmode="layer"
     id="layer1">
    <path
       d="m 53.790852,86.444224 c 0.0625,-0.0937 0.125,-0.15625 0.22,-0.21875 -0.095,-0.095 -0.1575,-0.1575 -0.22,-0.22 -0.09375,0.0625 -0.15625,0.125 -0.21875,0.22 -1.63,0.62625 -2.72625,0.72 -3.605,2.25625 -0.97125,0.125 -0.97125,0.125 -1.37875,-0.31375 0.2825,-0.595 0.565,-1.15875 0.84625,-1.72375 -0.09375,-0.0937 -0.15625,-0.15625 -0.21875,-0.21875 0,-0.1575 0,-0.31375 0,-0.43875 0.0625,-0.0937 0.125,-0.1575 0.21875,-0.22 0.0625,-0.0937 0.12625,-0.15625 0.22,-0.21875 0.0625,-0.0937 0.125,-0.1575 0.21875,-0.22 0.815,-0.815 1.53625,-1.2225 1.53625,-2.38125 -0.72125,0.5325 -1.41,1.065 -2.1,1.5975 0,-0.43875 0,-0.87625 0,-1.28375 5.4525,-4.16875 10.31,-7.49 15.13625,-12.94375 -1.15875,4.16875 -2.945,7.835 -4.76375,11.7525 -0.3125,-0.31375 -0.595,-0.595 -0.87625,-0.8775 -0.84625,1.72375 -1.755,2.47625 -3.26,3.6975 0.31375,-0.0625 0.62625,-0.0937 0.97125,-0.125 0.03125,0.25125 0.06375,0.50125 0.095,0.78375 -1.755,1.755 -4.04375,3.25875 -4.545,5.6725 1.3475,-0.50125 1.47375,-1.38 3.04,-1.755 -0.595,2.31875 -1.41,3.79125 -2.6325,5.86 -0.21875,-0.0625 -0.43875,-0.125 -0.62625,-0.1875 0,-1.035 0,-2.06875 0,-3.0725 -0.97125,1.34875 -1.72375,2.88375 -3.26,3.47875 -0.09375,-0.595 -0.15625,-1.15875 -0.21875,-1.72375 -1.25375,0.84625 -2.47625,1.72375 -3.6975,2.60125 1.315,-4.01125 2.8825,-2.005 5.295,-3.8225 0.31375,-3.51 1.06625,-3.73 3.82375,-5.955 z m 30.9,-78.1274964 c -0.25,-1.8175 0.43875,-3.29 2.19375,-3.91625 -0.50125,2.005 -0.62625,2.63125 -2.19375,3.91625 z m -0.21875,0.84625 c 0.0625,-0.0625 0.125,-0.125 0.21875,-0.1875 0.0625,0.0625 0.125,0.125 0.22,0.1875 -0.095,0.0625 -0.1575,0.125 -0.22,0.22 -0.21875,0.21875 -0.43875,0.43875 -0.6575,0.6575004 0,-0.5950004 0,-1.1587504 0,-1.7237504 0.125,0.2825 0.28125,0.565 0.43875,0.84625 z m -31.33875,3.5100004 c -0.095,-0.09375 -0.1575,-0.15625 -0.22,-0.21875 0.4075,-1.0975 1.12875,-1.12875 2.19375,-1.53625 -0.6575,1.755 -0.6575,1.755 -1.535,2.60125 -0.1575,-0.2825 -0.31375,-0.56375 -0.43875,-0.84625 z m 18.52125,4.325 c -0.06375,-0.78375 -0.095,-1.535 -0.12625,-2.2875 0.53375,-0.03125 1.06625,-0.0625 1.63,-0.09375 1.59875,-1.81875 3.19625,-3.63625 4.795,-5.4537504 0,4.0425004 -3.2275,5.5162504 -6.29875,7.8350004 z m -14.385,1.535 c -0.09375,-0.09375 -0.15625,-0.15625 -0.21875,-0.21875 0.0625,-0.09375 0.125,-0.15625 0.21875,-0.22 0.0625,0.06375 0.125,0.12625 0.22,0.22 0.90875,-0.1875 1.8175,-0.37625 2.72625,-0.56375 -0.12625,0.62625 -0.22,1.2525 -0.31375,1.88 1.50375,-0.8775 1.50375,-0.8775 3.25875,-2.6325 0,3.60375 -5.70375,11.7525 -8.93125,12.19125 -0.78375,2.225 -3.82375,3.85375 -6.205,3.5725 -0.25,-2.57 2.35,-4.63875 4.13625,-6.08 -0.03125,-0.6275 -0.0625,-1.25375 -0.09375,-1.84875 -1.97375,0.72 -2.945,3.1025 -4.13625,4.795 -0.09375,-0.095 -0.15625,-0.1575 -0.22,-0.22 -0.3125,-0.09375 -0.595,-0.15625 -0.8775,-0.21875 0.37625,0.6575 0.37625,0.6575 0.65875,0.43875 0.0625,0.0625 0.125,0.125 0.21875,0.21875 -1.1275,1.755 -1.88,3.26 -3.60375,4.45 -0.125,-0.25 -0.21875,-0.50125 -0.3125,-0.7525 -0.31375,0 -0.59625,0 -0.8775,0 -0.69,1.41125 -1.66125,2.60125 -0.65875,4.1375 -0.43875,0.6575 -0.8775,1.31625 -1.31625,1.97375 -0.15625,-0.15625 -0.2825,-0.3125 -0.4075,-0.43875 1.25375,-8.555 3.1025,-11.4075 9.7775,-16.76625 -0.21875,-0.15625 -0.43875,-0.3125 -0.6575,-0.43875 -1.285,0.7525 -2.57,1.505 -3.82375,2.2875 0,-0.4375 0,-0.87625 0,-1.31625 1.63,-1.03375 2.9775,-2.22375 4.92,-2.475 0.50125,1.0025 1.00375,2.005 1.53625,3.04 0.0625,0.0625 0.125,0.125 0.21875,0.21875 0.0625,0.0625 0.12625,0.12625 0.22,0.22 0.0625,0.0625 0.125,0.125 0.1875,0.21875 0.0625,-0.09375 0.125,-0.15625 0.22,-0.21875 -0.095,-0.09375 -0.1575,-0.1575 -0.22,-0.22 0.0625,-0.09375 0.125,-0.15625 0.22,-0.21875 2.1625,-1.59875 3.76,-2.225 4.13625,-5.015 z m 20.46375,1.975 c 0.72125,-2.94625 2.19375,-6.33 5.23375,-7.4275 -1.5975,2.82125 -2.85125,5.29625 -5.23375,7.4275 z m -24.6,1.72375 c -0.095,-0.09375 -0.1575,-0.1575 -0.22,-0.22 0,-0.3125 0,-0.595 0,-0.8775 0.2825,-0.09375 0.56375,-0.15625 0.8775,-0.21875 -0.21875,0.43875 -0.43875,0.8775 -0.6575,1.31625 z m 15.45,0.8775 c 0,-0.12625 0,-0.2825 0,-0.43875 0.125,0 0.28125,0 0.43875,0 0,0.125 0,0.2825 0,0.43875 -0.12625,0 -0.2825,0 -0.43875,0 z m -5.64125,1.72375 c 0.125,-1.53625 0.21875,-2.25625 1.09625,-3.47875 -0.15625,1.0025 -0.3125,2.0375 -0.43875,3.07125 -0.21875,0.125 -0.43875,0.25 -0.6575,0.4075 z m 23.50375,6.55 c 0.09375,-0.5025 0.1875,-0.9725 0.31375,-1.4425 0.3125,-0.125 0.6575,-0.21875 1.0025,-0.3125 -0.6575,1.31625 -0.6575,1.31625 -1.31625,1.755 z m -73.77125,3.91625 c 0.0625,-0.09375 0.125,-0.15625 0.22,-0.21875 0.0625,0.0625 0.125,0.125 0.21875,0.21875 0.345,0.12625 0.69,0.2825 1.06625,0.43875 0,0.2825 0,0.565 0,0.84625 -0.37625,-0.15625 -0.72125,-0.28125 -1.06625,-0.4075 -0.09375,0.0625 -0.15625,0.12625 -0.21875,0.22 -0.095,-0.09375 -0.1575,-0.1575 -0.22,-0.22 0,-0.3125 0,-0.595 0,-0.8775 z m 40.45875,0.43875 c 0.0625,-0.09375 0.125,-0.15625 0.21875,-0.21875 0.0625,0.0625 0.125,0.125 0.22,0.21875 -0.095,0.06375 -0.1575,0.12625 -0.22,0.22 -0.09375,0.345 -0.15625,0.69 -0.21875,1.065 -0.1575,-0.21875 -0.31375,-0.43875 -0.43875,-0.6575 0.125,-0.22 0.28125,-0.43875 0.43875,-0.6275 z m 4.575,0.84625 c 0,-0.125 0,-0.25 0,-0.4075 0.125,0 0.2825,0 0.43875,0 0,0.12625 0,0.25125 0,0.4075 -0.125,0 -0.2825,0 -0.43875,0 z m -20.025,0 c 0,-1.15875 0,-2.31875 0,-3.4775 0.3125,0.09375 0.62625,0.1875 0.97125,0.3125 0.0625,1.6925 0.125,1.88 -0.97125,3.165 z m -2.82125,-15.66875 c 0.0625,0.0625 0.12625,0.125 0.22,0.21875 0.0625,-0.09375 0.125,-0.15625 0.21875,-0.21875 -0.09375,-0.0625 -0.15625,-0.12625 -0.21875,-0.18875 0.4075,-3.6975 1.6925,-3.44625 3.9175,-5.67125 -0.565,-0.565 -0.565,-0.565 -0.565,-1.66125 0.815,-0.18875 1.66125,-0.37625 2.5075,-0.5325 0.15625,0.15625 0.345,0.34375 0.5325,0.5325 -1.5975,3.2275 -1.19,10.06 -5.07625,10.81125 -0.31375,-0.5325 -0.59625,-1.03375 -0.8775,-1.535 -0.345,0.09375 -0.69,0.1875 -1.00375,0.3125 -0.34375,1.63 -0.6575,3.26 -0.97125,4.92125 -0.09375,-0.095 -0.15625,-0.1575 -0.21875,-0.22 -0.1575,0 -0.2825,0 -0.4075,0 -0.09375,0.0625 -0.1575,0.125 -0.22,0.22 -0.09375,0.0625 -0.15625,0.125 -0.21875,0.21875 -0.09375,0.0625 -0.15625,0.125 -0.22,0.22 -0.21875,0 -0.43875,0 -0.6575,0 0.37625,0.62625 0.37625,0.62625 0.6575,0.4075 0.06375,0.0625 0.12625,0.125 0.22,0.21875 0,0.345 0,0.72125 0,1.0975 0.28125,0 0.56375,0 0.84625,0 0.125,-0.59625 0.2825,-1.16 0.43875,-1.72375 0.47,-0.12625 0.94,-0.25125 1.41,-0.345 0.09375,-0.47 0.22,-0.94 0.345,-1.41 1.72375,-0.65875 1.72375,-0.65875 2.695,-0.565 0.125,1.9125 -1.0975,3.54125 -2.47625,4.92125 -0.15625,-0.1575 -0.3125,-0.31375 -0.43875,-0.43875 -0.815,0.81375 -1.31625,3.165 -1.31625,4.35625 -0.50125,0.375 -3.51,1.4725 -3.8225,1.41 -0.095,-0.9725 0.34375,-1.85 1.31625,-10.24875 0.3125,-0.1875 0.6575,-0.375 1.0025,-0.5325 -1.065,-1.065 -0.50125,-2.13125 -0.125,-3.38375 0.81375,-0.4075 1.66,-0.815 2.50625,-1.19125 z m 39.39375,16.54625 c -0.095,-1.15875 -0.1575,-2.31875 -0.22,-3.47875 -0.56375,-0.34375 -0.56375,-0.34375 -1.535,0 1.66,-4.32375 8.085,-11.97125 11.845,-14.6975 0.2825,3.98 -4.575,9.935 -7.615,12.41 -0.0625,2.8525 0.03125,4.2625 -2.475,5.76625 z m -27.86125,0 c 0.345,-2.25625 2.35125,-3.165 4.35625,-3.9175 -0.94,1.88125 -2.6325,2.7275 -4.35625,3.9175 z m -23.9425,0.43875 c 1.12875,-3.76 3.98,-6.42375 5.6725,-9.99625 0.2825,0 0.56375,0 0.8775,0 -0.15625,2.8825 -0.72125,3.72875 -2.4125,6.07875 -0.1575,-0.15625 -0.31375,-0.3125 -0.43875,-0.43875 -1.4425,1.4425 -1.66125,3.63625 -3.69875,4.35625 z m 63.11625,0.43875 c 0,-0.125 0,-0.28125 0,-0.43875 0.125,0 0.2825,0 0.43875,0 0,0.12625 0,0.2825 0,0.43875 -0.125,0 -0.28125,0 -0.43875,0 z m -26.105,0.22 c -0.09375,-0.09375 -0.15625,-0.1575 -0.22,-0.22 0.06375,-0.09375 0.12625,-0.15625 0.22,-0.21875 0.0625,0.0625 0.125,0.125 0.21875,0.21875 -0.09375,0.0625 -0.15625,0.12625 -0.21875,0.22 z m -15.66875,0.6575 c 0.21875,-0.43875 0.4375,-0.8775 0.6575,-1.31625 0.09375,0.31375 0.1875,0.6275 0.31375,0.9725 -0.345,0.09375 -0.65875,0.21875 -0.97125,0.34375 z m 9.5575,0.65875 c -0.09375,-0.09375 -0.15625,-0.1575 -0.21875,-0.22 0.0625,-0.09375 0.125,-0.15625 0.21875,-0.21875 0.0625,0.0625 0.125,0.125 0.22,0.21875 -0.095,0.0625 -0.1575,0.12625 -0.22,0.22 z m -36.98,0 c -0.09375,-0.09375 -0.15625,-0.1575 -0.21875,-0.22 0.0625,-0.09375 0.125,-0.15625 0.21875,-0.21875 0.06375,0.0625 0.12625,0.125 0.22,0.21875 0.0625,0.2825 0.125,0.56375 0.21875,0.84625 -0.43875,0 -0.43875,0 -0.43875,-0.62625 z m -1.535,1.50375 c -0.09375,-0.3125 -0.15625,-0.595 -0.22,-0.8775 0.43875,0 0.43875,0 0.43875,0.65875 0.06375,0.0625 0.12625,0.125 0.22,0.21875 -0.09375,0.0625 -0.15625,0.125 -0.22,0.22 -0.09375,-0.095 -0.15625,-0.1575 -0.21875,-0.22 z m 38.515,0.22 c -0.09375,-0.095 -0.15625,-0.1575 -0.21875,-0.22 0.0625,-0.09375 0.125,-0.15625 0.21875,-0.21875 0.0625,0.0625 0.125,0.125 0.22,0.21875 -0.095,0.0625 -0.1575,0.125 -0.22,0.22 z m -44.3749996,1.09625 c 0.15625,-1.97375 -0.18875,-3.32125 -0.12625,-5.35875 0.31375,-0.03125 0.6275,-0.0625 0.9725,-0.09375 -0.1575,0.125 -0.2825,0.28125 -0.4075,0.43875 0.5325,0.47 1.0649996,0.94 1.5974996,1.41 -0.09375,1.06625 -0.15625,2.1625 -0.21875,3.25875 -0.6275,0.095 -1.2224996,0.22 -1.8174996,0.345 z m 70.0724996,0.43875 c 0.12625,-2.25625 0.9725,-3.635 1.285,-5.6725 -1.19125,0.6275 -1.6925,0.6275 -3.04,0.43875 2.00625,-6.42375 5.485,-10.52875 9.81,-15.66875 0.125,0.21875 0.28125,0.43875 0.43875,0.6575 -1.59875,4.45 -7.5525,6.4875 -6.11125,11.9725 0.68875,-0.565 1.37875,-1.12875 2.0675,-1.66125 0.095,1.50375 -3.2275,9.05625 -4.45,9.93375 z m 5.64125,0.8775 c 0.09375,-0.50125 0.1875,-0.97125 0.31375,-1.44125 0.50125,-0.15625 1.0025,-0.31375 1.535,-0.43875 0.03125,0.31375 0.0625,0.6575 0.12625,1.0025 -0.565,0.5325 -0.565,0.5325 -1.975,0.8775 z m -11.7525,0 c 0.72125,-1.2225 0.91,-1.72375 2.19375,-2.19375 -0.62625,1.25375 -0.97125,1.47375 -2.19375,2.19375 z m -34.3775,0 c -0.06375,-0.50125 -0.095,-0.97125 -0.12625,-1.44125 0.31375,-0.125 0.65875,-0.22 1.00375,-0.31375 -0.22,1.31625 -0.22,1.31625 -0.8775,1.755 z m -9.15125,0.84625 c 0,-0.125 0,-0.28125 0,-0.43875 0.125,0 0.2825,0 0.43875,0 0,0.125 0,0.2825 0,0.43875 -0.125,0 -0.2825,0 -0.43875,0 z m 13.94625,0.8775 c 0.0625,-0.595 0.125,-1.15875 0.21875,-1.72375 1.37875,-0.7525 1.4725,-0.84625 1.8175,-2.31875 1.88,-0.97125 1.88,-0.97125 3.19625,-1.19125 -0.47,2.94625 -2.91375,3.76125 -5.2325,5.23375 z m -3.04,0 c -0.06375,-0.50125 -0.095,-0.97125 -0.12625,-1.44125 0.9725,-0.09375 0.9725,-0.09375 1.41125,0.345 -0.43875,0.34375 -0.87875,0.72 -1.285,1.09625 z m -17.86375,0 c 0.22,-2.60125 0.22,-2.60125 0.7525,-3.60375 0.62625,-0.125 1.25375,-0.22 1.88,-0.31375 -0.125,-0.345 -0.25,-0.68875 -0.345,-1.0025 -0.34375,-0.125 -0.6575,-0.21875 -0.97125,-0.31375 0.25125,-0.47 0.50125,-0.94 0.7525,-1.41 0.47,-0.125 0.94,-0.21875 1.41,-0.31375 0.0625,-0.595 0.125,-1.19 0.22,-1.755 0.7825,-0.43875 1.5975,-0.8775 2.4125,-1.285 -0.84625,3.855 -3.855,6.55 -4.2625,9.6525 -0.62625,0.09375 -1.25375,0.22 -1.84875,0.345 z m 3.47875,0.43875 c 0,-0.31375 0,-0.595 0,-0.8775 0.2825,0.0625 0.56375,0.125 0.8775,0.22 -0.31375,0.21875 -0.595,0.43875 -0.8775,0.6575 z m 36.13375,0.43875 c 1.4725,-3.79125 6.2675,-8.9 10.43625,-9.59 -0.9725,5.17125 -5.0775,8.27375 -10.43625,9.59 z m -48.7325,0 c 0.18875,-2.19375 0.18875,-2.19375 0.6275,-2.60125 0,0.72125 0,1.44125 0,2.1625 -0.22,0.125 -0.43875,0.2825 -0.6275,0.43875 z m -4.1362496,0.8775 c 0.0625,-0.09375 0.125,-0.15625 0.22,-0.21875 0.125,-0.53375 0.25,-1.035 0.4075,-1.53625 0.2812496,0 0.5637496,0 0.8774996,0 -0.22,2.19375 -0.22,2.19375 -0.65875,2.60125 -0.1562496,-0.2825 -0.2824996,-0.56375 -0.4074996,-0.84625 -0.09375,0.0625 -0.15625,0.125 -0.21875,0.21875 0,0.345 0,0.69 0,1.06625 -0.1575,0 -0.31375,0 -0.43875,0 0.0625,-0.43875 0.125,-0.8775 0.21875,-1.285 z m 64.1812496,1.285 c 0.095,-0.62625 0.18875,-1.25375 0.31375,-1.84875 0.90875,-0.565 1.8175,-1.0975 2.72625,-1.63 -0.72,2.225 -0.90875,2.38125 -3.04,3.47875 z m -30.46,0 c 0,-0.125 0,-0.2825 0,-0.43875 0.125,0 0.28125,0 0.43875,0 0,0.125 0,0.2825 0,0.43875 -0.12625,0 -0.2825,0 -0.43875,0 z m -6.51875,0.8775 c 0.1875,-2.445 0.62625,-3.3225 3.04,-3.9175 -1.53625,2.60125 -1.53625,2.60125 -3.04,3.9175 z m -29.6149996,0.8775 c 0,-0.125 0,-0.2825 0,-0.43875 0.125,0 0.28125,0 0.43875,0 0,0.125 0,0.2825 0,0.43875 -0.12625,0 -0.2825,0 -0.43875,0 z m 18.7087496,2.1625 c -0.21875,-1.285 -0.21875,-1.285 0.31375,-2.2875 0.28125,0 0.56375,0 0.8775,0 -0.5325,1.84875 -0.5325,1.84875 -1.19125,2.2875 z m 13.94625,0.43875 c -0.095,-0.8775 -0.1575,-1.755 -0.22,-2.60125 0.2825,-0.31375 0.56375,-0.595 0.8775,-0.8775 0.43875,0.43875 0.43875,0.43875 0.43875,2.60125 -0.37625,0.2825 -0.7525,0.56375 -1.09625,0.8775 z m 6.07875,0.8775 c -1.03375,-0.815 -1.7225,-0.72125 -3.04,-0.8775 0.9725,-1.5675 1.0975,-2.0375 1.0975,-3.9175 0.125,0.125 0.2825,0.2825 0.43875,0.43875 0.65875,-1.78625 1.6925,-2.57 3.04,-3.9175 0.43875,0.43875 0.43875,0.43875 0.43875,1.31625 -0.6275,0.595 -1.25375,1.19125 -1.88,1.8175 0.4075,0.09375 0.81375,0.22 1.22125,0.345 -0.21875,1.44125 -0.43875,2.88375 -0.6575,4.35625 -0.22,0.125 -0.43875,0.28125 -0.65875,0.43875 z m -17.83125,0 c 0,-0.125 0,-0.2825 0,-0.43875 0.125,0 0.2825,0 0.43875,0 0,0.125 0,0.28125 0,0.43875 -0.125,0 -0.2825,0 -0.43875,0 z m -2.19375,0.43875 c 0,-0.125 0,-0.2825 0,-0.43875 0.2825,0 0.56375,0 0.8775,0 0,0.125 0,0.2825 0,0.43875 -0.2825,0 -0.56375,0 -0.8775,0 z m 22.6575,0.8775 c 0,-0.2825 0,-0.56375 0,-0.8775 0.12625,0 0.2825,0 0.43875,0 0,0.28125 0,0.56375 0,0.8775 -0.125,0 -0.28125,0 -0.43875,0 z m -3.4775,0.43875 c -0.12625,-0.18875 -0.25125,-0.37625 -0.345,-0.565 0.25,-0.125 0.50125,-0.21875 0.7525,-0.3125 -0.1575,0.28125 -0.2825,0.56375 -0.4075,0.8775 z m -7.835,0 c 0,-0.43875 0,-0.8775 0,-1.31625 0.28125,0 0.56375,0 0.84625,0 -0.2825,0.43875 -0.565,0.8775 -0.84625,1.31625 z m -5.23375,0.4075 c 0.6575,-0.84625 0.6575,-0.84625 1.31625,-3.47875 0.2825,0 0.56375,0 0.84625,0 -0.2825,1.15875 -0.56375,2.31875 -0.84625,3.47875 -0.43875,0 -0.8775,0 -1.31625,0 z m -23.9424996,4.35625 c -0.31375,-1.88125 1.285,-4.57625 3.0399996,-5.2025 -0.2825,1.4725 -0.53375,2.94625 -0.7837496,4.45 -0.7525,0.25125 -1.505,0.50125 -2.25625,0.7525 z m 13.5062496,0.43875 c 0.18875,-1.72375 0.18875,-1.72375 0.6275,-2.1625 0.43875,0.43875 0.43875,0.43875 0.6575,1.72375 -0.43875,0.125 -0.8775,0.28125 -1.285,0.43875 z m 22.18875,0.21875 c -0.06375,-0.56375 -0.095,-1.09625 -0.12625,-1.63 1.16,-0.75125 1.37875,-1.2525 2.06875,-2.50625 0.7525,1.50375 0.43875,2.19375 -0.5325,3.3525 -0.345,-0.125 -0.65875,-0.21875 -0.97125,-0.3125 -0.095,0.43875 -0.1575,0.8775 -0.22,1.315 -0.09375,0.06375 -0.15625,0.12625 -0.21875,0.22 0.21875,1.97375 0.21875,1.97375 0.75125,2.476246 -0.3125,0 -0.595,0 -0.8775,0 -0.6575,1.065 -0.90875,1.6925 -2.0675,2.09875 0,-0.595 0,-1.19 0,-1.755 -0.2825,0 -0.565,0 -0.84625,0 -0.4075,1.975 -0.22,3.57375 -2.32,3.57375 -0.15625,-2.225 1.85,-4.921246 2.32,-7.489996 0.40625,0.0625 0.84625,0.125 1.285,0.21875 -0.1575,0.125 -0.31375,0.2825 -0.43875,0.43875 1.03375,0.50125 1.1275,0.8775 1.535,1.97375 0.125,-0.595 0.2825,-1.19 0.43875,-1.755 0.0625,-0.09375 0.125,-0.15625 0.22,-0.21875 z m 13.2875,-7.17625 c 0.0625,0.0625 0.125,0.125 0.1875,0.21875 0.0625,0.06375 0.125,0.12625 0.22,0.22 0.0625,0.0625 0.125,0.125 0.21875,0.21875 -1.44125,1.72375 -1.755,2.41375 -3.9175,2.82125 -1.1275,2.19375 -1.50375,3.04 -3.60375,4.23 -0.03125,-0.68875 -0.0625,-1.37875 -0.09375,-2.03625 0.815,-0.6275 0.90875,-0.84625 1.97375,-0.65875 1.66125,-2.2875 2.695,-3.47875 5.015,-5.01375 z m -9.37125,8.27375 c -0.21875,-2.13125 0.47,-4.45 2.60125,-5.23375 -0.75125,1.91125 -1.25375,3.66625 -2.60125,5.23375 z m 1.31625,2.161246 c 0.095,-0.34375 0.18875,-0.6575 0.2825,-0.971246 0.31375,-0.125 0.65875,-0.21875 1.0025,-0.31375 -0.125,0.31375 -0.25,0.627496 -0.34375,0.941246 -0.31375,0.0937 -0.6275,0.21875 -0.94125,0.34375 z m -17.8625,0.8775 c 0.1875,-2.036246 0.5325,-3.352496 1.97375,-4.793746 -0.28125,1.69125 -0.47,3.728746 -1.97375,4.793746 z m -8.7125,2.19375 c -0.09375,-1.75375 -0.15625,-3.50875 -0.21875,-5.232496 2.03625,-2.0375 1.065,-4.98375 3.47875,-7.39625 0,4.82625 0,8.931246 -3.26,12.628746 z m 10.90625,1.94375 c -0.09375,-0.0937 -0.1575,-0.1575 -0.22,-0.22 0.0625,-0.0937 0.12625,-0.15625 0.22,-0.21875 0.0625,0.0625 0.125,0.125 0.21875,0.21875 -0.09375,0.0625 -0.15625,0.12625 -0.21875,0.22 z m 13.475,0.21875 c 0.22,-1.5975 0.9725,-2.25625 1.975,-3.47875 0,1.5675 -0.4075,2.915 -1.975,3.47875 z m -16.765,0.8775 c 0.0625,-0.0937 0.125,-0.15625 0.21875,-0.21875 0.21875,-0.37625 0.43875,-0.7525 0.6575,-1.0975 0.43875,0.43875 0.43875,0.43875 0.43875,1.31625 -0.3125,0 -0.595,0 -0.8775,0 -0.09375,0.0625 -0.15625,0.12625 -0.21875,0.22 0,0.6575 0,0.6575 -0.43875,0.6575 0.0625,-0.31375 0.125,-0.595 0.22,-0.8775 z m 5.89125,3.9175 c 0.0625,-0.8775 0.125,-1.755 0.21875,-2.6325 2.225,-1.755 2.66375,-2.91375 5.4225,-1.72375 0.25,-0.90875 0.50125,-1.8175 0.75125,-2.72625 0.31375,-0.125 0.65875,-0.21875 1.00375,-0.31375 0,0.565 0,1.12875 0,1.72375 0.3125,0.0937 0.62625,0.18875 0.97125,0.31375 0.125,1.0025 0.125,1.0025 -0.43875,1.97375 -0.47,0.095 -0.94,0.22 -1.41,0.345 -0.12625,1.31625 -0.12625,1.72375 -1.19125,2.47625 -0.345,-0.125 -0.65875,-0.22 -0.97125,-0.31375 0,-0.43875 0,-0.8775 0,-1.31625 -0.345,-0.125 -0.69,-0.25 -1.00375,-0.345 -1.065,1.755 -1.44125,1.81875 -3.3525,2.53875 z m -6.11125,0.43875 c 1.535,-2.19375 1.535,-2.19375 5.4525,-6.11125 0,3.60375 -1.9425,5.57875 -5.4525,6.11125 z m 5.23375,2.60125 c 0,-0.125 0,-0.2825 0,-0.43875 0.125,0 0.28125,0 0.43875,0 0,0.125 0,0.2825 0,0.43875 -0.12625,0 -0.2825,0 -0.43875,0 z m 12.62875,2.1625 c 0.47,-1.63 0.7525,-2.2875 1.94375,-3.47875 -0.345,1.44125 -0.72125,2.60125 -1.94375,3.47875 z m -6.5175,0 c 0.4075,-1.31625 0.84625,-2.6325 1.285,-3.9175 0.28125,0 0.56375,0 0.8775,0 -0.53375,1.78625 -0.9725,2.5075 -2.1625,3.9175 z m 3.9175,2.6325 c 0.09375,-0.50125 0.1875,-0.97125 0.28125,-1.44125 0.47,-0.0312 0.94,-0.0637 1.44125,-0.095 -0.595,0.5025 -1.15875,1.00375 -1.7225,1.53625 z m -16.10875,0.8775 c 0,-0.59625 0,-1.19125 0,-1.755 0.2825,0 0.56375,0 0.84625,0 -0.22,1.31625 -0.22,1.31625 -0.84625,1.755 z m -6.98875,1.72375 c 0.65875,-2.1625 0.65875,-2.1625 1.53625,-3.04 0,0.56375 0,1.12875 0,1.72375 -0.53375,0.43875 -1.035,0.8775 -1.53625,1.31625 z m 11.7525,1.755 c 0.09375,-0.6275 0.1875,-1.25375 0.31375,-1.88125 0.62625,-0.0312 1.2525,-0.0625 1.88,-0.0937 -0.7525,0.65875 -1.47375,1.31625 -2.19375,1.975 z m -17.3925,2.1625 c 0.97125,-5.14 5.39,-13.6325 4.79375,-18.27125 3.07125,-1.285 2.25625,-2.91375 4.1375,-4.79375 1.37875,1.50375 -0.43875,6.5175 -0.8775,8.2725 0.125,0.125 0.28125,0.2825 0.43875,0.43875 0.4075,-0.7525 0.84625,-1.4725 1.285,-2.19375 0,2.3825 -0.25125,5.6725 -2.1625,7.39625 -4.92,-4.575 -0.94,-1.41 -4.795,2.85125 0.125,0.22 0.28125,0.43875 0.43875,0.65875 -0.50125,1.9425 -1.285,4.92 -3.25875,5.64125 z m 29.145,4.35625 c 0.21875,-1.47375 0.375,-1.7875 1.75375,-2.1625 -0.6575,1.28375 -0.6575,1.28375 -1.75375,2.1625 z m 4.355,3.4775 c 0,-0.125 0,-0.28125 0,-0.43875 0.2825,0 0.565,0 0.8775,0 0,0.12625 0,0.2825 0,0.43875 -0.28125,0 -0.56375,0 -0.8775,0 z m -2.1625,1.755 c 0.095,-0.62625 0.18875,-1.2525 0.31375,-1.88 0.31375,-0.125 0.65875,-0.21875 1.0025,-0.31375 -0.15625,1.25375 -0.37625,1.41125 -1.31625,2.19375 z m -11.75125,0 c 0.47,-1.91125 0.815,-2.82 1.9425,-4.35625 0.12625,0.2825 0.2825,0.565 0.43875,0.87875 -0.0625,-0.5025 -0.09375,-0.9725 -0.125,-1.4425 0.25,-0.125 0.50125,-0.21875 0.78375,-0.3125 0,0.72 0,1.44125 0,2.16125 -0.43875,0 -0.8775,0 -1.31625,0 -0.37625,1.505 -0.565,2.1 -1.72375,3.07125 z m -4.35625,3.039996 c 0.56375,-1.879996 1.1275,-2.819996 2.38125,-4.356246 0,2.06875 -0.8775,3.134996 -2.38125,4.356246 z m 5.6725,0.43875 c -0.0625,-0.345 -0.095,-0.68875 -0.12625,-1.0025 0.31375,-0.125 0.6275,-0.21875 0.9725,-0.31375 -0.22,0.8775 -0.22,0.8775 -0.84625,1.31625 z m -16.5475,2.60125 c -1.15875,-6.988746 3.5725,-10.842496 7.1775,-15.668746 0,2.82 -5.57875,14.352496 -7.1775,15.668746 z m -3.25875,-12.191246 c 0.0625,0.0637 0.125,0.12625 0.21875,0.22 -0.4075,1.9425 -1.44125,3.98 -0.6575,5.89125 2.38125,-2.38125 1.72375,-6.0475 2.38125,-9.58875 0.84625,-0.1575 1.72375,-0.31375 2.60125,-0.43875 -2.66375,4.92 -1.66,13.663746 -5.42125,17.423746 -0.15625,-0.15625 -0.31375,-0.31375 -0.43875,-0.43875 0.345,-2.1 0.43875,-4.5125 0.43875,-6.518746 -0.1875,-0.125 -0.37625,-0.25 -0.56375,-0.34375 -2.19375,1.19 -1.94375,3.603746 -4.45,4.261246 0,-0.43875 0,-0.8775 0,-1.31625 0.28125,0 0.56375,0 0.8775,0 0.72,-1.597496 1.44125,-3.196246 2.1625,-4.794996 0.28125,-0.0937 0.56375,-0.15625 0.87625,-0.21875 0.43875,-0.94 0.87875,-1.88 1.31625,-2.82125 -0.3125,0 -0.595,0 -0.8775,0 -0.375,0.565 -0.75125,1.12875 -1.09625,1.72375 0,-2.72625 0.97125,-1.78625 2.6325,-3.04 z m 9.33875,16.108746 c 0.125,-1.16 0.2825,-2.31875 0.43875,-3.47875 0.43875,0 0.43875,0.8775 0.8775,0.8775 0.84625,-2.19375 1.63,-2.66375 3.9175,-3.47875 -1.19125,2.41375 -2.47625,5.35875 -5.23375,6.08 z m -3.9175,2.82 c -0.09375,-0.0937 -0.15625,-0.15625 -0.21875,-0.21875 0.0625,-0.0625 0.125,-0.125 0.21875,-0.18875 0.0625,0.0637 0.125,0.12625 0.22,0.18875 -0.095,0.0625 -0.1575,0.125 -0.22,0.21875 z"
       inkscape:connector-curvature="0"
       id="path54"
       style="fill:#2c2c2b;fill-rule:evenodd;stroke:none" />
  </g>
</svg>
